<?xml version="1.0" encoding="utf-8"?>
<!-- Generator: Adobe Illustrator 27.0.0, SVG Export Plug-In . SVG Version: 6.00 Build 0)  -->
<svg version="1.1" id="Layer_1" xmlns="http://www.w3.org/2000/svg" xmlns:xlink="http://www.w3.org/1999/xlink" x="0px" y="0px"
	 viewBox="0 0 300 300" style="enable-background:new 0 0 300 300;" xml:space="preserve">
<style type="text/css">
	.st0{fill:#BBB890;}
	.st1{fill:#BAB792;}
	.st2{fill:#9D7B63;}
	.st3{fill:#575D40;}
	.st4{fill:#372827;}
	.st5{fill:#529317;}
	.st6{fill:#005014;}
	.st7{fill:#00751E;}
	.st8{fill:#43A200;}
	.st9{fill:#398E00;}
	.st10{fill:#00530F;}
	.st11{fill:#096924;}
	.st12{fill:none;stroke:#9DD100;stroke-miterlimit:10;}
	.st13{fill:none;stroke:#00530F;stroke-miterlimit:10;}
	.st14{fill:none;stroke:#398E00;stroke-miterlimit:10;}
	.st15{fill:#6D5741;}
</style>
<polygon class="st0" points="202.74,216.47 202.74,245.11 197.69,245.11 197.69,247.5 197.69,251.48 188.58,251.48 188.58,255.46 
	112.76,255.46 112.76,252.27 106.7,252.27 106.7,246.71 97.6,246.71 97.6,215.81 "/>
<rect x="97.6" y="198.83" class="st1" width="105.15" height="17.64"/>
<polygon class="st2" points="97.6,198.83 134.4,198.83 133.39,241.3 141.08,255.64 112.76,255.46 112.76,252.27 106.7,252.27 
	106.7,246.71 97.6,246.71 "/>
<polygon class="st3" points="97.6,212.99 203.2,212.53 203.2,209.31 97.6,209.2 "/>
<polygon class="st4" points="146.66,199.05 143.29,119.55 156.72,103.69 155.58,199.05 "/>
<path class="st5" d="M146.26,171.48c-8.99,6.78-23.74,9.37-36.13,6.28c-4.73-1.18-9.06-3.09-13.74-4.35
	c-6.41-1.73-13.46-2.23-20.22-1.44c-5.56,0.66-11.31,0.07-16.94,0.09c-1.55,0-3.13,0-4.6-0.35c-1.99-0.48-3.59-1.58-4.79-2.82
	c-3.02-3.11-3.74-7.02-4.29-10.79c-0.68-4.73-1.09-9.8,2.32-13.87c4.81-5.73,15.14-7.33,23.59-10.24
	c6.98-2.39,13.48-6.02,21.18-6.46c6.17-0.35,12.32,1.51,16.96,4.4c4.66,2.89,7.94,6.76,10.37,10.81c0.66,1.12,1.31,2.28,2.54,3.09
	c2.52,1.68,6.43,1.36,9.83,1.82c6,0.79,10.79,4.25,13.28,8.18c2.49,3.94,3.04,8.38,3.24,12.71c0.07,1.55-2.34,2.32-2.63,2.95
	L146.26,171.48z"/>
<path class="st6" d="M152.87,28.8c3.68-4.99,9.67-9.54,17.48-10.57c4.95-0.66,10.02,0.2,15.03,0.13c9.19-0.11,19.23-3.09,27.02,0.37
	c5.8,2.56,7.92,7.77,9.15,12.52c0.66,2.56,1.2,5.21,0.46,7.77c-0.92,3.13-3.68,5.84-6.63,8.25c-13.57,11.05-32.3,17.97-51.03,23.63
	c-3.68,1.12-22.82,8.14-21.6,2.93c0.2-0.85,2.06-1.77,2.54-2.65c0.85-1.55,0.59-3.19,0.59-4.84c-0.02-3.98-0.2-7.94-0.13-11.93
	c0.15-8.75,1.29-17.72,7.11-25.6L152.87,28.8z"/>
<path class="st7" d="M115.74,84.56c-5.84-3.61-9.63-8.58-13.85-13.2c-4.7-5.14-10.11-9.98-16.08-14.42
	c-4.07-3.02-8.69-6.24-9.17-10.39c-0.37-3.15,1.77-6.15,3.94-8.93c2.63-3.33,5.4-6.65,7.11-10.26c1.55-3.3,2.3-7,5.67-9.54
	c3.96-2.98,10.61-3.44,16.06-2.12s9.96,4.05,14.16,6.85c4.2,2.8,8.32,5.76,13.44,7.62c3.02,1.12,6.35,1.82,9.13,3.19
	c4.33,2.14,6.87,5.65,8.73,9.15c6.56,12.39,6.28,26.52-0.81,38.78c-2.71,4.68-6.59,10-14.46,9.83c-8.38-0.18-17.55-2.67-23.85-6.56
	L115.74,84.56z"/>
<path class="st8" d="M101.05,127.03c-6.46-1.75-12.91-3.5-19.34-5.25c-4.99-1.36-10.18-2.8-13.63-5.69
	c-3.39-2.84-4.62-6.67-7.64-9.72C53.59,99.53,38.95,98,33.17,90.67c-3.26-4.14-2.82-9.41,0.04-13.68c2.87-4.29,7.92-7.66,13.5-10.26
	c3.68-1.73,7.66-3.17,11.97-3.79c10.92-1.6,22.52,2.21,33.26,0.09c2.63-0.53,5.16-1.4,7.9-1.47c6-0.13,10.74,3.61,13.5,7.4
	c2.76,3.79,4.6,8.1,8.99,10.99c4.64,3.04,11.2,3.92,17.18,5.36c6.04,1.47,12.14,3.85,14.92,7.92c1.4,2.04,1.84,4.31,2.19,6.56
	c1.4,9.34,0.59,19.85-8.69,26.54c-4.09,2.95-7.62,4.92-9.1,9.15c-1.18,3.37-0.96,6.35-6.76,4.42c-4.79-1.58-8.4-4.95-12.87-6.96
	c-5.67-2.54-11.99-4.22-18.23-5.91L101.05,127.03z"/>
<path class="st9" d="M159.15,65.3c16.21-4.6,35.01-5.32,48.8-12.93c2.6-1.44,5.05-3.13,8.21-3.81c3.9-0.85,8.27,0.07,11.44,1.88
	c3.17,1.82,5.27,4.42,6.74,7.11c0.9,1.68,1.62,3.46,3.15,4.9c2.76,2.54,7.51,3.44,11.44,5.01c8.6,3.46,13.44,10.96,11.84,17.9
	c-1.6,6.94-9.34,12.87-18.86,14.77c-5.43,1.09-11.36,0.98-16.48,2.65c-7.92,2.58-12.21,8.73-19.1,12.49
	c-5.8,3.15-13.15,4.49-20.35,5.36c-8.86,1.07-18.29,1.58-26.57-0.92c-16.54-4.99-20.39-17.77-19.65-29.24
	c0.72-11.07,3.59-20.66,19.39-25.14L159.15,65.3z"/>
<path class="st10" d="M154.23,133.56c-1.4-5.12-3.7-10.26-2.98-15.47c0.04-0.35,0.11-0.7,0.39-1.01c0.42-0.44,1.23-0.61,1.97-0.7
	c6.11-0.83,12.34,0.42,18.4,1.4c6.06,0.98,12.63,1.71,18.34-0.07c3.09-0.96,5.65-2.58,8.18-4.16c6.15-3.79,12.63-7.42,20.09-9.72
	c1.01-0.31,2.08-0.59,3.15-0.44c1.68,0.24,2.71,1.42,3.35,2.56c2.1,3.74,2.06,8.07-0.11,11.82c-0.72,1.23-1.66,2.41-2.01,3.7
	c-1.07,4.03,3.72,8.05,2.39,12.04c-0.83,2.49-3.83,4.27-6.65,5.84c-9.54,5.32-19.52,10.7-31.29,12.82
	c-4.31,0.79-8.75,1.09-13.09,1.82c-4.62,0.77-17.29,6.63-18.18,0.9c-1.12-7.13,0-14.22-1.97-21.38L154.23,133.56z"/>
<path class="st11" d="M168.56,146.95c7.9-5.19,17.92-8.4,27.73-11.55c5.47-1.75,10.94-3.5,16.41-5.25
	c7.57-2.43,15.58-4.9,23.85-4.31c3.63,0.26,7.16,1.12,10.55,2.06c4.33,1.2,8.71,2.65,11.84,5.1c4.57,3.59,5.78,8.99,3.79,13.61
	c-1.99,4.62-6.89,8.47-12.76,10.94c-4.09,1.73-8.77,2.91-12.04,5.36c-4.07,3.06-5.14,7.51-7.94,11.23c-3.74,4.99-10.7,8.6-18.4,9.98
	c-7.7,1.38-16.04,0.66-23.28-1.68c-5.49-1.77-10.48-4.46-16.32-5.54c-5.45-0.98-10.55-0.2-15.97,0.18
	c-4.09-10.28,1.73-23.02,12.56-30.13L168.56,146.95z"/>
<path class="st12" d="M159.15,65.3c0,0,11.55-35.65,45.1-36.59"/>
<path class="st12" d="M154.69,171.83c0,0,55.17-38.36,98.8-34.6"/>
<path class="st13" d="M53.24,78.72c45.87-7.55,98.01,39.37,98.01,39.37s11.6-28.03,69.76-52.58"/>
<path class="st13" d="M148.89,168.52c0,0-63.2-31.29-86.7-21.86"/>
<path class="st14" d="M140.53,85.15c0,0-5.62-41.36-38.08-52.67"/>
<path class="st15" d="M232.27,286H61.92c-1.29,0-2.34-1.05-2.34-2.34v-25.95c0-1.29,1.05-2.34,2.34-2.34h170.35
	c1.29,0,2.34,1.05,2.34,2.34v25.95C234.61,284.95,233.56,286,232.27,286z"/>
</svg>
