<?xml version="1.0" encoding="UTF-8"?>
<svg id="Layer_1" data-name="Layer 1" xmlns="http://www.w3.org/2000/svg" viewBox="0 0 118 118.47">
  <defs>
    <style>
      .cls-1 {
        fill: #6b6299;
      }

      .cls-2 {
        fill: #655a49;
      }

      .cls-3 {
        fill: #bcb5e8;
      }

      .cls-4 {
        fill: #cae1e5;
      }

      .cls-5 {
        fill: #413a58;
      }

      .cls-6 {
        fill: #9693ba;
      }
    </style>
  </defs>
  <circle class="cls-4" cx="50.35" cy="68.13" r="50.35"/>
  <rect class="cls-4" x="73.57" y="13.23" width="33.13" height="29.48" transform="translate(7.07 72.76) rotate(-45.57)"/>
  <rect class="cls-2" x="97.34" y="-3.43" width="12.26" height="35.59" rx="5.97" ry="5.97" transform="translate(20.78 78.2) rotate(-45.57)"/>
  <circle class="cls-5" cx="51.04" cy="68.82" r="38.69"/>
  <path class="cls-1" d="M45.34,102c-41.11-4.17-28.86-59.32-21.12-49.11-.03-2.53-1.46,10.48,21.49,13.04,22.89,2.55,34.99-16.62,38.63-5.93,3.64,10.69,.11,46.07-40,42"/>
  <path class="cls-3" d="M72.38,74.06c.53-.97,1.39-.97,1.92,0l.8,1.46c.53,.97,1.75,2.19,2.71,2.71l1.46,.8c.97,.53,.97,1.39,0,1.92l-1.46,.8c-.97,.53-2.19,1.75-2.71,2.71l-.8,1.46c-.53,.97-1.39,.97-1.92,0l-.8-1.46c-.53-.97-1.75-2.19-2.71-2.71l-1.46-.8c-.97-.53-.97-1.39,0-1.92l1.46-.8c.97-.53,2.19-1.75,2.71-2.71l.8-1.46Z"/>
  <path class="cls-3" d="M60.33,70.21c.41-.76,1.09-.76,1.5,0s1.37,1.71,2.13,2.13,.76,1.09,0,1.5-1.71,1.37-2.13,2.13-1.09,.76-1.5,0-1.37-1.71-2.13-2.13-.76-1.09,0-1.5,1.71-1.37,2.13-2.13Z"/>
  <path class="cls-3" d="M64.35,87.09c.25-.45,.65-.45,.9,0s.82,1.02,1.27,1.27,.45,.65,0,.9-1.02,.82-1.27,1.27-.65,.45-.9,0-.82-1.02-1.27-1.27-.45-.65,0-.9,1.02-.82,1.27-1.27Z"/>
  <ellipse class="cls-6" cx="39.84" cy="43.5" rx="7.5" ry="6.5" transform="translate(-9.18 10.68) rotate(-13.71)"/>
  <ellipse class="cls-6" cx="54.18" cy="37.95" rx="3.16" ry="3.05"/>
</svg>