<?xml version="1.0" encoding="UTF-8"?>
<svg id="Layer_1" data-name="Layer 1" xmlns="http://www.w3.org/2000/svg" viewBox="0 0 342.59 146.63">
  <defs>
    <style>
      .cls-1 {
        fill: #00530f;
      }

      .cls-2 {
        fill: #005014;
      }

      .cls-3 {
        fill: #00751e;
      }

      .cls-4 {
        fill: #6b9f5a;
      }

      .cls-5 {
        fill: #9cba84;
      }

      .cls-6 {
        fill: #9d7b63;
      }

      .cls-7 {
        fill: #72af63;
      }

      .cls-8 {
        fill: #bab792;
      }

      .cls-9 {
        fill: #bbb890;
      }

      .cls-10 {
        fill: #c6efab;
      }

      .cls-11 {
        fill: #096924;
      }

      .cls-12 {
        fill: #372827;
      }

      .cls-13 {
        fill: #43a200;
      }

      .cls-14 {
        fill: #529317;
      }

      .cls-15 {
        fill: #398e00;
      }

      .cls-16 {
        fill: #575d40;
      }

      .cls-17 {
        fill: #4f8136;
      }

      .cls-18 {
        fill: #503627;
      }

      .cls-19 {
        fill: #7aa958;
      }

      .cls-20 {
        stroke: #4e5439;
        stroke-width: 4px;
      }

      .cls-20, .cls-21, .cls-22, .cls-23, .cls-24, .cls-25 {
        fill: none;
        stroke-miterlimit: 10;
      }

      .cls-21 {
        stroke: #00530f;
      }

      .cls-22 {
        stroke: #72af63;
      }

      .cls-23 {
        stroke: #9dd100;
      }

      .cls-24 {
        stroke: #398e00;
      }

      .cls-25 {
        stroke: #c6efab;
      }
    </style>
  </defs>
  <polygon class="cls-9" points="210.87 111.78 210.87 127.68 207.87 127.68 207.87 129 207.87 131.21 202.48 131.21 202.48 133.42 157.53 133.42 157.53 131.65 153.93 131.65 153.93 128.56 148.54 128.56 148.54 111.42 210.87 111.78"/>
  <rect class="cls-8" x="148.54" y="102" width="62.33" height="9.79"/>
  <polygon class="cls-6" points="148.54 102 170.36 102 169.75 125.56 174.31 133.52 157.53 133.42 157.53 131.65 153.93 131.65 153.93 128.56 148.54 128.56 148.54 102"/>
  <polygon class="cls-16" points="148.54 109.85 211.15 109.6 211.15 107.82 148.54 107.76 148.54 109.85"/>
  <polygon class="cls-12" points="177.61 102.11 175.63 58 183.58 49.2 182.92 102.11 177.61 102.11"/>
  <path class="cls-14" d="M177.38,86.82c-5.33,3.77-14.08,5.19-21.41,3.49-2.81-.65-5.37-1.71-8.15-2.41-3.8-.96-7.98-1.24-11.99-.8-3.29,.36-6.71,.04-10.05,.05-.92,0-1.86,0-2.72-.2-1.18-.27-2.13-.88-2.84-1.57-1.78-1.73-2.22-3.9-2.54-5.99-.4-2.62-.65-5.44,1.38-7.7,2.85-3.18,8.98-4.07,13.99-5.68,4.13-1.33,7.98-3.34,12.56-3.58,3.65-.19,7.3,.83,10.06,2.44s4.71,3.75,6.15,5.99c.39,.61,.77,1.26,1.51,1.72,1.49,.93,3.82,.76,5.82,1,3.55,.44,6.39,2.35,7.87,4.54s1.81,4.65,1.92,7.06c.04,.86-1.38,1.29-1.56,1.64Z"/>
  <path class="cls-2" d="M181.31,7.65c2.18-2.77,5.74-5.3,10.36-5.87,2.93-.36,5.94,.1,8.91,.07,5.45-.06,11.4-1.71,16.02,.21,3.44,1.42,4.69,4.31,5.42,6.95,.39,1.42,.71,2.89,.27,4.3-.54,1.74-2.18,3.24-3.93,4.58-8.05,6.14-19.14,9.97-30.25,13.11-2.18,.62-13.53,4.51-12.8,1.62,.12-.48,1.22-.99,1.5-1.47,.5-.86,.36-1.77,.35-2.69-.02-2.21-.11-4.41-.07-6.62,.09-4.85,.77-9.84,4.21-14.21Z"/>
  <path class="cls-3" d="M159.29,38.59c-3.47-2-5.71-4.76-8.21-7.32-2.79-2.86-5.99-5.54-9.54-8-2.41-1.67-5.15-3.45-5.44-5.76-.22-1.75,1.05-3.42,2.33-4.95,1.55-1.85,3.2-3.69,4.21-5.7,.92-1.84,1.36-3.89,3.37-5.3,2.34-1.65,6.29-1.9,9.53-1.18s5.9,2.25,8.39,3.8,4.93,3.19,7.97,4.23c1.79,.61,3.76,1.01,5.41,1.78,2.56,1.19,4.08,3.14,5.18,5.08,3.89,6.87,3.72,14.72-.48,21.51-1.61,2.6-3.9,5.54-8.58,5.45-4.97-.1-10.4-1.48-14.14-3.64Z"/>
  <path class="cls-13" d="M150.59,62.15c-3.82-.97-7.65-1.94-11.47-2.91-2.95-.75-6.04-1.56-8.08-3.16-2.01-1.58-2.73-3.71-4.53-5.39-4.05-3.8-12.73-4.65-16.16-8.71-1.93-2.3-1.68-5.22,.03-7.59,1.71-2.37,4.7-4.25,8.01-5.7,2.18-.95,4.55-1.76,7.1-2.1,6.48-.88,13.35,1.23,19.72,.05,1.56-.29,3.07-.77,4.69-.81,3.56-.08,6.38,2,8,4.1s2.72,4.49,5.34,6.09c2.75,1.68,6.64,2.18,10.18,2.98,3.58,.81,7.2,2.14,8.85,4.4,.83,1.13,1.1,2.4,1.3,3.65,.84,5.18,.35,11.01-5.14,14.73-2.42,1.64-4.51,2.74-5.4,5.07-.7,1.86-.57,3.52-4.01,2.46-2.84-.88-4.98-2.75-7.63-3.86-3.36-1.4-7.11-2.35-10.8-3.28Z"/>
  <path class="cls-15" d="M185.03,27.9c9.61-2.55,20.75-2.95,28.93-7.17,1.54-.8,3-1.74,4.87-2.12,2.31-.47,4.9,.04,6.78,1.05s3.13,2.45,3.99,3.94c.54,.93,.96,1.92,1.87,2.71,1.63,1.41,4.45,1.9,6.78,2.78,5.1,1.92,7.97,6.09,7.02,9.93s-5.54,7.14-11.18,8.2c-3.22,.6-6.73,.54-9.77,1.47-4.7,1.43-7.23,4.84-11.33,6.93-3.44,1.75-7.79,2.49-12.06,2.97-5.25,.6-10.84,.87-15.74-.51-9.81-2.77-12.09-9.86-11.65-16.23,.43-6.14,2.12-11.46,11.5-13.95Z"/>
  <path class="cls-1" d="M182.12,65.77c-.83-2.85-2.19-5.7-1.76-8.58,.03-.19,.07-.39,.23-.55,.25-.24,.72-.33,1.16-.39,3.62-.46,7.32,.23,10.91,.78s7.49,.95,10.86-.04c1.83-.53,3.34-1.43,4.85-2.3,3.64-2.1,7.48-4.12,11.91-5.39,.59-.17,1.24-.33,1.87-.25,1,.13,1.61,.79,1.99,1.42,1.25,2.08,1.22,4.48-.07,6.55-.42,.68-.98,1.33-1.19,2.05-.64,2.24,2.21,4.47,1.42,6.68-.49,1.38-2.27,2.37-3.95,3.24-5.65,2.96-11.57,5.94-18.55,7.12-2.55,.43-5.19,.61-7.76,1.01-2.74,.43-10.25,3.67-10.79,.5-.67-3.96,0-7.89-1.16-11.87Z"/>
  <path class="cls-11" d="M190.61,73.21c4.69-2.87,10.62-4.66,16.44-6.41,3.24-.97,6.49-1.94,9.73-2.91,4.49-1.34,9.24-2.72,14.14-2.39,2.16,.14,4.24,.61,6.26,1.14,2.57,.67,5.16,1.47,7.01,2.83,2.72,1.99,3.43,4.99,2.24,7.55s-4.08,4.69-7.56,6.07c-2.42,.96-5.2,1.61-7.13,2.97-2.41,1.7-3.05,4.17-4.7,6.23-2.22,2.76-6.35,4.77-10.91,5.54-4.57,.77-9.51,.36-13.8-.94-3.26-.99-6.21-2.47-9.68-3.07-3.24-.55-6.26-.11-9.47,.1-2.42-5.71,1.02-12.78,7.44-16.72Z"/>
  <path class="cls-23" d="M185.03,27.9s6.84-19.78,26.74-20.31"/>
  <path class="cls-23" d="M182.38,87.01s32.7-21.29,58.56-19.19"/>
  <path class="cls-21" d="M122.25,35.35c27.19-4.19,58.11,21.84,58.11,21.84,0,0,6.88-15.56,41.36-29.18"/>
  <path class="cls-21" d="M178.94,85.18s-37.46-17.36-51.39-12.13"/>
  <path class="cls-24" d="M173.99,38.92s-3.34-22.95-22.57-29.23"/>
  <polygon class="cls-9" points="308.24 107.3 308.24 128.33 305.82 128.33 305.82 130.09 305.82 133.01 301.46 133.01 301.46 135.93 265.12 135.93 265.12 133.59 262.22 133.59 262.22 129.5 257.85 129.5 257.85 106.83 308.24 107.3"/>
  <rect class="cls-8" x="254.54" y="104.51" width="56.36" height="9.79"/>
  <polygon class="cls-6" points="254.54 104.51 254.53 114.68 257.19 114.68 256.9 104.44 254.54 104.51"/>
  <polygon class="cls-6" points="255.87 104.51 272.14 104.51 271.69 128.07 275.09 136.03 262.57 135.93 262.57 134.16 259.89 134.16 259.89 131.07 255.87 131.07 255.87 104.51"/>
  <polygon class="cls-16" points="254.54 114.98 310.9 114.73 310.9 112.95 254.54 112.89 254.54 114.98"/>
  <polygon class="cls-9" points="102.11 105.11 102.11 126.14 98.56 126.14 98.56 127.89 98.56 130.81 92.16 130.81 92.16 133.73 38.87 133.73 38.87 131.4 34.61 131.4 34.61 127.31 28.22 127.31 28.22 104.63 102.11 105.11"/>
  <rect class="cls-8" x="23.35" y="102.31" width="82.65" height="9.79"/>
  <polygon class="cls-6" points="23.35 102.31 23.35 112.49 27.24 112.49 26.81 102.25 23.35 102.31"/>
  <polygon class="cls-6" points="25.3 102.31 50.96 102.31 50.25 125.88 55.61 133.84 35.87 133.73 35.87 131.97 31.64 131.97 31.64 128.88 25.3 128.88 25.3 102.31"/>
  <polygon class="cls-16" points="23.35 112.79 106 112.54 106 110.75 23.35 110.69 23.35 112.79"/>
  <rect class="cls-18" x="12.84" y="133.27" width="306.35" height="13.35" rx="5.62" ry="5.62"/>
  <path class="cls-7" d="M268.39,104.27c-2.54-.49-4.97-1.85-5.68-3.83-.39-1.1-.24-2.31-.84-3.34-1.52-2.62-6.58-2.56-8.78-4.85-1.09-1.13-1.3-2.68-2.44-3.78-1.34-1.29-3.66-1.66-5.76-1.55-2.1,.11-4.14,.62-6.25,.76-5.73,.36-11.06-2.1-15.9-4.54,8.81,.14,17.55-4.77,25.91-2.57,2.05,.54,3.92,1.49,6.02,1.9,1.75,.35,3.62,.32,5.3,.83,2.01,.61,3.54,1.91,4.99,3.16,2,1.74,4.01,3.48,6.01,5.21,2.2,1.9,4.45,3.88,5.52,6.31,.58,1.31,1.52,5.06-.08,6.19-1.41,.99-6.36,.41-8.01,.1Z"/>
  <path class="cls-10" d="M270.82,92.05c-1.48-1.7-3.52-3.19-4.18-5.19-.78-2.36,.54-5-.66-7.25-.53-1-1.5-1.8-2.21-2.72-1.55-2.02-1.76-4.53-1.22-6.85s1.79-4.49,3.02-6.64c3.92,1.99,6.74,5.29,7.61,8.9,.4,1.67,.42,3.44,1.42,4.94,.6,.9,1.51,1.65,2.27,2.47,1.72,1.86,2.68,4.16,2.7,6.46,.01,1.64-.41,3.41,.63,4.83,.61,.83,1.63,1.41,2.46,2.1,3.54,2.94,3.49,7.49,3.22,11.53-.31,4.54-6.4,.17-8.11-1.58-3.2-3.27-3.99-7.6-6.95-11Z"/>
  <path class="cls-10" d="M289.26,96.07c2.14-1.59,5.19-2.51,6.55-4.57,1.42-2.16,.66-5.18,2.97-6.8,.93-.66,2.23-.94,3.1-1.65,1.53-1.24,1.23-3.23,1.72-4.92,.52-1.8,2.1-3.4,4.19-4.24,.7-.28,1.48-.49,2.04-.93,1.32-1.04,.86-2.79,1.31-4.22,.54-1.69,2.36-2.9,4.09-3.99,1.6-1.01,3.24-2.04,5.19-2.52,1.68-.42,3.48-.41,5.24-.36,3.57,.1,7.13,.34,10.66,.71-5.29,3.95-10.85,8.02-17.84,9.63-1.09,.25-2.26,.47-3.04,1.12-1.93,1.62,.04,4.23-.23,6.44-.39,3.18-5.24,4.81-6.75,7.78-.77,1.51-.59,3.2-.8,4.82-.6,4.5-4.25,8.32-7.76,11.89-1.11,1.12-2.26,2.28-3.84,2.96-2.63,1.12-12.1,1.92-11.98-1.46,.05-1.35,1.37-3.2,1.81-4.53,.65-1.95,1.49-3.74,3.39-5.16Z"/>
  <path class="cls-7" d="M282.47,71.68c.42-1.37,1.61-2.5,2.26-3.82,2.14-4.34-2.08-9.29-.55-13.79,.56-1.63,1.83-3.05,2.78-4.56s1.59-3.32,.78-4.88c1.71,3.2,4.36,6.03,6.35,9.12s3.31,6.7,2.1,10.04c-.31,.85-.78,1.67-.96,2.55-.3,1.5,.29,3.02,.95,4.44,1.4,3.02,3.19,6.3,1.82,9.33-.83,1.82-2.71,3.27-3.36,5.13-.99,2.81,1.01,6.03-.66,8.63-.99,1.54-3.02,2.44-4.82,3.41-1.76,.96-3.39,2.19-3.69,3.94-1.31-2.45-3.11-5.68-2.97-8.41s2.94-4.7,4.14-7.18c2.55-5.29-5.73-8.84-4.17-13.95Z"/>
  <path class="cls-7" d="M315.23,89.93c.54-.49,.85-1.12,1.28-1.67,1.2-1.52,3.5-2.46,5.77-2.34,3.39,.17,6.43,2.47,9.76,1.93,2.1-.34,4.24-1.79,6.12-.96,1.04,.46,1.45,1.46,1.79,2.36,.88,2.42,1.77,4.84,2.65,7.26-3.82-2.54-9.19-3.54-14.04-2.62-2.6,.5-5.26,1.51-7.81,.89-1.48-.36-2.92-1.26-4.41-.92-2.56,.58-2.07,3.82-4.12,5.16-1.57,1.02-4.1,.59-5.67,1.62-1.06,.7-1.36,1.86-1.95,2.85-1.44,2.41-5.06,3.88-8.38,3.38,5.11-3.48,5.95-7.52,8.27-12.17,2.12-4.25,7.56-1.89,10.76-4.78Z"/>
  <path class="cls-25" d="M233.86,83.91s20.32-.25,25.64,4.94c5.31,5.18,13.19,15.82,16.91,15.32"/>
  <path class="cls-25" d="M287.83,53.02c-1.11,5.78,1.17,11.57,2.34,17.34,2.33,11.49,.15,23.52-6.15,34.04"/>
  <path class="cls-25" d="M299.53,103.97c2.46-.59,2.72-3.25,4.34-4.84,1.61-1.58,4.43-1.93,6.59-3.02,3.07-1.55,4.72-4.55,7.97-5.85,5.93-2.37,13.25,2.15,19.56,.48"/>
  <path class="cls-22" d="M283.5,106.19c.38-2.58-1.93-4.86-3.7-7.05-2.44-3-4.08-6.39-4.8-9.91-.37-1.8-.5-3.63-1.03-5.4-.75-2.51-2.28-4.82-3.79-7.1-1.25-1.89-2.5-3.77-3.75-5.66"/>
  <path class="cls-22" d="M288.63,106.77c.98-2.03,2.36-3.94,4.06-5.65,2.28-2.29,5.17-4.26,6.67-6.91,1.38-2.45,1.5-5.35,3.51-7.5,1.66-1.78,4.42-2.83,5.76-4.76,1.09-1.56,1.06-3.44,.96-5.22-.03-.49-.06-.99,.16-1.45,.26-.54,.82-.95,1.37-1.34,3.19-2.26,6.38-4.53,9.57-6.79"/>
  <path class="cls-4" d="M31.11,88.12c-.43,.79-1.15,1.47-1.97,2.03-2.92,2.02-6.97,2.6-10.82,2.98-3.1,.3-6.42,.49-9.18-.65-2.77-1.15-4.52-3.53-4.9-5.99s.47-4.95,1.9-7.15c2.78-4.26,11.6-6.01,17.31-4.46,5.47,1.49,9.98,9.05,7.67,13.24Z"/>
  <path class="cls-20" d="M64.29,109.66c-.44-40.41,.44-60.79,.44-60.79"/>
  <path class="cls-17" d="M72.39,36.59c4.34,.65,8.73,3.02,9.26,6.48,.43,2.83-1.91,5.58-5.01,7.04s-6.82,1.82-10.43,1.89c-4.33,.08-8.82-.26-12.61-1.92s-6.72-4.88-6.41-8.29c.06-.63,.23-1.27,.7-1.77,.47-.51,1.18-.83,1.89-1.11,6.48-2.57,15.51-3.37,22.61-2.31Z"/>
  <path class="cls-4" d="M112.83,92.04c2.62,.32,8.06,2.22,9.94,3.69,.95,.74,1.65,1.66,2.27,2.59,2.25,3.37,3.58,7.12,3.89,10.92,.1,1.28,.07,2.64-.76,3.74-1.11,1.48-3.37,2.16-5.53,2.42-5.14,.61-10.5-.66-14.69-3.1-4.19-2.43-7.26-5.96-9.13-9.79-.87-1.78-1.5-3.74-.87-5.58,1.59-4.69,10.22-5.47,14.87-4.9Z"/>
  <path class="cls-20" d="M39.36,55.09s31.35,5.13,25.08,23.8"/>
  <path class="cls-17" d="M38.86,51.53c1.36,1.05,3.17,1.84,3.85,3.24,.86,1.78-.55,3.77-2.33,5.05-2.36,1.7-5.37,2.71-8.41,3.48-3.08,.78-6.33,1.35-9.54,1.05s-6.41-1.6-8.01-3.82c-.45-.63-.77-1.32-.84-2.04-.14-1.54,.88-3.02,2.21-4.16,4.74-4.08,17.68-6.95,23.07-2.79Z"/>
  <path class="cls-20" d="M34.65,95.84s13.02-7.6,24.39,.35"/>
  <path class="cls-4" d="M79.21,104.32c.45,3.5,.47,7.09-.66,10.49-1.13,3.41-3.48,6.64-7.1,8.71-5.28,3.01-12.86,3.06-18.45,.41s-9.06-7.71-9.3-12.86c-.2-4.37,1.83-8.79,5.55-12.03,4.33-3.78,7.6-8.04,18.57-6.3,7.75,1.23,10.68,6.04,11.39,11.58Z"/>
  <path class="cls-17" d="M37.05,97.53c1.34,3.2,.12,6.67-1.35,9.84-1.17,2.51-2.52,5.03-4.78,7.06-3.75,3.36-9.57,4.97-15.27,5.67-4.21,.51-9.01,.47-12.1-1.78C.71,116.25,.19,112.97,.04,109.96c-.06-1.23-.09-2.48,.32-3.67,.63-1.82,2.23-3.34,3.89-4.74,3.61-3.04,7.81-5.84,12.89-7.16,6.33-1.64,17.21-3.31,19.92,3.12Z"/>
  <path class="cls-20" d="M64.98,70.51s5.87-14.73,22.93-18.53"/>
  <path class="cls-4" d="M91.64,46.84c1.3-.3,2.68-.31,4.04-.32,2.06-.01,4.12-.02,6.18-.03,1.68,0,3.45,0,4.9,.67,1.49,.69,2.38,1.97,2.98,3.25,.33,.7,.59,1.47,.34,2.2-.26,.75-1.05,1.33-1.9,1.72-2.09,.95-4.63,1-7.04,1.03-4.02,.04-14.7,1.81-17.22-1.27-2.86-3.49,4.46-6.43,7.73-7.24Z"/>
  <path class="cls-20" d="M63.41,76.5s10.93-8.29,22.3-3.11"/>
  <path class="cls-17" d="M94.78,71.4c2.17,.03,4.41,.08,6.4,.77,3.51,1.22,5.49,4.15,6.89,6.97,1.86,3.75,3.16,7.82,2.37,11.8-1.36,6.91-9.65,12.55-18.51,12.57-7.48,.02-14.43-3.55-18.92-8.28-3.57-3.75-5.86-8.75-3.8-13.14,1.02-2.18,3-3.99,4.94-5.74,5.28-4.77,12.98-5.07,20.63-4.95Z"/>
  <path class="cls-20" d="M64.89,75.41s6.14-15.84,24.76-14.43"/>
  <path class="cls-17" d="M93.5,69.12c3.92,1.7,8.53,2.02,12.98,2.31,1.61,.11,3.28,.2,4.79-.24,1.45-.43,2.59-1.32,3.63-2.23,.45-.4,.9-.81,1.15-1.31,.58-1.16-.06-2.47-.95-3.5-2-2.32-5.2-3.85-8.57-4.72-3.37-.88-6.93-1.16-10.46-1.44-1.83-.14-3.71-.29-5.47,.12-7.67,1.78-1.29,9.21,2.9,11.02Z"/>
  <path class="cls-17" d="M60.22,86.92c-1.33,.97-2.86,1.79-4.57,2.27-2.22,.62-4.63,.64-6.99,.65-2.78,.01-5.58,.03-8.3-.45-6.23-1.09-11.58-4.88-13.62-9.65-1.12-2.62-1.21-5.67,.68-7.99,.88-1.07,2.13-1.93,3.43-2.68,7.4-4.29,22.35-7.46,30.62-2.64,7.7,4.49,4.82,16.06-1.27,20.49Z"/>
  <path class="cls-17" d="M36.74,54.05c-.08,0-.15,0-.23,0-2.73,.02-4.73,.35-6.06,.69s-2.02,.69-2.02,.69l8.31-1.38Z"/>
  <path class="cls-19" d="M38.49,55.09c0,1.14-2.74,2.07-6.12,2.07s-6.12,.8-6.12-.35,2.74-3.8,6.12-3.8,6.12,.93,6.12,2.07Z"/>
  <ellipse class="cls-19" cx="48.98" cy="74.95" rx="12.68" ry="7.43"/>
  <ellipse class="cls-5" cx="50.91" cy="73.96" rx="5.52" ry="3.23"/>
  <path class="cls-19" d="M94.36,73.85c1.5,.02,3.05,.05,4.42,.48,2.42,.76,3.79,2.6,4.76,4.37,1.28,2.36,2.18,4.9,1.64,7.4-.94,4.34-6.67,7.87-12.79,7.89-5.17,.01-9.97-2.23-13.07-5.19-2.46-2.35-4.05-5.49-2.62-8.25,.71-1.37,2.07-2.5,3.41-3.6,3.64-2.99,8.97-3.18,14.25-3.1Z"/>
  <ellipse class="cls-5" cx="89.42" cy="78.68" rx="6.63" ry="3.49"/>
  <path class="cls-17" d="M73.33,102.31c.27,2.14,.29,4.32-.4,6.4-.69,2.08-2.12,4.05-4.33,5.31-3.22,1.84-7.84,1.86-11.25,.25s-5.52-4.7-5.67-7.84c-.12-2.67,1.12-5.36,3.38-7.33,2.64-2.3,4.63-4.9,11.32-3.84,4.72,.75,6.51,3.68,6.94,7.06Z"/>
  <path class="cls-19" d="M62.42,37.77c2.41-.24,5.06,.15,5.78,1.38,.59,1.01-.32,2.3-1.8,3.2s-3.43,1.45-5.35,1.88c-2.31,.52-4.76,.89-7,.7s-4.22-1.07-4.48-2.38c-.05-.24-.04-.5,.15-.74,.19-.24,.53-.44,.87-.63,3.15-1.69,7.89-3.01,11.83-3.41Z"/>
  <path class="cls-5" d="M34.31,97.14c.89,1.63,.08,3.4-.89,5.02-.77,1.28-1.66,2.57-3.16,3.6-2.48,1.72-6.31,2.54-10.08,2.89-2.78,.26-5.95,.24-7.99-.91-1.88-1.05-2.22-2.73-2.32-4.26-.04-.63-.06-1.26,.21-1.87,.42-.93,1.47-1.71,2.57-2.42,2.38-1.55,5.15-2.98,8.51-3.65,4.18-.84,11.36-1.69,13.15,1.59Z"/>
</svg>