<?xml version="1.0" encoding="UTF-8"?>
<svg id="Layer_1" data-name="Layer 1" xmlns="http://www.w3.org/2000/svg" viewBox="0 0 264.1 120.76">
  <defs>
    <style>
      .cls-1 {
        fill: #00530f;
      }

      .cls-2 {
        fill: #005014;
      }

      .cls-3 {
        fill: #00751e;
      }

      .cls-4 {
        fill: #6b9f5a;
      }

      .cls-5 {
        fill: #9cba84;
      }

      .cls-6 {
        fill: #9d7b63;
      }

      .cls-7 {
        fill: #72af63;
      }

      .cls-8 {
        fill: #bab792;
      }

      .cls-9 {
        fill: #bbb890;
      }

      .cls-10 {
        fill: #c6efab;
      }

      .cls-11 {
        fill: #096924;
      }

      .cls-12 {
        fill: #372827;
      }

      .cls-13 {
        fill: #43a200;
      }

      .cls-14 {
        fill: #529317;
      }

      .cls-15 {
        fill: #398e00;
      }

      .cls-16 {
        fill: #575d40;
      }

      .cls-17 {
        fill: #4f8136;
      }

      .cls-18 {
        fill: #503627;
      }

      .cls-19 {
        fill: #7aa958;
      }

      .cls-20 {
        stroke: #4e5439;
        stroke-width: 4px;
      }

      .cls-20, .cls-21, .cls-22, .cls-23, .cls-24, .cls-25 {
        fill: none;
        stroke-miterlimit: 10;
      }

      .cls-21 {
        stroke: #00530f;
      }

      .cls-22 {
        stroke: #72af63;
      }

      .cls-23 {
        stroke: #9dd100;
      }

      .cls-24 {
        stroke: #398e00;
      }

      .cls-25 {
        stroke: #c6efab;
      }
    </style>
  </defs>
  <polygon class="cls-9" points="162.56 92.06 162.56 105.15 160.25 105.15 160.25 106.24 160.25 108.06 156.09 108.06 156.09 109.88 121.44 109.88 121.44 108.42 118.67 108.42 118.67 105.88 114.51 105.88 114.51 91.76 162.56 92.06"/>
  <rect class="cls-8" x="114.51" y="84" width="48.05" height="8.06"/>
  <polygon class="cls-6" points="114.51 84 131.33 84 130.87 103.41 134.38 109.96 121.44 109.88 121.44 108.42 118.67 108.42 118.67 105.88 114.51 105.88 114.51 84"/>
  <polygon class="cls-16" points="114.51 90.47 162.77 90.26 162.77 88.79 114.51 88.74 114.51 90.47"/>
  <polygon class="cls-12" points="136.93 84.1 135.39 47.77 141.53 40.52 141.01 84.1 136.93 84.1"/>
  <path class="cls-14" d="M136.75,71.5c-4.11,3.1-10.85,4.28-16.51,2.87-2.16-.54-4.14-1.41-6.28-1.99-2.93-.79-6.15-1.02-9.24-.66-2.54,.3-5.17,.03-7.74,.04-.71,0-1.43,0-2.1-.16-.91-.22-1.64-.72-2.19-1.29-1.38-1.42-1.71-3.21-1.96-4.93-.31-2.16-.5-4.48,1.06-6.34,2.2-2.62,6.92-3.35,10.78-4.68,3.19-1.09,6.16-2.75,9.68-2.95,2.82-.16,5.63,.69,7.75,2.01,2.13,1.32,3.63,3.09,4.74,4.94,.3,.51,.6,1.04,1.16,1.41,1.15,.77,2.94,.62,4.49,.83,2.74,.36,4.93,1.94,6.07,3.74s1.39,3.83,1.48,5.81c.03,.71-1.07,1.06-1.2,1.35Z"/>
  <path class="cls-2" d="M139.77,6.3c1.68-2.28,4.42-4.36,7.99-4.83,2.26-.3,4.58,.09,6.87,.06,4.2-.05,8.79-1.41,12.35,.17,2.65,1.17,3.62,3.55,4.18,5.72,.3,1.17,.55,2.38,.21,3.55-.42,1.43-1.68,2.67-3.03,3.77-6.2,5.05-14.76,8.21-23.32,10.8-1.68,.51-10.43,3.72-9.87,1.34,.09-.39,.94-.81,1.16-1.21,.39-.71,.27-1.46,.27-2.21-.01-1.82-.09-3.63-.06-5.45,.07-4,.59-8.1,3.25-11.7Z"/>
  <path class="cls-3" d="M122.8,31.78c-2.67-1.65-4.4-3.92-6.33-6.03-2.15-2.35-4.62-4.56-7.35-6.59-1.86-1.38-3.97-2.85-4.19-4.75-.17-1.44,.81-2.81,1.8-4.08,1.2-1.52,2.47-3.04,3.25-4.69,.71-1.51,1.05-3.2,2.59-4.36,1.81-1.36,4.85-1.57,7.34-.97s4.55,1.85,6.47,3.13,3.8,2.63,6.14,3.48c1.38,.51,2.9,.83,4.17,1.46,1.98,.98,3.14,2.58,3.99,4.18,3,5.66,2.87,12.12-.37,17.72-1.24,2.14-3.01,4.57-6.61,4.49-3.83-.08-8.02-1.22-10.9-3Z"/>
  <path class="cls-13" d="M116.09,51.19c-2.95-.8-5.9-1.6-8.84-2.4-2.28-.62-4.65-1.28-6.23-2.6-1.55-1.3-2.11-3.05-3.49-4.44-3.13-3.13-9.82-3.83-12.46-7.18-1.49-1.89-1.29-4.3,.02-6.25,1.31-1.96,3.62-3.5,6.17-4.69,1.68-.79,3.5-1.45,5.47-1.73,4.99-.73,10.29,1.01,15.2,.04,1.2-.24,2.36-.64,3.61-.67,2.74-.06,4.91,1.65,6.17,3.38s2.1,3.7,4.11,5.02c2.12,1.39,5.12,1.79,7.85,2.45,2.76,.67,5.55,1.76,6.82,3.62,.64,.93,.84,1.97,1,3,.64,4.27,.27,9.07-3.97,12.13-1.87,1.35-3.48,2.25-4.16,4.18-.54,1.54-.44,2.9-3.09,2.02-2.19-.72-3.84-2.26-5.88-3.18-2.59-1.16-5.48-1.93-8.33-2.7Z"/>
  <path class="cls-15" d="M142.64,22.98c7.41-2.1,16-2.43,22.3-5.91,1.19-.66,2.31-1.43,3.75-1.74,1.78-.39,3.78,.03,5.23,.86s2.41,2.02,3.08,3.25c.41,.77,.74,1.58,1.44,2.24,1.26,1.16,3.43,1.57,5.23,2.29,3.93,1.58,6.14,5.01,5.41,8.18s-4.27,5.88-8.62,6.75c-2.48,.5-5.19,.45-7.53,1.21-3.62,1.18-5.58,3.99-8.73,5.71-2.65,1.44-6.01,2.05-9.3,2.45-4.05,.49-8.36,.72-12.14-.42-7.56-2.28-9.32-8.12-8.98-13.36,.33-5.06,1.64-9.44,8.86-11.49Z"/>
  <path class="cls-1" d="M140.39,54.17c-.64-2.34-1.69-4.69-1.36-7.07,.02-.16,.05-.32,.18-.46,.19-.2,.56-.28,.9-.32,2.79-.38,5.64,.19,8.41,.64,2.77,.45,5.77,.78,8.38-.03,1.41-.44,2.58-1.18,3.74-1.9,2.81-1.73,5.77-3.39,9.18-4.44,.46-.14,.95-.27,1.44-.2,.77,.11,1.24,.65,1.53,1.17,.96,1.71,.94,3.69-.05,5.4-.33,.56-.76,1.1-.92,1.69-.49,1.84,1.7,3.68,1.09,5.5-.38,1.14-1.75,1.95-3.04,2.67-4.36,2.43-8.92,4.89-14.3,5.86-1.97,.36-4,.5-5.98,.83-2.11,.35-7.9,3.03-8.31,.41-.51-3.26,0-6.5-.9-9.77Z"/>
  <path class="cls-11" d="M146.94,60.29c3.61-2.37,8.19-3.84,12.67-5.28,2.5-.8,5-1.6,7.5-2.4,3.46-1.11,7.12-2.24,10.9-1.97,1.66,.12,3.27,.51,4.82,.94,1.98,.55,3.98,1.21,5.41,2.33,2.09,1.64,2.64,4.11,1.73,6.22s-3.15,3.87-5.83,5c-1.87,.79-4.01,1.33-5.5,2.45-1.86,1.4-2.35,3.43-3.63,5.13-1.71,2.28-4.89,3.93-8.41,4.56s-7.33,.3-10.64-.77c-2.51-.81-4.79-2.04-7.46-2.53-2.49-.45-4.82-.09-7.3,.08-1.87-4.7,.79-10.52,5.74-13.77Z"/>
  <path class="cls-23" d="M142.64,22.98s5.28-16.29,20.61-16.72"/>
  <path class="cls-23" d="M140.6,71.66s25.21-17.53,45.15-15.81"/>
  <path class="cls-21" d="M94.24,29.11c20.96-3.45,44.79,17.99,44.79,17.99,0,0,5.3-12.81,31.88-24.03"/>
  <path class="cls-21" d="M137.95,70.15s-28.88-14.3-39.62-9.99"/>
  <path class="cls-24" d="M134.13,32.05s-2.57-18.9-17.4-24.07"/>
  <polygon class="cls-9" points="237.63 88.37 237.63 105.69 235.76 105.69 235.76 107.13 235.76 109.54 232.4 109.54 232.4 111.95 204.39 111.95 204.39 110.02 202.14 110.02 202.14 106.65 198.78 106.65 198.78 87.98 237.63 88.37"/>
  <rect class="cls-8" x="196.23" y="86.07" width="43.45" height="8.06"/>
  <polygon class="cls-6" points="196.23 86.07 196.22 94.45 198.27 94.45 198.05 86.02 196.23 86.07"/>
  <polygon class="cls-6" points="197.25 86.07 209.8 86.07 209.45 105.48 212.07 112.03 202.42 111.95 202.42 110.49 200.35 110.49 200.35 107.95 197.25 107.95 197.25 86.07"/>
  <polygon class="cls-16" points="196.23 94.69 239.67 94.49 239.67 93.02 196.23 92.97 196.23 94.69"/>
  <polygon class="cls-9" points="78.72 86.56 78.72 103.88 75.98 103.88 75.98 105.33 75.98 107.73 71.05 107.73 71.05 110.14 29.97 110.14 29.97 108.21 26.68 108.21 26.68 104.85 21.75 104.85 21.75 86.17 78.72 86.56"/>
  <rect class="cls-8" x="18" y="84.26" width="63.71" height="8.06"/>
  <polygon class="cls-6" points="18 84.26 18 92.64 21 92.64 20.67 84.21 18 84.26"/>
  <polygon class="cls-6" points="19.5 84.26 39.28 84.26 38.74 103.67 42.87 110.22 27.65 110.14 27.65 108.68 24.39 108.68 24.39 106.14 19.5 106.14 19.5 84.26"/>
  <polygon class="cls-16" points="18 92.89 81.72 92.68 81.72 91.21 18 91.16 18 92.89"/>
  <rect class="cls-18" x="9.9" y="109.76" width="236.17" height="11" rx="4.91" ry="4.91"/>
  <path class="cls-7" d="M206.91,85.87c-1.96-.4-3.83-1.52-4.38-3.15-.3-.9-.19-1.9-.65-2.75-1.17-2.15-5.07-2.11-6.77-4-.84-.93-1-2.21-1.88-3.11-1.03-1.06-2.82-1.37-4.44-1.27s-3.2,.51-4.81,.62c-4.41,.29-8.53-1.73-12.26-3.74,6.79,.11,13.53-3.93,19.98-2.12,1.58,.44,3.02,1.22,4.64,1.57,1.35,.29,2.79,.26,4.09,.68,1.55,.5,2.73,1.57,3.85,2.61,1.55,1.43,3.09,2.86,4.64,4.29,1.69,1.57,3.43,3.2,4.25,5.2,.44,1.08,1.17,4.17-.06,5.1-1.08,.81-4.9,.34-6.18,.08Z"/>
  <path class="cls-10" d="M208.78,75.81c-1.14-1.4-2.72-2.63-3.23-4.28-.6-1.95,.41-4.12-.51-5.97-.41-.82-1.15-1.48-1.7-2.24-1.19-1.66-1.36-3.73-.94-5.64s1.38-3.7,2.33-5.47c3.02,1.64,5.19,4.35,5.86,7.33,.31,1.37,.33,2.83,1.09,4.07,.46,.74,1.16,1.36,1.75,2.03,1.33,1.53,2.07,3.42,2.08,5.32,0,1.35-.31,2.81,.48,3.98,.47,.68,1.25,1.16,1.9,1.73,2.73,2.42,2.69,6.16,2.48,9.5-.24,3.74-4.93,.14-6.25-1.3-2.46-2.69-3.08-6.26-5.35-9.06Z"/>
  <path class="cls-10" d="M222.99,79.12c1.65-1.31,4-2.07,5.05-3.77,1.1-1.78,.51-4.26,2.29-5.6,.72-.54,1.72-.78,2.39-1.36,1.18-1.02,.95-2.66,1.33-4.05,.4-1.49,1.62-2.8,3.23-3.49,.54-.23,1.14-.41,1.57-.77,1.02-.86,.66-2.29,1.01-3.47,.41-1.39,1.82-2.39,3.15-3.29,1.23-.83,2.5-1.68,4-2.08,1.3-.35,2.68-.34,4.04-.3,2.75,.08,5.49,.28,8.22,.59-4.08,3.25-8.37,6.61-13.75,7.93-.84,.21-1.74,.38-2.34,.92-1.48,1.33,.03,3.49-.18,5.31-.3,2.62-4.04,3.96-5.21,6.41-.59,1.24-.45,2.64-.62,3.97-.46,3.7-3.28,6.85-5.98,9.79-.85,.93-1.74,1.88-2.96,2.43-2.02,.92-9.33,1.58-9.24-1.2,.04-1.11,1.06-2.63,1.4-3.73,.5-1.61,1.15-3.08,2.62-4.25Z"/>
  <path class="cls-7" d="M217.76,59.03c.32-1.13,1.24-2.06,1.74-3.14,1.65-3.57-1.61-7.65-.43-11.35,.43-1.35,1.41-2.51,2.15-3.76s1.22-2.73,.6-4.02c1.32,2.63,3.36,4.96,4.9,7.51s2.55,5.52,1.62,8.27c-.24,.7-.6,1.38-.74,2.1-.23,1.24,.22,2.48,.73,3.66,1.08,2.49,2.46,5.19,1.4,7.68-.64,1.5-2.09,2.69-2.59,4.22-.76,2.31,.78,4.96-.51,7.1-.76,1.27-2.33,2.01-3.72,2.81-1.36,.79-2.61,1.8-2.84,3.24-1.01-2.02-2.4-4.68-2.29-6.93s2.27-3.87,3.19-5.91c1.97-4.36-4.42-7.28-3.21-11.49Z"/>
  <path class="cls-7" d="M243.01,74.07c.42-.4,.65-.92,.99-1.37,.92-1.25,2.7-2.02,4.45-1.93,2.61,.14,4.96,2.04,7.52,1.59,1.62-.28,3.27-1.48,4.72-.79,.8,.38,1.12,1.2,1.38,1.95,.68,1.99,1.36,3.98,2.04,5.98-2.94-2.09-7.09-2.92-10.83-2.16-2,.41-4.05,1.24-6.02,.74-1.14-.29-2.25-1.04-3.4-.76-1.98,.48-1.59,3.15-3.18,4.25-1.21,.84-3.16,.49-4.37,1.33-.82,.58-1.05,1.53-1.5,2.35-1.11,1.99-3.9,3.19-6.46,2.79,3.94-2.87,4.59-6.19,6.38-10.02,1.64-3.5,5.83-1.56,8.29-3.93Z"/>
  <path class="cls-25" d="M180.28,69.11s15.67-.2,19.76,4.07c4.1,4.27,10.16,13.03,13.04,12.62"/>
  <path class="cls-25" d="M221.89,43.67c-.85,4.76,.9,9.53,1.8,14.28,1.79,9.46,.12,19.37-4.74,28.03"/>
  <path class="cls-25" d="M230.91,85.62c1.9-.48,2.1-2.68,3.34-3.98,1.24-1.3,3.42-1.59,5.08-2.49,2.37-1.28,3.64-3.74,6.15-4.81,4.57-1.95,10.22,1.77,15.08,.39"/>
  <path class="cls-22" d="M218.56,87.45c.29-2.13-1.48-4-2.86-5.8-1.88-2.47-3.15-5.27-3.7-8.16-.28-1.48-.38-2.99-.79-4.45-.58-2.06-1.75-3.97-2.92-5.84-.96-1.55-1.93-3.11-2.89-4.66"/>
  <path class="cls-22" d="M222.51,87.93c.76-1.67,1.82-3.24,3.13-4.65,1.75-1.88,3.99-3.5,5.14-5.69,1.07-2.01,1.15-4.4,2.7-6.18,1.28-1.46,3.41-2.33,4.44-3.92,.84-1.29,.82-2.83,.74-4.3-.02-.4-.04-.82,.12-1.19,.2-.45,.63-.78,1.05-1.1,2.46-1.86,4.92-3.73,7.38-5.59"/>
  <path class="cls-4" d="M23.98,72.57c-.33,.65-.89,1.21-1.52,1.68-2.25,1.66-5.38,2.14-8.34,2.45-2.39,.25-4.95,.41-7.08-.54-2.14-.95-3.48-2.91-3.78-4.93s.36-4.08,1.46-5.89c2.14-3.51,8.94-4.95,13.34-3.68s7.69,7.45,5.92,10.91Z"/>
  <path class="cls-20" d="M49.56,90.31c-.34-33.28,.34-50.06,.34-50.06"/>
  <path class="cls-17" d="M55.81,30.14c3.34,.54,6.73,2.49,7.14,5.34,.33,2.33-1.47,4.6-3.86,5.79s-5.26,1.5-8.04,1.56c-3.34,.07-6.8-.22-9.72-1.58s-5.18-4.02-4.94-6.83c.04-.51,.18-1.04,.54-1.46,.36-.42,.91-.68,1.46-.91,5-2.12,11.96-2.78,17.43-1.9Z"/>
  <path class="cls-4" d="M86.98,75.8c2.02,.26,6.22,1.83,7.66,3.04,.73,.61,1.27,1.37,1.75,2.14,1.73,2.78,2.76,5.86,3,9,.08,1.05,.05,2.17-.58,3.08-.85,1.22-2.6,1.78-4.26,1.99-3.97,.5-8.1-.55-11.33-2.55-3.23-2-5.59-4.9-7.04-8.06-.67-1.46-1.16-3.08-.67-4.59,1.23-3.86,7.88-4.5,11.47-4.04Z"/>
  <path class="cls-20" d="M30.34,45.37s24.17,4.22,19.33,19.6"/>
  <path class="cls-17" d="M29.96,42.44c1.05,.86,2.45,1.52,2.97,2.67,.66,1.47-.42,3.1-1.79,4.16-1.82,1.4-4.14,2.23-6.49,2.87-2.37,.64-4.88,1.11-7.35,.86s-4.94-1.32-6.17-3.15c-.35-.52-.59-1.09-.65-1.68-.11-1.27,.68-2.49,1.7-3.43,3.65-3.36,13.63-5.72,17.78-2.3Z"/>
  <path class="cls-20" d="M26.71,78.93s10.04-6.26,18.8,.28"/>
  <path class="cls-4" d="M61.07,85.92c.34,2.89,.36,5.84-.51,8.64s-2.68,5.47-5.47,7.17c-4.07,2.48-9.92,2.52-14.22,.34-4.31-2.18-6.99-6.35-7.17-10.59-.16-3.6,1.41-7.24,4.28-9.91,3.34-3.11,5.86-6.62,14.32-5.19,5.98,1.01,8.23,4.97,8.78,9.54Z"/>
  <path class="cls-17" d="M28.56,80.32c1.04,2.63,.09,5.5-1.04,8.1-.9,2.07-1.94,4.15-3.69,5.82-2.89,2.77-7.37,4.09-11.77,4.67-3.24,.42-6.94,.38-9.33-1.46-2.19-1.7-2.59-4.41-2.71-6.88-.05-1.01-.07-2.04,.25-3.02,.49-1.5,1.72-2.75,3-3.9,2.78-2.51,6.02-4.81,9.94-5.89,4.88-1.35,13.27-2.72,15.35,2.57Z"/>
  <path class="cls-20" d="M50.09,58.07s4.53-12.13,17.67-15.26"/>
  <path class="cls-4" d="M70.65,38.58c1-.25,2.07-.26,3.11-.26,1.59,0,3.18-.02,4.77-.03,1.29,0,2.66,0,3.77,.55,1.15,.57,1.84,1.62,2.3,2.67,.25,.58,.46,1.21,.26,1.81-.2,.62-.81,1.09-1.47,1.41-1.61,.79-3.57,.83-5.43,.85-3.1,.04-11.33,1.49-13.27-1.04-2.2-2.87,3.44-5.3,5.96-5.96Z"/>
  <path class="cls-20" d="M48.89,63s8.43-6.83,17.19-2.56"/>
  <path class="cls-17" d="M73.07,58.8c1.67,.03,3.4,.06,4.93,.63,2.7,1,4.23,3.42,5.31,5.74,1.43,3.09,2.43,6.44,1.83,9.72-1.05,5.69-7.44,10.33-14.27,10.36-5.76,.02-11.12-2.93-14.58-6.82-2.75-3.09-4.52-7.2-2.93-10.82,.79-1.8,2.31-3.28,3.81-4.73,4.07-3.93,10.01-4.17,15.9-4.07Z"/>
  <path class="cls-20" d="M50.02,62.1s4.73-13.05,19.09-11.88"/>
  <path class="cls-17" d="M72.08,56.93c3.02,1.4,6.57,1.67,10.01,1.91,1.24,.09,2.53,.17,3.69-.2,1.12-.36,2-1.09,2.8-1.84,.35-.33,.7-.67,.89-1.08,.44-.95-.05-2.04-.73-2.88-1.54-1.91-4.01-3.17-6.61-3.89-2.6-.72-5.34-.96-8.07-1.19-1.41-.12-2.86-.24-4.22,.1-5.91,1.46-.99,7.59,2.24,9.08Z"/>
  <path class="cls-17" d="M46.43,71.58c-1.03,.8-2.21,1.47-3.52,1.87-1.71,.51-3.57,.53-5.39,.54-2.14,.01-4.31,.02-6.4-.37-4.8-.9-8.93-4.02-10.5-7.95-.86-2.15-.94-4.67,.53-6.58,.68-.88,1.64-1.59,2.65-2.21,5.71-3.53,17.23-6.15,23.61-2.18,5.94,3.69,3.71,13.23-.98,16.88Z"/>
  <path class="cls-17" d="M28.32,44.51c-.06,0-.12,0-.18,0-2.1,.01-3.64,.29-4.67,.57s-1.56,.57-1.56,.57l6.41-1.14Z"/>
  <path class="cls-19" d="M29.67,45.37c0,.94-2.11,1.71-4.72,1.71s-4.72,.66-4.72-.28,2.11-3.13,4.72-3.13,4.72,.76,4.72,1.71Z"/>
  <ellipse class="cls-19" cx="37.76" cy="61.72" rx="9.78" ry="6.12"/>
  <ellipse class="cls-5" cx="39.24" cy="60.91" rx="4.25" ry="2.66"/>
  <path class="cls-19" d="M72.74,60.82c1.16,.02,2.35,.04,3.41,.4,1.87,.63,2.92,2.14,3.67,3.6,.99,1.94,1.68,4.04,1.26,6.1-.72,3.57-5.14,6.48-9.86,6.5-3.98,.01-7.68-1.84-10.08-4.28-1.9-1.94-3.12-4.52-2.02-6.79,.54-1.13,1.6-2.06,2.63-2.97,2.81-2.46,6.91-2.62,10.99-2.56Z"/>
  <ellipse class="cls-5" cx="68.94" cy="64.8" rx="5.11" ry="2.87"/>
  <path class="cls-17" d="M56.53,84.26c.21,1.76,.22,3.56-.31,5.27s-1.64,3.33-3.33,4.37c-2.48,1.51-6.04,1.53-8.67,.21s-4.26-3.87-4.37-6.45c-.1-2.2,.86-4.41,2.61-6.04,2.03-1.9,3.57-4.04,8.73-3.16,3.64,.62,5.02,3.03,5.35,5.81Z"/>
  <path class="cls-19" d="M48.12,31.1c1.86-.2,3.9,.12,4.46,1.14,.45,.83-.25,1.9-1.39,2.63s-2.64,1.19-4.13,1.55c-1.78,.43-3.67,.74-5.4,.58s-3.25-.88-3.45-1.96c-.04-.2-.03-.41,.12-.61,.14-.2,.41-.36,.67-.52,2.43-1.39,6.08-2.48,9.12-2.81Z"/>
  <path class="cls-5" d="M26.45,80c.68,1.34,.06,2.8-.69,4.13-.59,1.06-1.28,2.12-2.43,2.97-1.91,1.41-4.87,2.09-7.77,2.38-2.14,.21-4.58,.2-6.16-.75-1.45-.87-1.71-2.25-1.79-3.51-.03-.52-.05-1.04,.16-1.54,.32-.77,1.14-1.4,1.98-1.99,1.84-1.28,3.97-2.45,6.56-3.01,3.22-.69,8.76-1.39,10.13,1.31Z"/>
</svg>