<?xml version="1.0" encoding="UTF-8"?>
<svg id="Layer_1" data-name="Layer 1" xmlns="http://www.w3.org/2000/svg" xmlns:xlink="http://www.w3.org/1999/xlink" viewBox="0 0 223.05 180.55">
  <defs>
    <style>
      .cls-1, .cls-2 {
        fill: none;
      }

      .cls-3 {
        clip-path: url(#clippath);
      }

      .cls-4 {
        fill: #6b6299;
      }

      .cls-5 {
        fill: #655a49;
      }

      .cls-6 {
        fill: #8e7fac;
      }

      .cls-7 {
        fill: #cae1e5;
      }

      .cls-8 {
        fill: #1e1c1a;
      }

      .cls-9 {
        fill: #413a58;
      }

      .cls-10, .cls-11 {
        fill: #a35e31;
      }

      .cls-12 {
        fill: #543524;
      }

      .cls-13 {
        fill: #2c2421;
      }

      .cls-14 {
        fill: #35312d;
      }

      .cls-15 {
        fill: #574580;
      }

      .cls-16 {
        fill: #612f0b;
      }

      .cls-17 {
        fill: #533359;
      }

      .cls-2 {
        stroke: #1e1c1a;
        stroke-miterlimit: 10;
      }

      .cls-2, .cls-11, .cls-18 {
        stroke-width: 5px;
      }

      .cls-11, .cls-18 {
        stroke: #612f0b;
        stroke-linecap: round;
        stroke-linejoin: round;
      }

      .cls-18 {
        fill: #704a2d;
      }
    </style>
    <clipPath id="clippath">
      <rect class="cls-1" x="49.88" y="64.96" width="100.31" height="60.92"/>
    </clipPath>
  </defs>
  <rect class="cls-12" y="126.33" width="182.86" height="54.22" rx="6.73" ry="6.73"/>
  <rect class="cls-13" x="5.77" y="131.87" width="171.38" height="43.14" rx="6.73" ry="6.73"/>
  <rect class="cls-12" x="91.66" y="130.29" width="6.33" height="45.52"/>
  <circle class="cls-7" cx="31.77" cy="164.45" r="10.56"/>
  <rect class="cls-7" x="28.74" y="149.11" width="6.18" height="6.96"/>
  <rect class="cls-5" x="28.1" y="147.31" width="7.47" height="2.58" rx="1.29" ry="1.29"/>
  <path class="cls-6" d="M23.78,160.86h15.97s4.4,12.62-7.99,12.62-7.99-12.62-7.99-12.62Z"/>
  <path class="cls-15" d="M23.78,160.86s4.9,4.42,10.05,3.11,5.93-3.11,5.93-3.11h-15.97Z"/>
  <path class="cls-7" d="M65.01,152.6c.84-1.45,2.93-1.45,3.76,0l5.48,9.49,5.48,9.49c.84,1.45-.21,3.26-1.88,3.26h-21.92c-1.67,0-2.72-1.81-1.88-3.26l5.48-9.49,5.48-9.49Z"/>
  <rect class="cls-7" x="64.96" y="146.69" width="3.85" height="11.31"/>
  <rect class="cls-5" x="64.42" y="145.33" width="4.85" height="2.39" rx="1.19" ry="1.19"/>
  <path class="cls-9" d="M65.59,157.44c.58-1.01,2.03-1.01,2.62,0l3.81,6.6,3.81,6.6c.58,1.01-.15,2.27-1.31,2.27h-15.23c-1.16,0-1.89-1.26-1.31-2.27l3.81-6.6,3.81-6.6Z"/>
  <path class="cls-4" d="M66.24,162.63c.24-.45,.85-.45,1.09,0l1.59,2.92,1.59,2.92c.24,.45-.06,1-.55,1h-6.37c-.49,0-.79-.56-.55-1l1.59-2.92,1.59-2.92Z"/>
  <ellipse id="Ellipse_2" data-name="Ellipse 2" class="cls-7" cx="117.37" cy="157.66" rx="8.56" ry="8.34"/>
  <ellipse id="Ellipse_3" data-name="Ellipse 3" class="cls-7" cx="128.21" cy="157.66" rx="8.56" ry="8.34"/>
  <path id="Polygon_1" data-name="Polygon 1" class="cls-7" d="M122.97,174.9l-11.18-11.12h22.36l-11.18,11.12Z"/>
  <ellipse id="Ellipse_2-2" data-name="Ellipse 2" class="cls-17" cx="119.17" cy="158.18" rx="5.66" ry="5.51"/>
  <ellipse id="Ellipse_3-2" data-name="Ellipse 3" class="cls-17" cx="126.33" cy="158.18" rx="5.66" ry="5.51"/>
  <path id="Polygon_1-2" data-name="Polygon 1" class="cls-17" d="M122.66,169.35l-7.67-7.39h15.34l-7.67,7.39Z"/>
  <rect class="cls-7" x="120.73" y="147.58" width="4.47" height="4.36"/>
  <rect class="cls-5" x="119.86" y="144.93" width="6.24" height="3.42" rx="1.49" ry="1.49"/>
  <ellipse id="Ellipse_2-3" data-name="Ellipse 2" class="cls-6" cx="120.37" cy="158.78" rx="3.57" ry="3.48"/>
  <ellipse id="Ellipse_3-3" data-name="Ellipse 3" class="cls-6" cx="124.89" cy="158.78" rx="3.57" ry="3.48"/>
  <path id="Polygon_1-3" data-name="Polygon 1" class="cls-6" d="M122.57,165.83l-4.84-4.67h9.69l-4.84,4.67Z"/>
  <circle class="cls-7" cx="154.64" cy="164.38" r="10.56"/>
  <rect class="cls-7" x="159.9" y="152.47" width="6.18" height="6.96" transform="translate(155.77 -69.51) rotate(44.43)"/>
  <rect class="cls-5" x="162.05" y="151.81" width="7.47" height="2.58" rx="1.29" ry="1.29" transform="translate(154.57 -72.29) rotate(44.43)"/>
  <circle class="cls-9" cx="154.79" cy="164.52" r="8.11"/>
  <ellipse class="cls-4" cx="157.75" cy="162.35" rx="2.37" ry="1.19"/>
  <ellipse class="cls-4" cx="155.35" cy="159.17" rx="1.22" ry=".8"/>
  <g class="cls-3">
    <g id="Group_1" data-name="Group 1">
      <path id="Path_5" data-name="Path 5" class="cls-14" d="M217.55,43.89c2.54,10.15,.98,12.21-7.85,15.89-6.03,2.51-17.02,2.51-23.78,2.21-1.18,.09-2.37,.13-3.58,.13-5.6,.02-11.16-.96-16.38-2.88-3.64-.39-7.3-.6-10.97-.62-13.61-.06-7.66-14-7.66-14l.2-.04c-2.25-3.8-3.43-8.09-3.44-12.45,0-16.56,17.13-29.99,38.26-29.99s38.26,13.43,38.26,29.99c0,4.09-1.05,8.12-3.05,11.75"/>
      <path id="Path_6" data-name="Path 6" class="cls-2" d="M217.5,44.23c2.54,10.15,.98,12.21-7.85,15.89-6.03,2.51-17.02,2.51-23.78,2.21-1.18,.09-2.37,.13-3.58,.13-5.6,.02-11.16-.96-16.38-2.88-3.64-.39-7.3-.6-10.97-.62-13.61-.06-7.66-14-7.66-14l.2-.04c-2.25-3.8-3.43-8.09-3.44-12.44,0-16.56,17.13-29.99,38.26-29.99s38.26,13.43,38.26,29.99c0,4.09-1.05,8.12-3.05,11.75Z"/>
      <path id="Path_7" data-name="Path 7" class="cls-14" d="M168.92,33.65c0,11.56-10.72,20.93-23.95,20.93s-23.95-9.37-23.95-20.93c0-2.99,.72-5.94,2.12-8.62-.26-.05-.4-.08-.4-.08,0,0,5.56-26.82,14-11.03,0,.02,.02,.04,.03,.05,5.78-1.83,12.06-1.67,17.73,.46,1.4-3.04,8.05-15.33,13.15,12.24,.03,.15,.06,.3,.08,.44,.79,2.09,1.19,4.3,1.19,6.53"/>
      <path id="Path_8" data-name="Path 8" class="cls-2" d="M169.12,33.46c0,11.56-10.72,20.93-23.95,20.93s-23.95-9.37-23.95-20.93c0-2.99,.72-5.94,2.12-8.62-.26-.05-.4-.08-.4-.08,0,0,5.56-26.82,14-11.03,0,.02,.02,.04,.03,.05,5.78-1.83,12.06-1.67,17.73,.46,1.4-3.04,8.05-15.33,13.15,12.24,.03,.15,.06,.3,.08,.44,.79,2.09,1.19,4.3,1.19,6.53Z"/>
      <path id="Path_9" data-name="Path 9" class="cls-2" d="M202.11,50.48c-1.39,0-26.44-.08-33.98,.75-.76,.08-2.48,.3-3.38,1.51-1.27,1.71-.61,5,1.16,6.85h0"/>
      <path id="Path_10" data-name="Path 10" class="cls-8" d="M135.94,30.77c.2,1.03-.52,2.02-1.61,2.21-1.09,.19-2.13-.49-2.33-1.52-.2-1.03,.52-2.02,1.61-2.21,.12-.02,.24-.03,.36-.03,.99-.08,1.87,.61,1.97,1.56"/>
      <path id="Path_11" data-name="Path 11" class="cls-8" d="M152.7,31.52c.2,1.03-.52,2.02-1.61,2.21-1.09,.19-2.13-.49-2.33-1.52-.2-1.03,.52-2.02,1.61-2.21,.12-.02,.24-.03,.36-.03,.99-.08,1.87,.61,1.97,1.56"/>
      <path id="Path_12" data-name="Path 12" class="cls-8" d="M144.28,33.22c0,.86-1.05,1.56-2.34,1.56s-2.34-.7-2.34-1.56,1.05-1.56,2.34-1.56,2.34,.7,2.34,1.56"/>
    </g>
  </g>
  <path class="cls-10" d="M79.06,91.95c3.73-2.03,7.5-4.08,10.64-7.01,3.01-2.8,5.58-6.49,9.44-7.68,3.41-1.05,7.13,.13,10.15,2.09s5.55,4.64,8.33,6.97c3.65,3.07,7.76,5.54,12.13,7.29,4.73,1.9,9.81,2.99,14.09,5.83s7.65,8.19,6.34,13.33c-.78,3.06-3.06,5.45-5.54,7.24-8.41,6.07-19.36,6.61-29.49,5.38-10.13-1.23-20.16-3.99-30.35-3.72,1.12-.46,2.46,.38,2.87,1.57,.65,1.87-.71,3.98-2.45,4.78s-3.72,.62-5.61,.43c-5.06-.51-10.41,.4-15.48-.11-4.97-.5-5.7,1.21-10.19-1.07-2.79-1.41-12.06-8.91-12.07-12.69,0-4.15,6.63-6,9.54-7.59,9.22-5.01,18.44-10.02,27.66-15.04Z"/>
  <path class="cls-11" d="M53.66,127.53s-13.27,3.62-15.55-2.68c-2.21-6.1,3.49-8.31,3.49-8.31,4.69,6.3,8.18,8.45,12.07,10.99Z"/>
  <path class="cls-11" d="M41.59,116.54c-5.5-15.95,2.28-29.9,2.28-29.9,0,0,.8-13.94,4.83-15.82s13.14,7.51,13.14,7.51c0,0,9.92-2.68,17.43-.54,0,0,3.49-8.58,8.85-8.85,3.76-.19,6.87,4.24,8.47,8.67,.68,1.88,1.1,3.76,1.18,5.28"/>
  <path class="cls-11" d="M96.59,77.61s24.24-8.93,36.3-2.77c12.07,6.17,16.36,17.16,15.55,28.96"/>
  <path class="cls-11" d="M100.85,113.85s-17.43,2.41-13.14,12.87c0,0,6.06,6.06,16.34,.89,1-.5,2.14-.66,3.25-.51,1.59,.21,4.96-.14,8.97-1.32"/>
  <path class="cls-18" d="M53.66,127.53s10.28,2.29,34.72,.13"/>
  <path class="cls-11" d="M143.48,111.98s-10.28,8.7-21.43,.74c-.2-.14-.42-.27-.65-.36-1.93-.78-10.87-3.99-11.39,3.5-.25,3.54,1.59,6.9,4.63,8.73,7.19,4.32,23.69,11.32,38.65-3.65,.66-.66,1.57-1.92,1.73-2.27,1.28-2.83,5.37-14.63-6.5-19.74"/>
  <ellipse class="cls-16" cx="52.32" cy="105.68" rx="2.15" ry="2.01"/>
  <ellipse class="cls-16" cx="75.11" cy="105.68" rx="2.15" ry="2.01"/>
  <ellipse class="cls-16" cx="63.98" cy="106.48" rx="3.62" ry="2.28"/>
  <path class="cls-16" d="M49.43,76.92c.27-.94,1.36-1.37,2.2-.85l2.2,1.36,1.66,1.02c.98,.6,.59,1.99-.71,2.49l-2.19,.85-2.19,.85c-1.3,.5-2.53-.25-2.21-1.36l.53-1.87,.71-2.49Z"/>
  <path class="cls-16" d="M86.88,74.66c.67-.72,1.84-.6,2.34,.24l1.34,2.21,1.01,1.66c.6,.99-.39,2.04-1.77,1.9l-2.34-.24-2.34-.24c-1.39-.14-2.13-1.37-1.35-2.22l1.33-1.42,1.77-1.89Z"/>
</svg>