<?xml version="1.0" encoding="utf-8"?>
<!-- Generator: Adobe Illustrator 27.0.0, SVG Export Plug-In . SVG Version: 6.00 Build 0)  -->
<svg version="1.1" id="Layer_1" xmlns="http://www.w3.org/2000/svg" xmlns:xlink="http://www.w3.org/1999/xlink" x="0px" y="0px"
	 viewBox="0 0 189.6 124.9" style="enable-background:new 0 0 189.6 124.9;" xml:space="preserve">
<style type="text/css">
	.st0{fill:#543524;}
	.st1{fill:#2C2421;}
	.st2{fill:#CAE1E5;}
	.st3{fill:#655A49;}
	.st4{fill:#8E7FAC;}
	.st5{fill:#574580;}
	.st6{fill:#413A58;}
	.st7{fill:#6B6299;}
	.st8{fill:#533359;}
	.st9{clip-path:url(#SVGID_00000047781705859490944020000011878330659220852150_);}
	.st10{fill:#35312D;}
	.st11{fill:none;stroke:#1E1C1A;stroke-width:5;stroke-miterlimit:10;}
	.st12{fill:#1E1C1A;}
	.st13{fill:#A35E31;}
	.st14{fill:#A35E31;stroke:#612F0B;stroke-width:5;stroke-linecap:round;stroke-linejoin:round;}
	.st15{fill:#704A2D;stroke:#612F0B;stroke-width:5;stroke-linecap:round;stroke-linejoin:round;}
	.st16{fill:#612F0B;}
</style>
<path class="st0" d="M6.7,69h174.8c3.7,0,6.7,3,6.7,6.7v42.4c0,3.7-3,6.7-6.7,6.7H6.7c-3.7,0-6.7-3-6.7-6.7V75.7C0,72,3,69,6.7,69z"
	/>
<path class="st1" d="M12.7,74.7h163c3.7,0,6.7,3,6.7,6.7v31c0,3.7-3,6.7-6.7,6.7h-163c-3.7,0-6.7-3-6.7-6.7v-31
	C5.9,77.7,9,74.7,12.7,74.7z"/>
<rect x="94.4" y="73.1" class="st0" width="6.5" height="46.9"/>
<circle class="st2" cx="32.7" cy="108.3" r="10.9"/>
<rect x="29.6" y="92.5" class="st2" width="6.4" height="7.2"/>
<path class="st3" d="M30.2,90.6h5.1c0.7,0,1.3,0.6,1.3,1.3V92c0,0.7-0.6,1.3-1.3,1.3h-5.1c-0.7,0-1.3-0.6-1.3-1.3v-0.1
	C28.9,91.2,29.5,90.6,30.2,90.6z"/>
<path class="st4" d="M24.5,104.6h16.5c0,0,4.5,13-8.2,13S24.5,104.6,24.5,104.6L24.5,104.6z"/>
<path class="st5" d="M24.5,104.6c0,0,5,4.6,10.4,3.2s6.1-3.2,6.1-3.2H24.5z"/>
<path class="st2" d="M66.9,96.1c0.9-1.5,3-1.5,3.9,0l5.6,9.8l5.6,9.8c0.9,1.5-0.2,3.4-1.9,3.4H57.6c-1.7,0-2.8-1.9-1.9-3.4l5.6-9.8
	L66.9,96.1L66.9,96.1z"/>
<rect x="66.9" y="90" class="st2" width="4" height="11.6"/>
<path class="st3" d="M67.5,88.6h2.6c0.7,0,1.2,0.5,1.2,1.2v0.1c0,0.7-0.5,1.2-1.2,1.2h-2.6c-0.7,0-1.2-0.5-1.2-1.2v-0.1
	C66.3,89.1,66.9,88.6,67.5,88.6z"/>
<path class="st6" d="M67.5,101.1c0.6-1,2.1-1,2.7,0l3.9,6.8l3.9,6.8c0.6,1-0.2,2.3-1.3,2.3H61c-1.2,0-2-1.3-1.3-2.3l3.9-6.8
	L67.5,101.1L67.5,101.1z"/>
<path class="st7" d="M68.2,106.4c0.2-0.5,0.9-0.5,1.1,0l1.6,3l1.6,3c0.2,0.5-0.1,1-0.6,1h-6.6c-0.5,0-0.8-0.6-0.6-1l1.6-3
	L68.2,106.4L68.2,106.4z"/>
<ellipse id="Ellipse_2" class="st2" cx="120.9" cy="101.3" rx="8.8" ry="8.6"/>
<ellipse id="Ellipse_3" class="st2" cx="132" cy="101.3" rx="8.8" ry="8.6"/>
<path id="Polygon_1" class="st2" d="M126.6,119l-11.5-11.4h23L126.6,119L126.6,119z"/>
<ellipse id="Ellipse_2-2" class="st8" cx="122.7" cy="101.8" rx="5.8" ry="5.7"/>
<ellipse id="Ellipse_3-2" class="st8" cx="130.1" cy="101.8" rx="5.8" ry="5.7"/>
<path id="Polygon_1-2" class="st8" d="M126.3,113.3l-7.9-7.6h15.8L126.3,113.3L126.3,113.3z"/>
<rect x="124.3" y="90.9" class="st2" width="4.6" height="4.5"/>
<path class="st3" d="M124.9,88.2h3.4c0.8,0,1.5,0.7,1.5,1.5v0.5c0,0.8-0.7,1.5-1.5,1.5h-3.4c-0.8,0-1.5-0.7-1.5-1.5v-0.5
	C123.4,88.8,124.1,88.2,124.9,88.2z"/>
<ellipse id="Ellipse_2-3" class="st4" cx="123.9" cy="102.4" rx="3.7" ry="3.6"/>
<ellipse id="Ellipse_3-3" class="st4" cx="128.6" cy="102.4" rx="3.7" ry="3.6"/>
<path id="Polygon_1-3" class="st4" d="M126.2,109.7l-5-4.8h10C131.2,104.9,126.2,109.7,126.2,109.7z"/>
<circle class="st2" cx="159.2" cy="108.2" r="10.9"/>
<rect x="164.3" y="96.3" transform="matrix(0.7 -0.7141 0.7141 0.7 -20.7167 149.7048)" class="st2" width="7.2" height="6.4"/>
<path class="st3" d="M169.8,93.8l3.6,3.6c0.5,0.5,0.5,1.3,0,1.8l0,0c-0.5,0.5-1.3,0.5-1.8,0l-3.6-3.6c-0.5-0.5-0.5-1.3,0-1.8l0,0
	C168.5,93.3,169.3,93.3,169.8,93.8z"/>
<circle class="st6" cx="159.4" cy="108.3" r="8.4"/>
<ellipse class="st7" cx="162.4" cy="106.1" rx="2.4" ry="1.2"/>
<ellipse class="st7" cx="160" cy="102.8" rx="1.2" ry="0.8"/>
<g>
	<defs>
		<rect id="SVGID_1_" x="51.4" y="5.8" width="103.3" height="62.7"/>
	</defs>
	<clipPath id="SVGID_00000049206969496002306190000003027069158040626621_">
		<use xlink:href="#SVGID_1_"  style="overflow:visible;"/>
	</clipPath>
	<g style="clip-path:url(#SVGID_00000049206969496002306190000003027069158040626621_);">
		<g id="Group_1">
			<path id="Path_5" class="st10" d="M224-15.9c2.6,10.5,1,12.6-8.1,16.4c-6.2,2.6-17.5,2.6-24.5,2.3c-1.2,0.1-2.4,0.1-3.7,0.1
				c-5.8,0-11.5-1-16.9-3c-3.8-0.4-7.5-0.6-11.3-0.6c-14-0.1-7.9-14.4-7.9-14.4l0.2,0c-2.3-3.9-3.5-8.3-3.5-12.8
				c0-17,17.6-30.9,39.4-30.9S227.2-45,227.2-28C227.2-23.8,226.1-19.6,224-15.9"/>
			<path id="Path_6" class="st11" d="M224-15.5c2.6,10.5,1,12.6-8.1,16.4c-6.2,2.6-17.5,2.6-24.5,2.3c-1.2,0.1-2.4,0.1-3.7,0.1
				c-5.8,0-11.5-1-16.9-3c-3.8-0.4-7.5-0.6-11.3-0.6c-14-0.1-7.9-14.4-7.9-14.4l0.2,0c-2.3-3.9-3.5-8.3-3.5-12.8
				c0-17,17.6-30.9,39.4-30.9s39.4,13.8,39.4,30.9C227.1-23.4,226-19.3,224-15.5L224-15.5z"/>
			<path id="Path_7" class="st10" d="M173.9-26.4c0,11.9-11,21.6-24.7,21.6s-24.7-9.7-24.7-21.6c0-3.1,0.8-6.1,2.2-8.9
				c-0.3,0-0.4-0.1-0.4-0.1s5.7-27.6,14.4-11.4c0,0,0,0,0,0.1c5.9-1.9,12.4-1.7,18.2,0.5c1.4-3.1,8.3-15.8,13.5,12.6
				c0,0.1,0.1,0.3,0.1,0.5C173.5-31,173.9-28.7,173.9-26.4"/>
			<path id="Path_8" class="st11" d="M174.1-26.6c0,11.9-11,21.6-24.7,21.6s-24.7-9.7-24.7-21.6c0-3.1,0.8-6.1,2.2-8.9
				c-0.3,0-0.4-0.1-0.4-0.1s5.7-27.6,14.4-11.4c0,0,0,0,0,0.1c5.9-1.9,12.4-1.7,18.2,0.5c1.4-3.1,8.3-15.8,13.5,12.6
				c0,0.1,0.1,0.3,0.1,0.5C173.7-31.2,174.1-28.9,174.1-26.6L174.1-26.6z"/>
			<path id="Path_9" class="st11" d="M208.1-9.1c-1.4,0-27.2-0.1-35,0.8c-0.8,0.1-2.6,0.3-3.5,1.5c-1.3,1.8-0.6,5.2,1.2,7l0,0"/>
			<path id="Path_10" class="st12" d="M140-29.4c0.2,1.1-0.5,2.1-1.6,2.3c-1.1,0.2-2.2-0.5-2.4-1.6c-0.2-1.1,0.5-2.1,1.6-2.3
				c0.1,0,0.2,0,0.4,0C139-31.1,139.9-30.4,140-29.4"/>
			<path id="Path_11" class="st12" d="M157.2-28.6c0.2,1.1-0.5,2.1-1.6,2.3s-2.2-0.5-2.4-1.6c-0.2-1.1,0.5-2.1,1.6-2.3
				c0.1,0,0.2,0,0.4,0C156.2-30.3,157.1-29.6,157.2-28.6"/>
			<path id="Path_12" class="st12" d="M148.6-26.9c0,0.9-1.1,1.6-2.4,1.6s-2.4-0.7-2.4-1.6s1.1-1.6,2.4-1.6S148.6-27.7,148.6-26.9"
				/>
		</g>
	</g>
</g>
<path class="st13" d="M81.4,33.6c3.8-2.1,7.7-4.2,10.9-7.2c3.1-2.9,5.8-6.7,9.7-7.9c3.5-1.1,7.3,0.1,10.4,2.2s5.7,4.8,8.6,7.2
	c3.8,3.2,8,5.7,12.5,7.5c4.9,1.9,10.1,3.1,14.5,6s7.9,8.4,6.5,13.7c-0.8,3.2-3.1,5.6-5.7,7.5c-8.7,6.3-19.9,6.8-30.4,5.5
	c-10.4-1.3-20.8-4.1-31.3-3.8c1.2-0.5,2.5,0.4,3,1.6c0.7,1.9-0.7,4.1-2.5,4.9s-3.8,0.6-5.8,0.4c-5.2-0.5-10.7,0.4-15.9-0.1
	c-5.1-0.5-5.9,1.2-10.5-1.1c-2.9-1.5-12.4-9.2-12.4-13.1c0-4.3,6.8-6.2,9.8-7.8C62.4,43.9,71.9,38.8,81.4,33.6L81.4,33.6z"/>
<path class="st14" d="M55.3,70.2c0,0-13.7,3.7-16-2.8c-2.3-6.3,3.6-8.6,3.6-8.6C47.7,65.4,51.3,67.6,55.3,70.2z"/>
<path class="st14" d="M42.8,58.9c-5.7-16.4,2.3-30.8,2.3-30.8s0.8-14.4,5-16.3s13.5,7.7,13.5,7.7s10.2-2.8,18-0.6
	c0,0,3.6-8.8,9.1-9.1c3.9-0.2,7.1,4.4,8.7,8.9c0.7,1.9,1.1,3.9,1.2,5.4"/>
<path class="st14" d="M99.5,18.8c0,0,25-9.2,37.4-2.8s16.8,17.7,16,29.8"/>
<path class="st14" d="M103.8,56.2c0,0-18,2.5-13.5,13.2c0,0,6.2,6.2,16.8,0.9c1-0.5,2.2-0.7,3.3-0.5c1.6,0.2,5.1-0.1,9.2-1.4"/>
<path class="st15" d="M55.3,70.2c0,0,10.6,2.4,35.8,0.1"/>
<path class="st14" d="M147.8,54.2c0,0-10.6,9-22.1,0.8c-0.2-0.2-0.4-0.3-0.7-0.4c-2-0.8-11.2-4.1-11.7,3.6c-0.3,3.6,1.6,7.1,4.8,9
	c7.4,4.4,24.4,11.7,39.8-3.8c0.7-0.7,1.6-2,1.8-2.3c1.3-2.9,5.5-15.1-6.7-20.3"/>
<ellipse class="st16" cx="53.9" cy="47.8" rx="2.2" ry="2.1"/>
<ellipse class="st16" cx="77.3" cy="47.8" rx="2.2" ry="2.1"/>
<ellipse class="st16" cx="65.9" cy="48.6" rx="3.7" ry="2.3"/>
<path class="st16" d="M50.9,18.1c0.3-1,1.4-1.4,2.3-0.9l2.3,1.4l1.7,1.1c1,0.6,0.6,2.1-0.7,2.6l-2.3,0.9L51.9,24
	c-1.3,0.5-2.6-0.3-2.3-1.4l0.5-1.9L50.9,18.1L50.9,18.1z"/>
<path class="st16" d="M89.5,15.8c0.7-0.7,1.9-0.6,2.4,0.2l1.4,2.3l1,1.7c0.6,1-0.4,2.1-1.8,1.9l-2.4-0.2l-2.4-0.2
	c-1.4-0.2-2.2-1.4-1.4-2.3l1.4-1.5L89.5,15.8L89.5,15.8z"/>
</svg>
