<?xml version="1.0" encoding="UTF-8"?>
<svg id="Layer_1" data-name="Layer 1" xmlns="http://www.w3.org/2000/svg" viewBox="0 0 330 300">
  <defs>
    <style>
      .cls-1 {
        fill: #f9db8f;
      }

      .cls-2, .cls-3 {
        fill: #f7d56b;
      }

      .cls-4 {
        fill: #fcdd9f;
      }

      .cls-5 {
        fill: #ffe8b6;
      }

      .cls-6 {
        fill: #fcfbf5;
        stroke: #ddbc7a;
      }

      .cls-6, .cls-3 {
        stroke-width: 2px;
      }

      .cls-6, .cls-3, .cls-7 {
        stroke-miterlimit: 10;
      }

      .cls-3 {
        stroke: #e8ad28;
      }

      .cls-8 {
        fill: #e8ad28;
        font-family: ChalkboardSE-Bold, 'Chalkboard SE';
        font-size: 17.86px;
        font-weight: 700;
      }

      .cls-7 {
        fill: none;
        stroke: #fcdd9f;
      }
    </style>
  </defs>
  <path class="cls-6" d="M224.98,149.47v66.53l-27.09,21h-67.89l-24-21,1-70c0-4,5-7,5-7l.7-6s0,0,0,.01c-1.14-2.75-3.83-11.74,5.29-20.06,12-10.95,58.56-16.54,90.31-4.64,6.98,2.61,11.93,8.04,12.97,14.4,.6,3.66,.36,7.6-2.3,10.3,.01-.01,.02-.01,.02-.01l-1,4c6.96,3.98,6.98,12.37,6.98,12.47Z"/>
  <path class="cls-3" d="M113,213.05l21.18,17.47h59.91l23.9-17.47v-55.34s.02-7.05-6.16-10.37l.88-3.33s-44.65,25.79-93.81,0l-.62,4.99s-4.41,2.5-4.41,5.82l-.88,58.23Z"/>
  <polygon class="cls-5" points="123.78 158 123 209 130 218 130 167.4 123.78 158"/>
  <path class="cls-3" d="M122.41,132.35s-4.98-9,4.03-17.22c9.89-9.02,48.25-13.63,74.41-3.83,5.75,2.15,9.82,6.63,10.69,11.87,.55,3.35,.24,6.99-2.7,9.19,0,0-14.09,12.13-46.56,11.64-32.46-.49-39.87-11.64-39.87-11.64Z"/>
  <path class="cls-1" d="M139.26,128.6s-2.73-4.94,2.21-9.45c5.43-4.95,26.48-7.48,40.84-2.1,3.16,1.18,5.39,3.64,5.86,6.51,.3,1.84,.13,3.84-1.48,5.04,0,0-7.74,6.66-25.55,6.39-17.82-.27-21.88-6.39-21.88-6.39Z"/>
  <path class="cls-2" d="M151.19,124.98s-1.38-2.5,1.12-4.78c2.75-2.51,13.4-3.78,20.66-1.06,1.6,.6,2.73,1.84,2.97,3.3,.15,.93,.07,1.94-.75,2.55,0,0-3.91,3.37-12.93,3.23-9.01-.14-11.07-3.23-11.07-3.23Z"/>
  <path class="cls-5" d="M172.97,119.13s7.98,5.53-2.99,8.2,5.8,2.87,5.8,2.87c0,0,8.89-3.39,5.56-7.3s-8.36-3.78-8.36-3.78Z"/>
  <ellipse class="cls-5" cx="154" cy="119.5" rx="5" ry="2.5"/>
  <text class="cls-8" transform="translate(138.44 194.83)"><tspan x="0" y="0">HONEY</tspan></text>
  <polygon class="cls-4" points="101.89 93.81 97.25 90.59 91.96 92.59 93.59 87.17 90.05 82.76 95.71 82.64 98.81 77.91 100.67 83.25 106.13 84.74 101.63 88.16 101.89 93.81"/>
  <polygon class="cls-7" points="104.27 104.28 101.91 102.89 99.28 103.66 100.04 101.44 98.22 99.57 101.05 99.58 102.55 97.66 103.54 99.89 106.29 100.57 104.07 101.94 104.27 104.28"/>
  <polygon class="cls-7" points="119.18 86.42 117.06 86.8 116.17 88.77 115.14 86.87 112.99 86.63 114.49 85.07 114.05 82.95 116 83.89 117.88 82.82 117.58 84.96 119.18 86.42"/>
  <polygon class="cls-4" points="251.33 210.55 246.69 207.33 241.4 209.33 243.03 203.91 239.49 199.5 245.15 199.37 248.25 194.65 250.11 199.99 255.57 201.48 251.07 204.9 251.33 210.55"/>
  <polygon class="cls-7" points="259.03 220.6 256.29 220.65 254.46 222.68 253.94 220.39 251.41 219.74 253.83 218.27 254.1 215.85 256.11 217.23 258.81 216.37 257.64 218.7 259.03 220.6"/>
  <polygon class="cls-7" points="268.59 205.48 266.8 204.44 264.92 205.29 265.37 203.31 263.96 201.82 266.02 201.63 267.03 199.85 267.86 201.72 269.89 202.11 268.34 203.46 268.59 205.48"/>
</svg>