<?xml version="1.0" encoding="utf-8"?>
<!-- Generator: Adobe Illustrator 27.0.0, SVG Export Plug-In . SVG Version: 6.00 Build 0)  -->
<svg version="1.1" id="Layer_1" xmlns="http://www.w3.org/2000/svg" xmlns:xlink="http://www.w3.org/1999/xlink" x="0px" y="0px"
	 viewBox="0 0 601 652" style="enable-background:new 0 0 601 652;" xml:space="preserve">
<style type="text/css">
	.st0{fill:#F5F1DC;}
	.st1{fill:#AA917D;}
	.st2{fill:#070707;}
	.st3{fill:#635242;}
	.st4{fill:#28201B;}
	.st5{fill:#364438;}
	.st6{fill:#4B5E51;}
	.st7{fill:#35291F;}
	.st8{fill:#1F2820;}
	.st9{fill:#FAFFFF;}
	.st10{fill:#E1EFEF;}
</style>
<path class="st0" d="M35.6,0h529.7C585,0,601,16,601,35.6v580.7c0,19.7-16,35.6-35.6,35.6H35.6C16,652,0,636,0,616.4V35.6
	C0,16,16,0,35.6,0z"/>
<ellipse class="st1" cx="299.5" cy="402.8" rx="146.5" ry="134.8"/>
<ellipse class="st1" cx="299.5" cy="281.5" rx="112.5" ry="103.5"/>
<ellipse class="st1" cx="222.8" cy="204.8" rx="31.2" ry="29.4"/>
<ellipse class="st1" cx="386" cy="204.8" rx="31.2" ry="29.4"/>
<ellipse class="st2" cx="258.4" cy="250" rx="5.6" ry="5.3"/>
<ellipse class="st2" cx="350.5" cy="250.4" rx="5.6" ry="5.3"/>
<ellipse class="st2" cx="299.9" cy="253" rx="9.1" ry="5"/>
<path class="st3" d="M86,463h438v160.3c0,15.9-12.9,28.7-28.7,28.7H114.7C98.9,652,86,639.1,86,623.3V463L86,463z"/>
<rect x="65" y="450" class="st3" width="481" height="28"/>
<rect x="112" y="477" class="st1" width="8" height="175"/>
<rect x="130" y="477" class="st1" width="8" height="175"/>
<rect x="148" y="477" class="st1" width="8" height="175"/>
<rect x="166" y="477" class="st1" width="8" height="175"/>
<rect x="184" y="477" class="st1" width="8" height="175"/>
<rect x="202" y="477" class="st1" width="8" height="175"/>
<rect x="220" y="477" class="st1" width="8" height="175"/>
<rect x="238" y="477" class="st1" width="8" height="175"/>
<rect x="256" y="477" class="st1" width="8" height="175"/>
<rect x="274" y="477" class="st1" width="8" height="175"/>
<rect x="292" y="477" class="st1" width="8" height="175"/>
<rect x="310" y="477" class="st1" width="8" height="175"/>
<rect x="328" y="477" class="st1" width="8" height="175"/>
<rect x="346" y="477" class="st1" width="8" height="175"/>
<rect x="364" y="477" class="st1" width="8" height="175"/>
<rect x="382" y="477" class="st1" width="8" height="175"/>
<rect x="400" y="477" class="st1" width="8" height="175"/>
<rect x="418" y="477" class="st1" width="8" height="175"/>
<rect x="436" y="477" class="st1" width="8" height="175"/>
<rect x="453" y="477" class="st1" width="8" height="175"/>
<rect x="471" y="477" class="st1" width="8" height="175"/>
<rect x="489" y="477" class="st1" width="8" height="175"/>
<rect x="86" y="477" class="st4" width="438" height="2"/>
<rect x="-1" class="st3" width="601" height="28"/>
<ellipse class="st3" cx="46" cy="27.2" rx="21.2" ry="20.2"/>
<ellipse class="st3" cx="75.1" cy="27.2" rx="21.2" ry="20.2"/>
<ellipse class="st3" cx="101.1" cy="27.2" rx="21.2" ry="20.2"/>
<ellipse class="st3" cx="129.1" cy="27.2" rx="21.2" ry="20.2"/>
<ellipse class="st3" cx="157.1" cy="27.2" rx="21.2" ry="20.2"/>
<ellipse class="st3" cx="182.6" cy="27.2" rx="21.2" ry="20.2"/>
<ellipse class="st3" cx="209.1" cy="27.2" rx="21.2" ry="20.2"/>
<ellipse class="st3" cx="234.6" cy="27.2" rx="21.2" ry="20.2"/>
<ellipse transform="matrix(0.1525 -0.9883 0.9883 0.1525 -10.0133 43.3363)" class="st3" cx="20.3" cy="27.5" rx="20.3" ry="21.2"/>
<ellipse class="st3" cx="286.7" cy="27" rx="21.2" ry="20.2"/>
<ellipse class="st3" cx="315.8" cy="27" rx="21.2" ry="20.2"/>
<ellipse class="st3" cx="341.8" cy="27" rx="21.2" ry="20.2"/>
<ellipse class="st3" cx="369.8" cy="27" rx="21.2" ry="20.2"/>
<ellipse class="st3" cx="397.8" cy="27" rx="21.2" ry="20.2"/>
<ellipse class="st3" cx="423.3" cy="27" rx="21.2" ry="20.2"/>
<ellipse class="st3" cx="449.8" cy="27" rx="21.2" ry="20.2"/>
<ellipse class="st3" cx="475.3" cy="27" rx="21.2" ry="20.2"/>
<ellipse transform="matrix(0.1525 -0.9883 0.9883 0.1525 194.2102 280.9999)" class="st3" cx="260.9" cy="27.3" rx="20.2" ry="21.2"/>
<ellipse class="st3" cx="524" cy="26.8" rx="21.2" ry="20.2"/>
<ellipse class="st3" cx="553.1" cy="26.8" rx="21.2" ry="20.2"/>
<ellipse class="st3" cx="579.1" cy="26.8" rx="21.2" ry="20.2"/>
<ellipse transform="matrix(0.1525 -0.9883 0.9883 0.1525 395.4825 515.2643)" class="st3" cx="498.2" cy="27" rx="20.2" ry="21.2"/>
<g>
	<path class="st5" d="M58.1,117.6l74.8-42.1c0,0,31.6,43.5-11.1,67.5S58.1,117.6,58.1,117.6z"/>
	<path class="st5" d="M132.7,83.4l11,29.7c0,0,21.2-9.7,13.7-29.8S132.7,83.4,132.7,83.4L132.7,83.4z"/>
	<path class="st0" d="M139.4,87l6.1,16.3c0,0,11.7-5.3,7.5-16.4S139.4,87,139.4,87L139.4,87z"/>
	<path class="st6" d="M132.9,75.6c0,0,32.5,45.8-14.1,69.1C118.8,144.6,136.3,121.4,132.9,75.6z"/>
</g>
<g>
	<path class="st5" d="M184.6,117.6l74.8-42.1c0,0,31.5,43.5-11.1,67.5S184.6,117.6,184.6,117.6z"/>
	<path class="st5" d="M259.2,83.4l11,29.7c0,0,21.2-9.7,13.7-29.8S259.2,83.4,259.2,83.4L259.2,83.4z"/>
	<path class="st0" d="M266,87l6.1,16.3c0,0,11.7-5.3,7.5-16.4S266,87,266,87L266,87z"/>
	<path class="st6" d="M259.4,75.6c0,0,32.5,45.8-14.1,69.1C245.3,144.6,262.8,121.4,259.4,75.6z"/>
</g>
<g>
	<path class="st5" d="M305.6,117.6l74.8-42.1c0,0,31.5,43.5-11.1,67.5S305.6,117.6,305.6,117.6z"/>
	<path class="st5" d="M380.2,83.4l11,29.7c0,0,21.2-9.7,13.7-29.8S380.2,83.4,380.2,83.4L380.2,83.4z"/>
	<path class="st0" d="M387,87l6.1,16.3c0,0,11.7-5.3,7.5-16.4S387,87,387,87L387,87z"/>
	<path class="st6" d="M380.4,75.6c0,0,32.5,45.8-14.1,69.1C366.3,144.6,383.8,121.4,380.4,75.6z"/>
</g>
<g>
	<path class="st5" d="M431.6,117.6l74.8-42.1c0,0,31.5,43.5-11.1,67.5S431.6,117.6,431.6,117.6z"/>
	<path class="st5" d="M506.2,83.4l11,29.7c0,0,21.2-9.7,13.7-29.8S506.2,83.4,506.2,83.4L506.2,83.4z"/>
	<path class="st0" d="M513,87l6.1,16.3c0,0,11.7-5.3,7.5-16.4S513,87,513,87L513,87z"/>
	<path class="st6" d="M506.4,75.6c0,0,32.5,45.8-14.1,69.1C492.3,144.6,509.8,121.4,506.4,75.6z"/>
</g>
<circle class="st5" cx="147.5" cy="83.5" r="2.5"/>
<circle class="st5" cx="274.5" cy="83.5" r="2.5"/>
<circle class="st5" cx="395.5" cy="83.5" r="2.5"/>
<circle class="st5" cx="522.5" cy="84.5" r="2.5"/>
<path class="st5" d="M191.5,311.7c0,0,95,103.7,215.9,0L410,450H191.5V311.7z"/>
<polygon class="st7" points="169,378.5 203.5,378.5 203.5,418 181.7,418 181.7,408 196.4,407.6 196,387 169,386.7 "/>
<path class="st8" d="M246,389h110c0,0-0.6,43.9-56.5,42.8S246,389,246,389L246,389z"/>
<circle class="st9" cx="139.5" cy="416.5" r="48.5"/>
<rect x="114" y="368" class="st3" width="52" height="8"/>
<polygon class="st9" points="114,368 101,352.6 166,352 166,368 "/>
<path class="st7" d="M98,423h83c0,0,0,36.2-41.5,37C139.5,460,102.3,461.5,98,423z"/>
<path class="st10" d="M165.6,379c0,0,20.6,15.8,16.4,31h-6L165.6,379z"/>
</svg>
