<?xml version="1.0" encoding="UTF-8"?>
<svg xmlns="http://www.w3.org/2000/svg" viewBox="0 0 300 300">
  <defs>
    <style>
      .cls-1 {
        stroke-width: 3px;
      }

      .cls-1, .cls-2 {
        fill: none;
        stroke: #000;
        stroke-miterlimit: 10;
      }

      .cls-3 {
        fill: #fff;
      }

      .cls-2 {
        stroke-width: 4px;
      }
    </style>
  </defs>
  <g id="Layer_2" data-name="Layer 2">
    <rect class="cls-1" x="75" y="156" width="24.5" height="24" rx="2.89" ry="2.89" transform="translate(50.39 -17.68) rotate(16.22)"/>
    <rect class="cls-1" x="116.79" y="169.16" width="24.5" height="24" rx="2.89" ry="2.89" transform="translate(-8.88 6.66) rotate(-2.86)"/>
    <rect class="cls-1" x="157.79" y="157.16" width="24.5" height="24" rx="2.89" ry="2.89" transform="translate(-8.23 8.69) rotate(-2.86)"/>
    <rect class="cls-1" x="200.79" y="162.16" width="24.5" height="24" rx="2.89" ry="2.89" transform="translate(-38.97 63.67) rotate(-15.59)"/>
    <circle class="cls-1" cx="104.5" cy="190.5" r="4"/>
    <path class="cls-1" d="M125.84,155.64c0,2.21-1.79,4-4,4s-4-1.79-4-4,1.79-4,4-4,4,1.79,4,4Z"/>
    <circle class="cls-1" cx="172.5" cy="195.5" r="4"/>
    <circle class="cls-1" cx="198.5" cy="148.5" r="4"/>
    <circle class="cls-1" cx="71.5" cy="145.5" r="4"/>
    <line class="cls-1" x1="111.5" y1="203.5" x2="111.5" y2="236.5"/>
    <line class="cls-1" x1="124.5" y1="203.5" x2="124.5" y2="236.5"/>
    <line class="cls-1" x1="135.5" y1="206.5" x2="135.5" y2="239.5"/>
    <line class="cls-1" x1="149.5" y1="207.5" x2="149.5" y2="239.5"/>
    <line class="cls-1" x1="162.5" y1="207.5" x2="162.5" y2="239.5"/>
    <line class="cls-1" x1="176.5" y1="206.5" x2="176.5" y2="238.5"/>
    <line class="cls-1" x1="188.5" y1="205.5" x2="188.5" y2="234.5"/>
    <path d="M273.98,125.81c-5.3-9.92-18.36-20.46-30.07-18.14-6.29,1.25-3.12,10.74,3.14,9.5,3.82-.76,8.73,3.49,11.5,5.77,2.88,2.38,5.5,5.09,7.11,8.51,3.95,8.39-1.14,14.43-7.01,20.03-.21,.2-.4,.41-.56,.63-2.49-1.38-5.47-1.93-8.21-.99-2.03,.69-3.6,2.23-3.53,4.49,.02,.68,.14,1.37,.33,2.06-.64-.21-1.31-.38-1.99-.48-1.43-.21-2.16,1.39-1.62,2.32-.52,.3-1.02,.64-1.47,1.06-2.97,2.82-2.3,7.47-2.1,11.15,.13,2.33,.29,4.66,.5,6.99,.17,1.93,.29,3.98,1.05,5.79,1.24,2.93,4.85,5.21,7.89,3.21,.99-.65,1.5-1.62,1.68-2.69,.14,.1,.27,.21,.42,.3,3.12,1.94,6.38,1.25,9.33-.62,2.67-1.69,3.42-4.79,1.45-7.39-1.34-1.77-3.32-2.37-5.38-2.42,.41-.86,.7-1.77,.87-2.71,1.54,1.33,3.44,2.02,5.6,1,3.47-1.63,2.99-6.2,2.44-9.31-.27-1.51-.67-3.03-1.23-4.48,.67-.23,1.33-.61,1.94-1.19,9.42-8.97,14.57-19.94,7.93-32.39Zm-11.31,42.9c-.26,1.52-1.32,2.33-2.84,1.64-1.53-.69-2.34-2.48-3.06-3.88-.8-1.52-3.22-.29-2.68,1.29,.95,2.79,.26,5.79-1.78,7.91-1.14,1.18,.23,2.71,1.58,2.43,1.81-.38,4.4-.64,5.61,1.1,1.35,1.94-.69,3.08-2.29,3.82-4.78,2.2-7.66-3.31-9.23-6.87-.69-1.57-2.84-1.18-2.92,.55-.1,1.99,.97,3.57,1.9,5.23,.52,.93,1.51,3.08-.16,3.44-3.7,.81-3.72-5.69-3.9-7.8-.18-2.17-.33-4.34-.44-6.51-.1-1.91-.37-3.95-.01-5.84,.49-2.63,3.02-4.32,5.52-3.61,.35,.24,.7,.5,1.03,.8,1.26,1.14,3.2-.49,2.26-1.93-.88-1.36-2-3.34-1.92-5.03,.08-1.61,2.51-1.85,3.74-1.81,1.51,.06,2.9,.6,4.11,1.42,.2,1.89,1.74,3.59,3.65,4.26,.73,1.46,1.21,3.07,1.52,4.67,.28,1.49,.58,3.18,.32,4.7Z"/>
    <path d="M54.31,105.83c-12,7.68-26.05,15.21-31.96,27.36-5.05,10.39-1.94,23.9,11.35,28.8,5.83,2.15,10.93-5.02,5.05-7.18-10.92-4.02-10.32-14.77-4.91-22.19,5.98-8.21,16.56-13.86,25.53-19.6,5.03-3.22,.06-10.45-5.05-7.18Z"/>
    <path d="M51.51,155.72c.26-1.61-.03-3.22-1.64-3.97-1.38-.64-3.04-.3-4.35,.35-3.12,1.55-5.56,4.56-7.22,7.55s-3.2,7.11-1,10.19c1.71,2.39,5.5,3.35,7.66,1.01,.88-.96,.26-2.53-1.06-2.56-2.36-.06-4.29,1.4-5.09,3.57l2.74-.36c-1.56-2.66-5.24-2.89-7.59-1.15-2.76,2.04-3.05,5.99-2.46,9.09,.7,3.72,5.09,4.94,8.4,5.15,3.56,.22,7.26-1.44,8.89-4.71,.69-1.38-.69-2.7-2.05-2.05-1.89,.9-3.51,2.24-4.78,3.9-1.09,1.44-2.73,3.92-1.28,5.63,1.29,1.53,4.3,1.79,6.12,1.46,2.1-.38,3.84-1.87,4.43-3.92l-2.89-.8c-.4,1.55-1.54,3.92-.22,5.31,1.18,1.24,3.23,1,4.59,.25,3.33-1.82,3.31-5.91,3.38-9.22,.08-4.35,.16-8.7,.24-13.05,.04-1.96,.07-3.91,.12-5.87,.03-1.37,0-2.84-.71-4.06-.88-1.54-2.71-2.47-4.47-2.28-1.89,.2-3.24,1.58-4.3,3.05-.99,1.37,1.25,3.11,2.36,1.82,1.16-1.36,2.12-2.89,2.24-4.72,.13-1.93-2.87-1.92-3,0-.06,.96-.76,1.89-1.36,2.6l2.36,1.82c.71-.99,1.91-2.19,3.16-1.24,.85,.64,.75,1.91,.73,2.86-.06,3.49-.14,6.97-.21,10.46s-.1,6.86-.19,10.29c-.04,1.48-.07,3.26-1.14,4.41-.24,.25-.54,.51-.87,.64-.15,.07-.31,.1-.47,.11-.25-.03-.27,.11-.04,.41,.26-.1,.62-2.43,.71-2.78,.48-1.87-2.36-2.65-2.89-.8-.31,1.07-1.28,1.69-2.36,1.83-.72,.09-1.45-.03-2.14-.22-.18-.05-.69-.12-.82-.26,.26,.29,.18,.06,.33-.27,1.03-2.14,2.78-3.73,4.9-4.74l-2.05-2.05c-1,2-3.01,3.13-5.22,3.23-1.25,.06-2.47-.15-3.66-.53-.96-.31-2.36-.67-2.76-1.71-.66-1.71-.5-4.48,.58-5.98,.8-1.12,2.99-1.79,3.83-.36,.7,1.18,2.31,.81,2.74-.36,.35-.93,1.25-1.39,2.2-1.37l-1.06-2.56c-1.02,1.11-2.82,.12-3.33-1.05-.92-2.09,.37-4.7,1.38-6.51s2.32-3.58,3.94-4.97c.39-.34,4.05-2.87,3.79-1.27-.3,1.89,2.59,2.7,2.89,.8Z"/>
    <path d="M142.18,121.31c-1.65-3.96-4.71-6.74-8.81-8.08-4.35-1.42-9.32-1.65-13.61,.07-3.59,1.44-6.6,4.22-8.01,7.81-1.66,4.22-.47,9.16,2.73,12.35,.83,.83,2.13-.45,1.3-1.28-2.51-2.5-3.57-6.24-2.58-9.65,.94-3.23,3.5-5.83,6.53-7.25,3.67-1.73,8.01-1.69,11.87-.68,1.85,.48,3.69,1.18,5.2,2.37,1.4,1.1,2.48,2.53,3.28,4.1,2.12,4.17,1.84,9.04,.78,13.46-.27,1.13,1.5,1.62,1.77,.48,1.07-4.49,1.38-9.35-.44-13.7Z"/>
    <path d="M188.23,116.41c-3.13-3.1-7.46-4.61-11.86-4.39-6.6,.32-13.26,4.84-14.53,11.28-3.75,1.06-7.6,1.65-11.47,1.78h0s-.09,0-.14,0h-.11s-.01,0-.02,0c-.08,0-.15,0-.23,0-.23,.06-.46,.09-.69,.08-.23,0-.46-.02-.69-.05-.18,.03-.35,.05-.53,.05h-.25c-.23,0-.46-.03-.68-.09-.67-.02-1.34-.05-2.01-.1-.42-.03-.76,.31-.88,.67-.07,.19-.13,.39-.2,.58-.05,.1-.09,.21-.11,.32-.76,2.23-1.52,4.45-2.28,6.68-.31,.9-.63,1.8-.99,2.68-.32,.66-.64,1.32-.93,1.99-.35,.66-.73,1.31-1.16,1.93-2.28,3.24-5.78,7.05-3.37,11.2,2.48,4.27,7.9,4.3,12.22,3.71,2.5-.34,5.03-.69,7.32-1.79,2.09-1.01,3.89-2.62,5.45-4.3,3.39-3.62,5.83-8.05,7.12-12.81,.07,.02,.15,.04,.22,.05,.2,.1,.39,.21,.6,.3,1.07,.48,2-1.08,.93-1.57-2.88-1.3-4.71-3.99-5.31-7.02-.63-3.2,.33-6.46,2.48-8.91,4.83-5.51,14.1-6.62,19.84-1.86,2.98,2.47,4.89,6.11,5.01,9.97,.04,1.16,1.87,1.17,1.83,0-.12-3.89-1.8-7.62-4.58-10.37Zm-28.14,29.44c-1.32,1.62-2.81,3.19-4.52,4.4-1.93,1.37-4.09,1.99-6.4,2.37-3.91,.64-9.37,1.63-12.16-2-1.82-2.38-.59-4.9,.98-7.13,.26,.09,.55,.04,.79-.23,.25,.17,.56,.22,.87-.02,6.55-4.79,15.66-5.75,23.04-2.27,.17,.08,.34,.11,.5,.1-.87,1.69-1.9,3.29-3.11,4.77Z"/>
    <path d="M135.05,90.88c-4.66-.2-8.47,3.2-9.6,8.05l2.1,.69,9.01,2.96-8.83,2.21-2.21,.55c1.3,5.3,5.52,9.37,10.39,9.57,5.73,.24,10.17-4.94,9.93-11.58-.24-6.64-5.08-12.21-10.8-12.46Z"/>
    <path class="cls-3" d="M105.26,105.77l-5.9-3.7-1.37-.86c-.44,.85-.8,1.79-1.05,2.78-.2,.8-.31,1.59-.36,2.37l1.74-.12,6.95-.47Z"/>
    <path d="M169.8,90.75c-4.66-.2-8.47,3.2-9.6,8.05l2.1,.69,9.01,2.96-8.83,2.21-2.21,.55c1.3,5.3,5.52,9.37,10.39,9.57,5.73,.24,10.17-4.94,9.93-11.58-.24-6.64-5.08-12.21-10.8-12.46Z"/>
    <path d="M120.98,123.51c-1.93,0-1.93,3,0,3s1.93-3,0-3Z"/>
    <path d="M131.62,122.02c-1.93,0-1.93,3,0,3s1.93-3,0-3Z"/>
    <path d="M127.17,128.71c-1.93,0-1.93,3,0,3s1.93-3,0-3Z"/>
    <path d="M169.26,124.25c-1.93,0-1.93,3,0,3s1.93-3,0-3Z"/>
    <path d="M184.12,121.53c-1.93,0-1.93,3,0,3s1.93-3,0-3Z"/>
    <path d="M180.65,129.21c-1.93,0-1.93,3,0,3s1.93-3,0-3Z"/>
    <path d="M116.97,84.19c-.12-.36-.34-.71-.69-.9-.12-.05-.24-.1-.36-.15-.27-.07-.53-.07-.8,0-1.08,.16-2.11,.75-2.89,1.49-.78,.75-1.39,1.77-1.6,2.84-.08,.4-.06,.8,.15,1.16,.18,.31,.54,.61,.9,.69,.38,.09,.82,.07,1.16-.15,.31-.2,.61-.52,.69-.9,.04-.21,.11-.41,.18-.61,.09-.18,.18-.34,.29-.51,.18-.22,.39-.42,.61-.61,.18-.12,.36-.22,.55-.32,.25-.09,.5-.16,.76-.2,.35-.05,.73-.4,.9-.69,.19-.32,.27-.8,.15-1.16Z"/>
    <path d="M196.84,84.36c-.4-.68-1.37-.98-2.05-.54-.68,.44-.96,1.33-.54,2.05,.14,.23,.26,.47,.38,.71,.06,.11,.11,.23,.16,.34,0,0,0,0,0,0,.02,.05,.04,.09,.05,.14,.18,.47,.33,.95,.44,1.44,.06,.25,.1,.49,.14,.74,0,.02,0,.03,0,.04,0,.03,0,.06,.01,.09,.01,.11,.02,.21,.03,.32,.04,.54,.04,1.08,0,1.62-.06,.78,.73,1.53,1.5,1.5,.86-.04,1.44-.66,1.5-1.5,.18-2.41-.42-4.88-1.64-6.97Z"/>
    <path class="cls-3" d="M269.53,207.38l-5.9-3.7-1.37-.86c-.44,.85-.8,1.79-1.05,2.78-.2,.8-.31,1.59-.36,2.37l1.74-.12,6.95-.47Z"/>
  </g>
  <g id="Layer_4" data-name="Layer 4">
    <path class="cls-2" d="M240,57c0,8.05-40.65,14.14-90.96,14.14-50.32,0-91.11-6.53-91.11-14.58s40.79-14.58,91.11-14.58,90.96,6.97,90.96,15.03Z"/>
    <path class="cls-2" d="M57.93,56.56v125.8c0,5.15,3.37,9.7,8.3,11.17,9.1,2.73,25.07,6.98,44.84,10.03,34.44,5.31,80.4,6.94,121.63-9.57,4.42-1.77,7.29-6.07,7.29-10.83V57"/>
    <path class="cls-2" d="M98,202v20.11c0,5.53,3.63,10.39,8.93,11.97,15.36,4.57,48.76,11.44,86.26-.06,5.23-1.61,8.81-6.44,8.81-11.91v-20.12"/>
  </g>
</svg>