<?xml version="1.0" encoding="UTF-8"?>
<svg id="Layer_2" data-name="Layer 2" xmlns="http://www.w3.org/2000/svg" viewBox="0 0 300 300">
  <defs>
    <style>
      .cls-1 {
        fill: #fff;
      }

      .cls-2 {
        stroke-linecap: round;
      }

      .cls-2, .cls-3 {
        fill: none;
        stroke: #000;
        stroke-miterlimit: 10;
        stroke-width: 4px;
      }
    </style>
  </defs>
  <ellipse class="cls-3" cx="130.46" cy="78.79" rx="83.08" ry="18.02" transform="translate(-17.61 42.7) rotate(-17.43)"/>
  <path class="cls-2" d="M103.08,199.99c-16.85-31.52-34.39-63.41-51.73-95.84"/>
  <path class="cls-2" d="M209.97,54.93c4.33,23.88,14.99,81.32,19.83,105.11-30.89,18.27-90.24,38.8-126.12,39.82"/>
  <g>
    <path d="M34.19,127.64c-1.09-2.02-1.56-4.42-1.02-6.66s2.18-4.23,4.37-4.92,4.84,.13,6.04,2.08c.57,.93,.8,2.03,1.27,3.02,.85,1.8,2.43,3.12,4,4.34,7.12,5.54,14.93,10.11,22.71,14.66,1.9,1.11,3.81,2.23,5.84,3.07,2.1,.88,4.32,1.46,6.44,2.31,2.41,.96,4.68,2.27,6.73,3.87,1.93,1.5,3.8,3.75,3.22,6.12-.44,1.79-2.12,2.96-3.71,3.89-1.26,.74-2.59,1.47-4.05,1.61-1.69,.16-3.34-.49-4.9-1.14-14.96-6.3-28.91-14.97-41.19-25.58-2.26-1.96-4.5-4.02-6.03-6.58"/>
    <path d="M35.49,126.88c-1.07-2.09-1.51-4.67-.38-6.84,.92-1.75,2.73-3.03,4.76-2.67,2.48,.43,2.76,2.61,3.69,4.54s2.7,3.46,4.42,4.79c4.15,3.23,8.53,6.14,13.01,8.9s8.89,5.56,13.53,7.93,9.62,3.22,13.91,6.15c1.58,1.08,3.95,2.78,3.98,4.92s-2.81,3.48-4.42,4.27c-2.63,1.3-5,.19-7.5-.89-2.21-.96-4.41-1.97-6.57-3.03-4.46-2.19-8.82-4.59-13.06-7.19-4.75-2.92-9.34-6.09-13.74-9.51-2.13-1.66-4.22-3.38-6.26-5.15s-4.16-3.74-5.63-6.14c-1.01-1.64-3.61-.14-2.59,1.51,2.91,4.73,7.71,8.25,12.02,11.63s8.89,6.62,13.58,9.56,9.7,5.72,14.77,8.18c2.55,1.24,5.13,2.41,7.75,3.5,2.75,1.14,5.35,1.67,8.16,.42,2.13-.95,4.62-2.37,5.8-4.46,1.27-2.24,.65-4.76-.84-6.71-3.44-4.52-9.24-6.33-14.35-8.15-2.83-1.01-5.4-2.53-7.99-4.04s-5.1-2.99-7.62-4.53c-5.07-3.08-10.16-6.29-14.76-10.05-1.07-.88-2.14-1.83-2.8-3.07-.7-1.31-.93-2.77-1.87-3.96-1.59-2.03-4.33-2.83-6.81-2.31s-4.64,2.66-5.59,5.06c-1.15,2.92-.55,6.13,.84,8.85,.88,1.72,3.47,.2,2.59-1.51h0Z"/>
  </g>
  <path d="M112.16,221.69c1.46-4.26,4.48-7.81,6.2-11.97,2.99-7.26,1.7-15.46,2.19-23.29,.06-1.03,.17-2.08,.57-3.04,.93-2.19,3.56-3.5,5.87-2.92,2.96,.74,4.6,3.92,5.22,6.91,.77,3.71,.52,7.55,.2,11.32-.51,6.03-1.21,12.08-2.87,17.9-.64,2.24-1.44,4.48-2.82,6.35s-3.44,3.35-5.76,3.59c-3.44,.36-6.56-2-8.89-4.56"/>
  <path d="M25.57,100.84c-1.65,.82-2.24,2.82-1.91,4.53s1.77,3.04,3.22,3.87c.68,.39,1.67,.18,2.05-.54s.19-1.63-.54-2.05c-.26-.15-.51-.32-.76-.49-.26-.19,.26,.22,.02,.01-.05-.04-.09-.08-.14-.12-.11-.1-.22-.2-.33-.31s-.19-.23-.29-.34c.27,.29,.09,.11,.02,.02-.03-.05-.06-.1-.1-.15-.08-.13-.13-.27-.21-.39,.19,.32,.07,.16,.02,.03-.02-.06-.04-.12-.05-.18s-.03-.13-.04-.19c-.06-.25,.03,.31,.02,.13,0-.13-.01-.26,0-.39,0-.03,.03-.18,.01-.19,.03,.04-.08,.41-.01,.13,.03-.12,.06-.25,.1-.37,.05-.15,.14-.16-.05,.11,.04-.05,.06-.11,.09-.17s.07-.11,.1-.16c.12-.21-.2,.22-.08,.09,.04-.04,.08-.09,.13-.14s.22-.19,.02-.03-.02,.02,.03-.01c.06-.04,.13-.08,.2-.11,.7-.35,.96-1.4,.54-2.05-.46-.72-1.3-.91-2.05-.54h0Z"/>
  <path d="M36.16,122.08c-4.34,1.18-11.22,1.69-12.97-3.73-.18-.56-.79-1.19-1.45-1.1-5.82,.76-10.24-3.54-13.26-7.99-1.34-1.97-3.22-4.48-2.63-7.01,.74-3.19,4.15-2.06,6.28-1.09,1.26,.57,2.93-.67,2.05-2.05-1.49-2.35-2.35-5.64-.22-7.91,1.55-1.65,4.63-1.56,5.23,.94l2.74-1.16c-1.64-2.51,.59-5.31,3.29-5.44,3.22-.15,5.59,2.49,6.65,5.28,.46,1.2,2,1.5,2.74,.36,.49-.75,1.74-.36,2.31,.09,1.25,1,1.03,3.07,.76,4.44-.73,3.63-2.05,7.23-3.5,10.63-.55,1.28,.64,2.89,2.05,2.05,1.79-1.06,4-.91,5.75,.17,1.86,1.15,3.16,3.78,1.34,5.55-1.67,1.62-4.15,2.06-6.05,3.34-2.16,1.47-3.63,3.48-3.25,6.18,.27,1.9,3.17,1.09,2.89-.8-.38-2.67,4.25-3.95,5.99-4.85,2.57-1.33,4.68-3.54,4.25-6.65-.78-5.61-7.78-8.32-12.43-5.55l2.05,2.05c1.07-2.52,2.04-5.08,2.83-7.7,.75-2.47,1.59-5.13,1.14-7.74-.36-2.09-1.7-3.79-3.76-4.41-1.9-.57-3.86-.02-4.96,1.67l2.74,.36c-1.69-4.43-5.6-8.19-10.67-7.36-4.41,.73-7.35,5.87-4.76,9.83,.93,1.41,3.14,.53,2.74-1.16-1-4.18-6.22-5.46-9.44-2.98-3.92,3.03-3.48,8.44-1.05,12.26l2.05-2.05c-3.13-1.41-7.23-2.6-9.66,.68-2.14,2.88-1.14,6.56,.53,9.39,3.57,6.05,9.46,12.62,17.23,11.61l-1.45-1.1c.95,2.93,3.26,4.99,6.1,6.06,3.38,1.26,7.17,.69,10.56-.23,1.86-.51,1.07-3.4-.8-2.89h0Z"/>
  <path d="M224.16,135.98c2.97-2.86,6.65-4.9,10.48-6.46,5.6-2.28,11.68-3.59,17.7-3.08,6.02,.51,11.99,2.95,16.16,7.32,2.22,2.32,3.88,5.12,5.17,8.06,4.61,10.5,4.3,23.05-.82,33.31-4.1-1.03-4.42-.45-8.13-2.47,1.7-6.28,1.98-12.56,.94-18.98-.39-2.44-2.33-6.06-3.6-8.19-2.92-4.89-11.26-8.54-16.95-8.22-6.21,.35-12.21,3.59-15.9,8.59-2.38-3.04-4.48-6.29-6.28-9.71"/>
  <path d="M217.6,98.08c13.22-3.53,25.31-11.22,34.1-21.71,1.11-1.33,2.31-2.78,4-3.16,1.47-.33,3.02,.26,4.18,1.22,1.8,1.49,2.79,4.2,1.65,6.25-.42,.76-1.07,1.35-1.72,1.92-6.19,5.51-12.65,10.7-19.37,15.54-5.26,3.79-10.91,7.47-17.33,8.37-.69,.1-1.42,.15-2.04-.15-.98-.48-1.35-1.68-1.61-2.74-.48-1.92-.95-3.83-1.43-5.75"/>
  <path d="M268.19,73c-.32,.79-.4,1.7-.53,2.53-.19,1.19-.36,2.39-.6,3.58-.11,.52-.23,1.04-.39,1.55-.03,.09-.06,.18-.09,.27-.12,.36,.12-.21,.01-.01-.04,.08-.08,.16-.12,.24-.08,.14-.31,.37,.04-.03-.04,.05-.2,.19,0,.03-.14,.11-.3,.21-.46,.3-.06,.03-.12,.07-.18,.1-.04,.02-.3,.12-.14,.07s-.11,.03-.15,.04c-.11,.04-.22,.07-.34,.09-.09,.02-.18,.04-.27,.05,.28-.05,.05,0-.01,0-.18,0-.36,0-.54,0,.3,.02-.15-.05-.26-.08-.27-.08-.07-.03-.01,0-.12-.06-.23-.13-.35-.2,.24,.14-.09-.09-.17-.18-.06-.06-.11-.13-.17-.19,.22,.23-.03-.05-.07-.1-.21-.32-.4-.65-.6-.97-.51-.83-1.1-1.59-1.96-2.08-.68-.39-1.67-.18-2.05,.54s-.19,1.63,.54,2.05c.07,.04,.14,.09,.22,.13-.25-.16-.03-.03,.03,.04,.05,.05,.42,.48,.21,.21,.23,.3,.42,.63,.61,.96,.48,.8,1.01,1.56,1.78,2.11,1.61,1.17,3.93,.92,5.56-.08,1.17-.73,1.66-1.76,1.99-3.05s.51-2.51,.7-3.77c.17-1.08,.24-2.3,.65-3.33,.3-.73-.32-1.68-1.05-1.85-.87-.2-1.53,.27-1.85,1.05h0Z"/>
  <path d="M252.27,73.42c-.96-.62-.62-1.91,0-2.64,.97-1.14,2.43-1.51,3.72-2.17,2.73-1.38,2.23-5.17,2.19-7.74-.04-2.84-.26-6.34,1.71-8.67,.72-.85,2.13-1.41,2.56-.06s.48,2.54,1.44,3.7c.91,1.09,2.47,.11,2.56-1.06,.17-2.24,1.68-4.22,3.94-4.64,.76-.14,2.26-.22,2.79,.48,.48,.63,.11,1.9,0,2.59l2.95,.4c-.03,.61-.22,.39,.38,.12,.32-.14,.68-.24,1.01-.31,.71-.15,1.25-.13,1.83,.37,1.3,1.13,.49,3.11-.27,4.35-1.01,1.66,1.55,3.13,2.59,1.51,.39-.61,1.97-1.25,2.67-.97,.95,.38,.71,1.97,.47,2.71-.65,1.91-1.72,3.98-2.94,5.59-1.38,1.83-2.69,4.01-4.64,5.29-2.12,1.39-5.25,1.02-7.5,.13-1.8-.71-2.57,2.19-.8,2.89,3.31,1.31,7.51,1.29,10.43-.86,1.32-.97,2.27-2.14,3.2-3.46s1.97-2.45,2.77-3.82c1.55-2.69,3.82-6.41,2.05-9.5s-6.56-2.18-8.3,.51l2.59,1.51c1.79-2.93,2.1-7.08-1.43-8.85-2.19-1.1-6.95-.17-7.11,2.81-.09,1.66,2.67,2.08,2.95,.4s.62-3.56-.4-5.07-3.19-1.98-4.92-1.86c-4.15,.3-7,3.68-7.31,7.7l2.56-1.06c-.51-.61-.46-1.64-.67-2.37s-.57-1.48-1.15-2.03c-1.23-1.17-3.18-1.25-4.66-.56-3.63,1.7-4.33,6.5-4.36,10.04-.02,1.99,.16,4-.05,5.98-.11,1-.38,1.12-1.26,1.49s-1.77,.8-2.56,1.38c-2.76,2.02-3.81,6.22-.53,8.34,1.63,1.05,3.13-1.54,1.51-2.59h0Z"/>
  <path d="M267.3,63.07c-.07,.5-.14,1-.34,1.47l.15-.36c-.08,.17-.16,.33-.28,.48l.23-.3c-.11,.14-.23,.26-.37,.37l.3-.23c-.11,.08-.22,.15-.34,.2l.36-.15c-.11,.04-.22,.08-.34,.1l.4-.05c-.1,.01-.21,.02-.31,0-.36-.04-.82,.19-1.06,.44-.26,.26-.46,.69-.44,1.06s.14,.79,.44,1.06l.3,.23c.23,.14,.49,.2,.76,.2,.53,.05,1.09-.12,1.55-.38s.83-.65,1.14-1.09c.26-.36,.42-.8,.54-1.22,.09-.34,.14-.69,.19-1.04,.06-.2,.07-.4,.03-.6,0-.2-.07-.39-.18-.56-.18-.31-.54-.61-.9-.69-.38-.09-.81-.07-1.16,.15l-.3,.23c-.19,.19-.31,.41-.39,.66h0Z"/>
  <path d="M104.83,228.69c-1.62,.34-4.07,.42-5.08-1.18-.71-1.13-.59-2.72,.12-3.82,2.15-3.33,6.89-2.66,10.09-1.7,3.46,1.04,7.48,2.4,9.62,5.52,.89,1.31,1.65,3.17,1.08,4.75-.78,2.14-2.29,.49-3.18-.64-1.05-1.34-3.29,.4-2.36,1.82,1.24,1.89,2.49,3.84,3.47,5.89,.48,1,.52,1.45-.63,1.71s-2.19-.02-3.15-.58l-.76,2.8c4.62,.4,8.71,4.3,9.4,8.89,.35,2.37-.25,5.06-1.9,6.85-1.98,2.14-5.27,2.61-8.02,2.86-5.39,.49-11.51,.73-16.64-1.23s-8.65-6.62-8.31-12.05c.37-5.88,5.86-10.54,11.76-9.05l.4-2.95c-1.29,.09-2.71-.74-2.8-2.16s1.2-2.48,2.5-2.49c1.93-.02,1.93-3.02,0-3-2.94,.03-5.56,2.48-5.5,5.49s2.9,5.36,5.8,5.16c1.62-.11,2.12-2.51,.4-2.95-6.45-1.64-12.91,2.26-14.92,8.5s.89,12.99,6.23,16.55c5.86,3.91,13.87,3.73,20.61,3.2,3.37-.27,7.11-.79,9.8-3.02,2.43-2.01,3.66-5.22,3.68-8.32,.05-6.89-5.77-12.7-12.49-13.29-1.54-.13-1.97,2.08-.76,2.8,2.4,1.42,7.31,1.84,8.48-1.47,.57-1.61-.28-3.17-1.03-4.57-.94-1.74-1.96-3.43-3.04-5.08l-2.36,1.82c1.2,1.53,2.92,3.07,5.03,2.57,1.81-.43,3-2.15,3.32-3.91,.81-4.37-2.39-8.35-5.94-10.45-1.91-1.13-4.04-1.91-6.15-2.59-2.25-.73-4.65-1.33-7.03-1.16-3.83,.28-7.75,2.6-8.25,6.7-.25,2.03,.41,4.19,2.03,5.51,2,1.63,4.84,1.67,7.25,1.17,1.89-.39,1.09-3.29-.8-2.89h0Z"/>
  <path d="M261.98,179.82c-3.01-2.19-7.02-.63-9.09,2.07-2.18,2.84-3.31,6.99-3.34,10.54-.06,8.35,8.61,12.16,15.61,13.64,7.48,1.58,16.82,2.77,23.49-1.85,2.94-2.03,5.04-5.01,5.51-8.6s-.91-7.12-3.89-9.29c-6.52-4.74-17.79-.88-19.93,6.93-.51,1.86,2.38,2.66,2.89,.8,1.48-5.39,9.13-8.32,14.03-6.03,5.76,2.69,4.63,10.02,.18,13.37-5.19,3.92-12.37,3.23-18.41,2.33-2.94-.44-5.9-1.07-8.66-2.21s-5.7-2.76-7.05-5.38c-1.51-2.94-.64-6.61,.43-9.55,.93-2.54,3.62-6.41,6.71-4.17,1.56,1.14,3.06-1.47,1.51-2.59h0Z"/>
  <path d="M261.18,178.89c-.68-.47-.85-1.43-.74-2.21,.16-1.1,.89-1.89,1.84-2.39,2.58-1.35,5.67-.23,8.17,.72,1.41,.53,2.92,.97,4.22,1.73,.9,.52,2.04,1.54,1.74,2.72-.26,.99-1.43,1.53-2.31,1.83-1.55,.53-3.17,.74-4.8,.74v3c.13,0,.25-.02,.38-.02,1.92-.12,1.93-3.12,0-3-.13,0-.25,.02-.38,.02-1.91,.12-1.95,3,0,3,2.92,0,6.77-.5,8.88-2.79,2.41-2.63,.99-6.21-1.73-7.93-1.4-.89-3.06-1.37-4.6-1.96s-3.2-1.22-4.9-1.48c-2.87-.45-6.2,.06-8.15,2.42s-1.83,6.32,.87,8.19c1.59,1.11,3.09-1.49,1.51-2.59h0Z"/>
  <path d="M272.36,184.09c.09,.11,.18,.23,.27,.34,.04,.05,.07,.09,.11,.14l-.13-.16s.05,.07,.08,.11c.17,.22,.33,.45,.47,.69,.07,.11,.13,.22,.19,.34,.03,.06,.06,.13,.1,.19,.09,.19-.02-.08-.05-.12,.14,.19,.17,.54,.21,.76l-.05-.4c.04,.27,.04,.54,0,.81l.05-.4c-.02,.12-.04,.24-.07,.36,0,.03-.07,.17-.07,.21,0-.05,.17-.37,.05-.13-.03,.05-.06,.1-.09,.15-.03,.05-.17,.23,0,.02s.02-.04-.02,0c-.08,.08-.29,.23,.08-.05-.32,.24-.58,.49-.69,.9-.1,.36-.05,.84,.15,1.16,.4,.62,1.38,1.04,2.05,.54s1.14-1.09,1.4-1.9c.23-.69,.21-1.43,.09-2.14-.24-1.37-1.19-2.49-2.02-3.54-.22-.28-.72-.44-1.06-.44-.37,0-.81,.16-1.06,.44s-.46,.66-.44,1.06c.02,.42,.18,.73,.44,1.06h0Z"/>
  <path d="M193.51,134.7c-1.93,0-1.93,3,0,3s1.93-3,0-3Z"/>
  <path d="M187.37,134.7c-1.93,0-1.93,3,0,3s1.93-3,0-3Z"/>
  <path d="M142.15,144.02c-1.93,0-1.93,3,0,3s1.93-3,0-3Z"/>
  <path d="M148.29,149.02c-1.93,0-1.93,3,0,3s1.93-3,0-3Z"/>
  <path d="M142.38,151.06c-1.93,0-1.93,3,0,3s1.93-3,0-3Z"/>
  <path d="M183.54,146.51c-.14-.69-.07-1.36,.12-1.98-1.29-2.33-1.22-5.36-.19-7.89,.25-.61,.59-1.26,1-1.9,.5-.24,.75-.66,.8-1.1,1.76-2.13,4.32-3.63,6.91-1.97,1.63,1.04,3.14-1.55,1.51-2.59-2.34-1.5-5.36-1.33-7.74,0-1.32,.74-2.43,1.81-3.34,3.03-9.93,1.99-19.84,4.05-29.74,6.17-.5,0-1,0-1.5-.02-.45-.02-.89-.05-1.34-.09-.22-.02-.44-.04-.67-.07-.13-.01-.26-.03-.39-.05-.03,0-.04,0-.05,0-.01,0-.02,0-.04,0-.33-.05-.62-.06-.91,.04-2.82-1.09-6-1.18-8.89-.07-1.18,.45-2.77,1.05-3.22,2.35-.56,1.6,.79,3.04,2.4,2.73,.8-.15,1.25-1.11,1.05-1.85,0-.03-.03-.04-.03-.07,.15-.08,.3-.16,.46-.22,.38-.16,.79-.29,1.19-.4,.94-.25,1.88-.36,2.85-.34,1.9,.05,3.71,.67,5.25,1.77,1.39,.99,2.51,2.4,3.2,3.95,.55,1.24,1.08,3.11-.14,4.1-.63,.51-.53,1.59,0,2.12,.62,.62,1.49,.51,2.12,0,1.75-1.43,1.86-3.98,1.28-6.01-.25-.85-.6-1.68-1.04-2.46,2.37,2.33,4.74,4.67,7.15,6.98,2.71,2.6,5.78,5.14,9.56,5.92,3.4,.7,6.94-.11,9.34-2.72,1.46-1.59,2.25-3.43,2.52-5.39,.05,.05,.11,.09,.17,.14,.03-.73,.14-1.43,.36-2.12Zm-6.04,6.08c-3.84,2.97-8.86,.33-12-2.38-2.81-2.43-5.45-5.09-8.08-7.74,.4,.12,.79,.25,1.09,.32,1.08,.25,2.17,.51,3.25,.78,2.01,.5,4.01,1.04,5.99,1.67,1.98,.63,3.95,1.34,5.85,2.2,1.4,.64,3.89,1.45,4.31,3.14,.11,.46,.37,.75,.69,.92-.33,.4-.69,.76-1.09,1.08Z"/>
  <path d="M192.25,141.72c-.07-.25-.2-.47-.39-.66l-.3-.23c-.23-.14-.49-.2-.76-.2h-.39c-.21,0-.4,.04-.58,.13-.19,.06-.35,.16-.48,.31-.15,.14-.25,.3-.31,.48-.09,.18-.14,.37-.13,.58,.02,.13,.04,.27,.05,.4,.07,.25,.2,.47,.39,.66l.3,.23c.23,.14,.49,.2,.76,.2h.39c.21,0,.4-.04,.58-.13,.19-.06,.35-.16,.48-.31,.15-.14,.25-.3,.31-.48,.09-.18,.14-.37,.13-.58-.02-.13-.04-.27-.05-.4Z"/>
  <g>
    <path d="M146.17,113.3c-2.84,.68-4.55,4.14-4.4,8.3l1.38,.18,5.94,.79-4.94,3.4-1.23,.85c1.7,4.09,4.94,6.65,7.91,5.93,3.49-.84,5.28-5.87,3.99-11.24s-5.16-9.05-8.65-8.21Z"/>
    <path class="cls-1" d="M119.18,130.7l-5.59-2.15-1.3-.5c-.19,.93-.29,1.93-.29,2.96,0,.82,.07,1.62,.19,2.39l1.4-.54,5.59-2.15Z"/>
    <path d="M170.09,107.89c-2.88,.51-4.79,3.87-4.87,8.03l1.37,.26,5.88,1.13-5.13,3.1-1.28,.78c1.45,4.18,4.54,6.92,7.55,6.39,3.53-.63,5.61-5.55,4.64-10.99s-4.62-9.33-8.16-8.7Z"/>
  </g>
  <path d="M135.56,109.28c-.63-.58-1.49-.56-2.12,0-2.43,2.14-3.88,5.18-4.21,8.38-.08,.78,.75,1.53,1.5,1.5,.88-.04,1.41-.66,1.5-1.5,0-.02,0-.09,0-.14,0-.02,.01-.04,.02-.1,.02-.15,.05-.31,.08-.46,.07-.32,.15-.65,.24-.96,.09-.32,.2-.63,.33-.94,.02-.05,.04-.11,.07-.16l-.06,.14c0-.06,.07-.16,.1-.21,.07-.16,.15-.32,.23-.47,.15-.29,.32-.58,.5-.86,.08-.13,.17-.26,.26-.39,.04-.06,.09-.13,.14-.19,0,0,.09-.12,.12-.16,.02-.02,.03-.04,.04-.05,.05-.06,.1-.12,.15-.18,.11-.13,.23-.26,.35-.39,.24-.26,.5-.5,.76-.73,.59-.52,.57-1.6,0-2.12Z"/>
  <path d="M182.34,101c-.47-1.02-1.17-1.96-1.99-2.73-.92-.86-1.97-1.49-3.14-1.94-.34-.13-.85-.03-1.16,.15-.31,.18-.61,.54-.69,.9-.09,.38-.07,.82,.15,1.16,.21,.32,.47,.51,.81,.65,.53,.23,1.02,.52,1.49,.86,.42,.34,.81,.73,1.15,1.15,.3,.41,.57,.85,.79,1.32,.15,.32,.57,.6,.9,.69,.36,.1,.84,.05,1.16-.15,.32-.21,.6-.51,.69-.9,.09-.41,.03-.77-.15-1.16Z"/>
  <path d="M127.32,67.71c-.92-3.58-3.09-6.95-6.45-8.65-1.72-.87-3.24,1.71-1.51,2.59,6.95,3.53,5.73,12.67,4.65,18.98-.32,1.89,2.57,2.7,2.89,.8,.77-4.5,1.58-9.2,.42-13.71Z"/>
  <path d="M152.95,67.59c-4.94-.31-9.47,4.06-9.53,8.96,0,.78,.7,1.54,1.5,1.5,.82-.04,1.49-.66,1.5-1.5,0-.23,0-.49,.04-.72,0-.03,.02-.06,.02-.1,.02-.11,.04-.22,.07-.33,.06-.23,.13-.47,.21-.69,0-.02,.03-.08,.04-.14,.03-.09,.08-.19,.13-.28,.21-.43,.46-.82,.74-1.21,.02-.02,.04-.05,.06-.08,.07-.09,.15-.17,.22-.25,.16-.18,.33-.35,.51-.52,.08-.08,.17-.15,.25-.22,.03-.03,.13-.11,.19-.15,.15-.11,.3-.22,.46-.32,.2-.13,.42-.25,.63-.36,.12-.06,.23-.11,.35-.17,0,0,0,0,.02,0,.01,0,.02,0,.04-.01,.46-.17,.91-.29,1.39-.38,0,0,.01,0,.02,0,0,0,.01,0,.02,0,.11,0,.22-.02,.33-.03,.26-.01,.52,0,.78,0,.78,.05,1.53-.72,1.5-1.5-.04-.85-.66-1.45-1.5-1.5Z"/>
  <path d="M183.82,66.64c-4.21-8.61-14.38-13.42-23.72-11.48-1.89,.39-1.09,3.29,.8,2.89,8.08-1.68,16.73,2.73,20.33,10.1,.85,1.73,3.44,.22,2.59-1.51Z"/>
  <path d="M88.42,86.66c-.2-.76-1.08-1.29-1.85-1.05-.78,.25-1.26,1.03-1.05,1.85,.03,.11,.05,.23,.07,.34,.02,.28,.02,.56,0,.83-.05,.26-.12,.52-.21,.77-.11,.23-.22,.46-.37,.67-.21,.31-.25,.81-.15,1.16,.1,.35,.36,.72,.69,.9,.35,.18,.77,.28,1.16,.15,.39-.13,.67-.35,.9-.69,.97-1.41,1.24-3.27,.81-4.92Z"/>
  <path d="M109.77,81.13c-.97-2.22-3.05-3.95-5.53-4-.81-.02-1.5,.7-1.5,1.5s.69,1.48,1.5,1.5c.07,0,.14,0,.2,0,0,0,.16,.02,.2,.03,.09,.02,.19,.05,.28,.07,.01,0,.1,.03,.15,.05,.06,.03,.2,.09,.22,.11,.09,.05,.17,.1,.25,.15,.06,.04,.12,.08,.18,.12,0,.01,.14,.11,.16,.13,.17,.15,.32,.31,.48,.48,.02,.03,.06,.07,.08,.09,.05,.07,.1,.14,.15,.21,.13,.19,.24,.39,.35,.59,.05,.09,.09,.18,.13,.27,.01,.03,.02,.04,.02,.05,0,.02,.01,.05,.03,.09,.68,2.06,.26,4.22-.15,6.31-.16,.79,.23,1.62,1.05,1.85,.74,.2,1.69-.25,1.85-1.05,.56-2.82,1.09-5.81-.11-8.54Z"/>
  <path d="M167.81,76.73c-.06-.19-.16-.35-.31-.48-.14-.15-.3-.25-.48-.31-.18-.09-.37-.14-.58-.13-.13,.02-.27,.04-.4,.05-.25,.07-.47,.2-.66,.39l-.23,.3c-.14,.23-.2,.49-.2,.76v.75c0,.21,.04,.4,.13,.58,.06,.19,.16,.35,.31,.48,.14,.15,.3,.25,.48,.31,.18,.09,.37,.14,.58,.13,.13-.02,.27-.04,.4-.05,.25-.07,.47-.2,.66-.39l.23-.3c.14-.23,.2-.49,.2-.76v-.75c0-.21-.04-.4-.13-.58Z"/>
  <path d="M129.73,90.04c-1.93,0-1.93,3,0,3s1.93-3,0-3Z"/>
  <path d="M195.22,53.77c-.26-.26-.69-.46-1.06-.44-.39,.02-.79,.14-1.06,.44-.27,.29-.44,.65-.44,1.06v3c0,.38,.17,.79,.44,1.06,.26,.26,.69,.46,1.06,.44,.39-.02,.79-.14,1.06-.44,.27-.29,.44-.65,.44-1.06v-3c0-.38-.17-.79-.44-1.06Z"/>
  <path d="M61.55,96.78c-.81,.04-1.5,.66-1.5,1.5v5.99c0,.78,.69,1.54,1.5,1.5,.81-.04,1.5-.66,1.5-1.5v-5.99c0-.78-.69-1.54-1.5-1.5Z"/>
</svg>