<?xml version="1.0" encoding="UTF-8"?>
<svg id="Layer_2" data-name="Layer 2" xmlns="http://www.w3.org/2000/svg" viewBox="0 0 300 300">
  <defs>
    <style>
      .cls-1 {
        stroke-linecap: round;
      }

      .cls-1, .cls-2 {
        fill: none;
        stroke: #000;
        stroke-miterlimit: 10;
        stroke-width: 4px;
      }
    </style>
  </defs>
  <ellipse class="cls-2" cx="125.83" cy="76.32" rx="83.08" ry="18.02" transform="translate(-19.28 51.79) rotate(-21.64)"/>
  <path class="cls-1" d="M107.43,199.21c-19.12-30.2-38.96-60.71-58.63-91.78"/>
  <path class="cls-1" d="M203.38,46.69c6.08,23.5,20.92,80,27.5,103.37-29.47,20.49-87.15,45.32-122.85,48.98"/>
  <g>
    <path d="M33.41,132.11c-1.23-1.94-1.88-4.3-1.51-6.56s1.87-4.38,4-5.23,4.84-.23,6.18,1.63c.64,.89,.95,1.97,1.48,2.92,.98,1.73,2.65,2.94,4.31,4.04,7.5,5,15.63,8.98,23.72,12.95,1.98,.97,3.96,1.94,6.05,2.64,2.16,.72,4.42,1.14,6.59,1.83,2.48,.78,4.84,1.92,7,3.36,2.03,1.36,4.07,3.46,3.67,5.87-.3,1.82-1.9,3.1-3.41,4.15-1.2,.83-2.48,1.65-3.92,1.9-1.67,.28-3.37-.24-4.97-.78-15.38-5.18-29.94-12.8-42.96-22.49-2.4-1.78-4.78-3.67-6.5-6.12"/>
    <path d="M34.71,131.36c-1.22-2.01-1.92-4.53-.98-6.81,.76-1.83,2.48-3.27,4.54-3.09,2.5,.22,2.95,2.32,4,4.17s2.89,3.26,4.68,4.47c4.38,2.94,8.99,5.52,13.66,7.95s9.28,4.87,14.07,6.91,9.84,2.51,14.32,5.11c1.68,.98,4.14,2.43,4.42,4.58s-2.36,3.63-3.87,4.55c-.98,.59-1.97,1.03-3.13,.99-1.4-.04-2.75-.57-4.06-1.01-2.3-.79-4.59-1.63-6.85-2.53-4.68-1.85-9.26-3.95-13.74-6.26-4.98-2.57-9.82-5.41-14.5-8.51-2.28-1.51-4.51-3.07-6.7-4.7s-4.49-3.43-6.14-5.72c-1.12-1.55-3.72-.06-2.59,1.51,3.26,4.52,8.26,7.68,12.81,10.75s9.47,6.02,14.43,8.63,10.16,5,15.43,7.09c2.68,1.06,5.38,2.08,8.13,2.97s5.33,1.07,7.92-.34c1.99-1.08,4.3-2.65,5.32-4.74,1.13-2.31,.41-4.76-1.19-6.64-3.66-4.3-9.71-5.71-14.89-7.13-2.91-.8-5.58-2.1-8.27-3.42s-5.31-2.61-7.94-3.95c-5.29-2.71-10.54-5.56-15.45-8.92-1.14-.78-2.3-1.65-3.07-2.83-.81-1.24-1.15-2.7-2.13-3.83-1.66-1.92-4.54-2.6-6.94-1.91-2.56,.73-4.47,2.9-5.28,5.39-.97,2.96-.17,6.19,1.4,8.78,1,1.65,3.6,.14,2.59-1.51h0Z"/>
  </g>
  <path d="M118.08,220.18c1.14-4.35,3.9-8.12,5.3-12.39,2.45-7.46,.56-15.54,.47-23.39-.01-1.04,.01-2.09,.35-3.07,.77-2.25,3.29-3.75,5.64-3.35,3,.52,4.88,3.57,5.71,6.5,1.04,3.64,1.07,7.49,1.03,11.28-.07,6.05-.32,12.13-1.55,18.06-.47,2.28-1.1,4.57-2.35,6.54s-3.18,3.6-5.48,4.01c-3.41,.61-6.69-1.51-9.2-3.9"/>
  <path d="M22.94,105.96c-1.57,.93-2.17,2.91-1.69,4.62s1.9,2.93,3.43,3.67c.71,.34,1.65,.22,2.05-.54,.35-.67,.22-1.69-.54-2.05-.28-.13-.55-.28-.81-.45-.12-.08-.24-.17-.37-.25-.15-.1,.26,.22,.06,.05-.07-.06-.13-.11-.2-.17-.11-.1-.21-.2-.31-.31-.05-.05-.09-.11-.14-.16-.12-.14,.19,.28,.05,.06-.08-.12-.16-.24-.23-.37-.04-.07-.07-.16-.12-.23,.05,.08,.11,.33,.05,.1-.03-.12-.07-.24-.1-.37-.05-.28,.04,.09,.01,.14,.01-.02-.01-.15-.01-.19,0-.09-.04-.34,.01-.42-.03,.04-.08,.4-.01,.14,.01-.06,.03-.12,.04-.18s.04-.12,.05-.18c.08-.25-.06,.07-.06,.12,0-.09,.14-.25,.18-.32,.13-.23-.24,.26-.06,.07,.04-.04,.08-.09,.13-.13,.1-.11,.2-.08-.11,.07,.06-.03,.13-.08,.19-.12,.68-.4,.98-1.37,.54-2.05s-1.33-.97-2.05-.54h0Z"/>
  <path d="M35.07,126.39c-4.14,1.47-11.14,2.63-13.28-2.63-.32-.79-.97-1.23-1.85-1.05-5.76,1.19-10.56-3.24-13.83-7.42-1.46-1.87-3.55-4.44-2.7-6.99,.94-2.81,4.3-1.62,6.31-.88,1.17,.43,2.47-1.17,1.69-2.2-1.67-2.24-2.82-5.42-.92-7.89,1.32-1.72,4.53-2.09,5.31,.37l2.74-1.16c-1.93-2.52,.2-5.59,3.08-5.79,3.26-.22,5.61,2.33,6.88,5.05,.48,1.03,2.08,.93,2.59,0,.47-.87,1.69-.64,2.39-.15,1.19,.83,1.19,2.64,1.09,3.93-.3,3.88-1.6,7.87-2.85,11.53-.41,1.2,1.14,2.44,2.2,1.69,1.66-1.16,3.77-1.3,5.6-.43,1.94,.91,3.69,3.38,2.13,5.38-1.42,1.83-3.98,2.49-5.78,3.85-2.07,1.56-3.56,3.73-2.98,6.41,.41,1.89,3.3,1.09,2.89-.8-.61-2.83,3.99-4.35,5.78-5.51,2.42-1.57,4.2-3.88,3.54-6.91-1.19-5.41-8.35-7.62-12.7-4.58l2.2,1.69c.93-2.74,1.72-5.53,2.31-8.36,.5-2.39,1.09-5.04,.31-7.44-.62-1.9-2.03-3.37-4.03-3.77-1.84-.37-3.78,.22-4.72,1.94h2.59c-1.95-4.18-6.16-7.41-10.96-6.34-4.31,.97-7.07,6.33-4.19,10.1,.95,1.24,3.3,.61,2.74-1.16-1.31-4.11-6.46-5.13-9.6-2.44-3.75,3.2-2.94,8.69-.28,12.28l1.69-2.2c-3.11-1.14-7.13-1.85-9.27,1.39-2.03,3.07-.7,6.78,1.23,9.5,4.17,5.91,10.41,11.8,18.26,10.18l-1.85-1.05c1.16,2.85,3.52,4.81,6.46,5.67,3.48,1.02,7.19,.23,10.52-.95,1.81-.64,1.03-3.54-.8-2.89h0Z"/>
  <path d="M223.48,126.48c2.75-3.07,6.28-5.38,9.97-7.21,5.42-2.69,11.38-4.44,17.43-4.37,6.05,.07,12.17,2.06,16.66,6.11,2.38,2.15,4.25,4.82,5.75,7.66,5.37,10.14,5.98,22.67,1.63,33.28-4.16-.73-4.44-.13-8.29-1.87,1.23-6.38,1.05-12.67-.46-18.99-.57-2.41-2.77-5.88-4.19-7.9-3.27-4.66-11.86-7.69-17.51-6.96-6.17,.8-11.91,4.47-15.23,9.74-2.59-2.86-4.93-5.95-6.97-9.22"/>
  <path d="M214.16,89.16c12.93-4.49,24.41-13.05,32.41-24.15,1.01-1.41,2.1-2.95,3.76-3.45,1.44-.44,3.03,.04,4.26,.91,1.91,1.35,3.09,3.99,2.11,6.11-.36,.78-.97,1.42-1.57,2.04-5.76,5.95-11.83,11.6-18.17,16.92-4.96,4.17-10.33,8.26-16.66,9.62-.68,.15-1.4,.26-2.05,0-1.01-.41-1.46-1.57-1.81-2.61-.62-1.88-1.23-3.75-1.85-5.63"/>
  <path d="M262.79,60.32c-.29,.9-.31,1.92-.39,2.85-.1,1.2-.19,2.41-.33,3.61,0,.08-.04,.29,.01-.08-.01,.07-.02,.14-.03,.21-.02,.12-.04,.24-.06,.36-.04,.27-.09,.53-.16,.79-.05,.2-.11,.39-.17,.59-.1,.31,0,0,.02-.04-.03,.04-.13,.19-.13,.23,0-.04,.27-.27,.14-.18-.03,.02-.15,.15-.13,.13,0,0-.18,.16-.06,.06,.13-.11-.1,.07-.13,.09-.16,.11-.32,.2-.49,.29-.06,.03-.13,.06-.19,.09,.26-.11-.17,.04-.18,.05-.09,.03-.18,.05-.28,.07-.01,0-.25,.05-.08,.02,.18-.03-.11,0-.15,.01-.09,0-.19,0-.28,0-.04,0-.33-.03-.14,0,.17,.03-.05-.01-.07-.02-.09-.02-.18-.05-.26-.07,.26,.08-.09-.05-.14-.08-.06-.03-.11-.07-.16-.11-.13-.09,.13,.15-.05-.05-.15-.16-.3-.31-.44-.47,.18,.21-.1-.13-.16-.22-.11-.16-.22-.32-.34-.48-.56-.78-1.18-1.54-2.06-1.97-.73-.35-1.62-.2-2.05,.54-.39,.66-.19,1.7,.54,2.05,.08,.04,.16,.08,.23,.12,0,0,.33,.24,.16,.1-.14-.12,.06,.06,.09,.09,.06,.06,.12,.12,.18,.18s.11,.13,.17,.19c.16,.19-.2-.28,.04,.05,.11,.16,.23,.32,.34,.48,.54,.77,1.09,1.49,1.89,2.01,1.65,1.08,3.99,.74,5.53-.37,.69-.5,1.15-.99,1.47-1.77,.18-.44,.29-.9,.37-1.36,.25-1.37,.36-2.77,.48-4.15,.05-.66,.1-1.32,.17-1.98,.02-.15,.03-.29,.05-.44,.02-.16,.08-.06-.02,.16,.02-.05,.02-.16,.03-.22,.03-.19,.07-.38,.13-.57,.24-.75-.28-1.67-1.05-1.85-.82-.19-1.59,.25-1.85,1.05h0Z"/>
  <path d="M247.01,62.08c-.99-.54-.95-1.75-.35-2.6,.82-1.17,2.16-1.71,3.37-2.38,2.82-1.56,2.11-5.13,1.87-7.83-.25-2.85-.77-6.38,1-8.88,.69-.98,2.11-1.67,2.63-.23,.45,1.25,.63,2.42,1.6,3.42,.91,.94,2.55,.23,2.56-1.06,.01-2.4,1.41-4.59,3.86-5.09,.74-.15,2.12-.27,2.62,.43s.15,2.05,.09,2.78h3c0,.46-.15,.15,.29,.04,.32-.08,.65-.31,.98-.41,.69-.21,1.23-.3,1.87,.14,1.43,.99,.87,3,.19,4.32-.88,1.71,1.66,3.22,2.59,1.51,.38-.69,1.73-1.43,2.53-1.26,1.02,.22,1,1.75,.8,2.56-.49,2.01-1.45,4.24-2.6,5.97-1.25,1.87-2.3,4.05-4.09,5.48-1.99,1.58-5.14,1.5-7.46,.77-1.85-.58-2.64,2.32-.8,2.89,3.42,1.07,7.56,.78,10.38-1.54,1.24-1.03,2.13-2.28,2.95-3.65s1.79-2.59,2.48-4.02c1.36-2.81,3.35-6.62,1.46-9.63s-6.71-1.9-8.24,.93l2.59,1.51c1.58-3.06,1.7-7.18-1.93-8.78-2.15-.95-7.04,.2-6.98,3.17,.04,1.96,2.83,1.9,3,0,.14-1.57,.27-3.31-.74-4.64-1.13-1.5-3.23-1.81-4.99-1.59-4.1,.52-6.82,4.08-6.84,8.11l2.56-1.06c-.54-.55-.59-1.39-.83-2.09s-.55-1.42-1.09-1.96c-1.27-1.28-3.36-1.38-4.9-.55-3.54,1.9-3.94,6.76-3.71,10.3,.13,1.98,.41,3.96,.39,5.95-.01,1.11-.26,1.25-1.22,1.74-.87,.44-1.7,.95-2.44,1.58-2.51,2.14-3.27,6.44,.05,8.26,1.69,.93,3.21-1.66,1.51-2.59h0Z"/>
  <path d="M261.12,50.88c-.02,.26-.04,.52-.07,.77l.05-.4c-.04,.3-.11,.6-.22,.88l.15-.36c-.07,.17-.16,.33-.28,.48l.23-.3c-.09,.12-.2,.23-.32,.32l.3-.23c-.11,.08-.22,.15-.35,.21l.36-.15c-.11,.05-.22,.08-.34,.09l.4-.05c-.07,0-.13,.01-.2,0-.38-.01-.8,.17-1.06,.44s-.46,.69-.44,1.06,.14,.79,.44,1.06,.65,.43,1.06,.44c1.09,.03,2.08-.65,2.63-1.56,.14-.24,.25-.5,.34-.76,.06-.17,.1-.34,.14-.51,.09-.47,.13-.95,.17-1.43,.02-.37-.18-.81-.44-1.06s-.69-.46-1.06-.44-.79,.14-1.06,.44-.41,.65-.44,1.06h0Z"/>
  <path d="M111.39,227.66c-1.57,.45-4.04,.8-5.2-.69-.83-1.05-.85-2.64-.27-3.81,1.76-3.54,6.68-3.27,9.88-2.56,3.66,.81,7.95,1.91,10.3,5.07,.91,1.22,1.69,3,1.19,4.54-.67,2.03-2.17,.57-3.1-.45-1.12-1.23-3.41,.45-2.36,1.82,1.39,1.8,2.74,3.66,3.89,5.62,.55,.92,.79,1.42-.33,1.81-1.05,.36-2.21,.22-3.19-.26l-.76,2.8c4.67,.06,9.01,3.51,10.1,8.06,.56,2.33,.2,5.07-1.3,7-1.77,2.3-4.97,2.99-7.67,3.48-2.9,.52-5.9,.77-8.84,.86-2.77,.08-5.57-.07-8.23-.9-4.91-1.54-8.9-5.91-8.96-11.22-.07-5.82,4.91-11.09,10.95-10.02v-2.89c-1.17,.17-2.46-.81-2.66-1.96-.22-1.29,.94-2.6,2.19-2.7,1.91-.16,1.93-3.16,0-3-3.07,.26-5.66,2.99-5.14,6.17s3.5,4.8,6.41,4.38c1.45-.21,1.41-2.64,0-2.89-6.51-1.15-12.78,3.02-14.34,9.44s1.56,12.66,6.98,15.92c6.19,3.72,14.2,2.92,21.03,1.93,3.36-.49,7.09-1.28,9.66-3.67,2.29-2.13,3.34-5.46,3.14-8.54-.45-6.83-6.54-12.35-13.32-12.45-1.43-.02-2.12,2.12-.76,2.8,2.49,1.23,7.38,1.44,8.42-1.93,.51-1.64-.43-3.16-1.28-4.49-1.06-1.67-2.2-3.28-3.41-4.85l-2.36,1.82c1.35,1.49,3.17,2.92,5.3,2.26,1.72-.53,2.73-2.26,2.98-3.95,.63-4.21-2.61-8-6.09-9.87-2.12-1.14-4.45-1.83-6.78-2.4s-4.72-.97-7.11-.66c-3.84,.5-7.61,3.14-7.83,7.28-.11,1.94,.67,3.97,2.21,5.18,2.07,1.62,5.03,1.53,7.44,.84,1.85-.53,1.07-3.43-.8-2.89h0Z"/>
  <path d="M264.52,167.48c-3.17-1.97-7.02-.28-8.96,2.58s-2.8,7.09-2.62,10.54c.2,3.92,2.12,6.95,5.4,9.03s7.12,3.16,10.94,3.69c7.58,1.07,16.84,1.58,23.27-3.33,2.81-2.15,4.73-5.16,5.1-8.71s-1.11-7.11-4.11-9.18c-6.73-4.67-18.17-.05-19.76,8-.37,1.89,2.52,2.69,2.89,.8,1.11-5.62,8.65-9.22,13.84-7.05,2.62,1.09,4.19,3.48,4.2,6.31s-1.35,5.22-3.4,7c-4.85,4.22-11.98,4-18,3.58-3.06-.22-6.12-.65-9.05-1.63-2.72-.91-5.93-2.4-7.39-5.01-1.55-2.77-.99-6.32-.17-9.22,.71-2.5,3.07-6.82,6.31-4.82,1.65,1.02,3.15-1.57,1.51-2.59h0Z"/>
  <path d="M263.65,166.6c-1.77-1.05-.97-3.58,.42-4.56,2.44-1.7,5.66-.86,8.26-.09,1.42,.42,2.94,.74,4.3,1.35,1,.45,2.36,1.39,2.17,2.66-.15,1.06-1.42,1.72-2.3,2.09-1.42,.59-2.98,.92-4.5,1.03l.4,2.95c.12-.02,.25-.03,.37-.05,.8-.11,1.24-1.14,1.05-1.85-.24-.87-1.04-1.16-1.85-1.05-.12,.02-.25,.03-.37,.05-1.66,.23-1.28,3.07,.4,2.95,2.96-.22,6.72-.96,8.71-3.39,2.26-2.78,.63-6.36-2.29-7.85-1.46-.74-3.08-1.12-4.64-1.59-1.69-.51-3.38-.98-5.15-1.14-2.97-.27-6.28,.67-8.01,3.25s-1.12,6.26,1.53,7.83c1.66,.99,3.18-1.61,1.51-2.59h0Z"/>
  <path d="M275,170.84c.21,.23,.43,.46,.63,.7,.09,.11,.18,.22,.28,.33,.2,.24-.2-.29-.03-.03,.04,.06,.08,.11,.12,.17,.08,.12,.15,.24,.22,.36,.03,.06,.07,.12,.1,.19,.06,.12,.09,.32-.01-.05,.07,.26,.17,.5,.2,.77l-.05-.4c.03,.24,.03,.48,0,.72l.05-.4c-.02,.12-.04,.23-.07,.35-.02,.06-.04,.11-.05,.17-.04,.15,.18-.36,.06-.14-.04,.07-.24,.36-.06,.14s.03-.04-.02,0c-.05,.05-.1,.1-.15,.14-.6,.51-.57,1.6,0,2.12,.64,.58,1.49,.55,2.12,0,1.09-.94,1.34-2.56,1-3.9s-1.31-2.38-2.22-3.37c-.53-.58-1.59-.58-2.12,0-.57,.62-.57,1.51,0,2.12h0Z"/>
  <path d="M192.82,127.45c-1.93,.14-1.71,3.13,.22,2.99s1.71-3.13-.22-2.99Z"/>
  <path d="M186.7,127.9c-1.93,.14-1.71,3.13,.22,2.99s1.71-3.13-.22-2.99Z"/>
  <path d="M142.29,140.52c-1.93,.14-1.71,3.13,.22,2.99s1.71-3.13-.22-2.99Z"/>
  <path d="M148.77,145.05c-1.93,.14-1.71,3.13,.22,2.99s1.71-3.13-.22-2.99Z"/>
  <path d="M143.03,147.52c-1.93,.14-1.71,3.13,.22,2.99s1.71-3.13-.22-2.99Z"/>
  <path d="M183.74,139.96c-.19-.68-.17-1.35-.03-1.99-1.46-2.23-1.61-5.26-.77-7.86,.2-.63,.5-1.3,.86-1.97,.48-.28,.7-.71,.72-1.15,1.6-2.26,4.05-3.94,6.75-2.47,1.7,.92,3.01-1.78,1.32-2.69-2.45-1.32-5.45-.93-7.72,.57-1.26,.83-2.29,1.98-3.11,3.27-9.75,2.71-19.49,5.49-29.2,8.34-.5,.04-1,.07-1.5,.09-.45,.01-.89,.02-1.34,.01-.22,0-.45,0-.67-.02-.13,0-.26-.01-.39-.02-.03,0-.04,0-.05,0-.01,0-.02,0-.04,0-.33-.02-.62-.01-.91,.11-2.89-.88-6.07-.73-8.87,.58-1.15,.54-2.68,1.25-3.04,2.58-.44,1.64,1.01,2.97,2.6,2.55,.78-.21,1.17-1.2,.91-1.92,0-.02-.03-.04-.04-.06,.15-.09,.29-.18,.44-.26,.37-.19,.76-.34,1.15-.48,.91-.32,1.85-.5,2.82-.55,1.89-.09,3.74,.4,5.36,1.38,1.46,.88,2.68,2.21,3.48,3.71,.64,1.19,1.3,3.02,.16,4.1-.59,.56-.41,1.62,.16,2.12,.66,.57,1.53,.4,2.12-.16,1.64-1.55,1.57-4.11,.83-6.08-.31-.83-.72-1.63-1.21-2.38,2.54,2.15,5.07,4.31,7.64,6.43,2.9,2.39,6.15,4.7,9.97,5.2,3.45,.45,6.91-.62,9.11-3.4,1.34-1.69,1.99-3.58,2.12-5.56,.06,.04,.12,.08,.18,.13-.02-.73,.04-1.44,.2-2.15Zm-5.58,6.5c-3.62,3.25-8.82,.98-12.14-1.49-2.98-2.22-5.8-4.68-8.62-7.12,.41,.09,.8,.19,1.11,.24,1.1,.17,2.2,.35,3.29,.54,2.04,.35,4.08,.75,6.1,1.23,2.03,.48,4.04,1.05,5.99,1.76,1.45,.53,3.99,1.16,4.53,2.82,.15,.45,.42,.73,.75,.86-.3,.42-.63,.81-1.01,1.15Z"/>
  <path d="M192.07,134.55c-.09-.25-.23-.46-.43-.63l-.32-.21c-.24-.12-.5-.17-.77-.15l-.39,.03c-.21,0-.4,.06-.57,.17-.18,.07-.33,.19-.46,.34-.14,.15-.23,.31-.27,.5-.08,.19-.11,.38-.09,.59,.03,.13,.06,.26,.08,.39,.09,.25,.23,.46,.43,.63l.32,.21c.24,.12,.5,.17,.77,.15l.39-.03c.21,0,.4-.06,.57-.17,.18-.07,.33-.19,.46-.34,.14-.15,.23-.31,.27-.5,.08-.19,.11-.38,.09-.59-.03-.13-.06-.26-.08-.39Z"/>
  <g>
    <path d="M144.04,109.58c-2.78,.89-4.24,4.46-3.78,8.6l1.39,.08,5.98,.35-4.67,3.75-1.17,.94c1.99,3.95,5.41,6.27,8.32,5.34,3.42-1.09,4.83-6.24,3.15-11.5s-5.81-8.64-9.23-7.55Z"/>
    <path d="M167.49,102.44c-2.83,.72-4.49,4.21-4.27,8.36l1.39,.16,5.95,.7-4.88,3.47-1.22,.87c1.76,4.06,5.04,6.57,8,5.81,3.48-.89,5.19-5.95,3.82-11.3-1.37-5.35-5.3-8.97-8.77-8.08Z"/>
  </g>
  <path d="M133.16,106.36c-.67-.53-1.53-.44-2.12,.16-2.27,2.32-3.49,5.45-3.58,8.67-.02,.79,.86,1.47,1.61,1.39,.88-.1,1.36-.76,1.39-1.61,0-.02,0-.09,0-.14,0-.02,0-.04,.01-.1,.01-.16,.03-.31,.05-.47,.04-.33,.1-.66,.17-.98,.07-.32,.16-.64,.26-.96,.02-.06,.04-.11,.05-.17l-.05,.15c0-.06,.06-.16,.08-.22,.06-.16,.13-.33,.2-.49,.13-.3,.28-.6,.43-.9,.07-.14,.15-.27,.23-.41,.04-.07,.08-.13,.12-.2,0,0,.08-.13,.11-.17,.02-.02,.03-.04,.03-.05,.04-.06,.09-.13,.14-.19,.1-.14,.21-.28,.32-.42,.22-.27,.46-.53,.7-.78,.55-.56,.45-1.63-.16-2.12Z"/>
  <path d="M179.2,94.66c-.54-.98-1.31-1.87-2.19-2.57-.98-.79-2.08-1.34-3.28-1.7-.35-.11-.85,.04-1.14,.24-.3,.2-.57,.58-.62,.94-.06,.39,0,.82,.24,1.14,.23,.3,.51,.47,.85,.59,.54,.19,1.06,.44,1.55,.75,.45,.31,.86,.67,1.24,1.06,.33,.39,.63,.81,.88,1.26,.17,.31,.61,.56,.94,.62,.37,.07,.84,0,1.14-.24,.3-.23,.56-.56,.62-.94,.06-.42-.03-.77-.24-1.14Z"/>
  <path d="M121.89,65.5c-1.18-3.5-3.59-6.7-7.06-8.16-1.78-.74-3.1,1.95-1.32,2.69,7.19,3.01,6.65,12.22,6.03,18.58-.19,1.91,2.76,2.5,2.94,.58,.44-4.55,.9-9.29-.59-13.71Z"/>
  <path d="M147.44,63.5c-4.95,.06-9.15,4.75-8.84,9.64,.05,.78,.81,1.48,1.61,1.39,.81-.1,1.44-.77,1.39-1.61-.01-.22-.04-.49-.01-.72,0-.03,.01-.06,.02-.11,.01-.11,.03-.22,.05-.33,.04-.24,.09-.47,.16-.71,0-.03,.02-.08,.03-.14,.03-.1,.07-.19,.11-.28,.18-.44,.4-.85,.65-1.26,.02-.03,.03-.05,.06-.08,.07-.09,.13-.18,.2-.27,.15-.19,.31-.38,.47-.56,.08-.08,.15-.16,.23-.24,.03-.03,.13-.12,.17-.16,.14-.12,.28-.24,.43-.35,.19-.14,.4-.28,.6-.41,.11-.07,.23-.13,.34-.2,0,0,0,0,.01,0,.01,0,.02,0,.04-.02,.44-.2,.89-.35,1.36-.48,0,0,0,0,.02,0,0,0,.01,0,.02,0,.11-.02,.22-.04,.33-.05,.26-.03,.52-.05,.78-.05,.79,0,1.48-.84,1.39-1.61-.1-.85-.76-1.4-1.61-1.39Z"/>
  <path d="M178.16,60.28c-4.83-8.28-15.33-12.33-24.49-9.71-1.85,.53-.85,3.36,1.01,2.83,7.94-2.27,16.89,1.5,21.01,8.58,.97,1.67,3.44-.04,2.47-1.7Z"/>
  <path d="M84.49,87.26c-.25-.74-1.17-1.21-1.92-.91-.76,.31-1.18,1.12-.91,1.92,.04,.11,.06,.22,.09,.33,.04,.28,.07,.55,.06,.83-.03,.26-.08,.52-.15,.78-.09,.24-.19,.47-.32,.69-.19,.32-.19,.82-.07,1.16,.12,.34,.42,.7,.75,.84,.36,.16,.79,.22,1.16,.07,.38-.15,.64-.4,.84-.75,.86-1.48,.99-3.36,.44-4.97Z"/>
  <path d="M105.37,80.18c-1.13-2.14-3.33-3.72-5.81-3.58-.81,.04-1.44,.81-1.39,1.61s.79,1.43,1.61,1.39c.07,0,.13,0,.2,0,0,0,.16,0,.2,.01,.1,.01,.19,.03,.29,.05,.01,0,.1,.03,.16,.04,.06,.02,.21,.08,.23,.09,.09,.04,.18,.08,.26,.13,.07,.03,.13,.07,.19,.11,0,0,.15,.1,.17,.12,.18,.14,.34,.29,.51,.44,.03,.02,.07,.07,.09,.08,.06,.06,.11,.13,.16,.19,.14,.18,.27,.37,.39,.56,.05,.09,.11,.17,.15,.26,.01,.02,.02,.04,.03,.05,0,.02,.02,.05,.03,.08,.83,2.01,.57,4.19,.31,6.3-.1,.8,.35,1.6,1.18,1.76,.75,.15,1.66-.37,1.76-1.18,.36-2.85,.66-5.87-.73-8.51Z"/>
  <path d="M162.93,71.52c-.07-.18-.19-.33-.34-.46-.15-.14-.31-.23-.5-.27-.19-.08-.38-.11-.59-.09-.13,.03-.26,.06-.39,.08-.25,.09-.46,.23-.63,.43l-.21,.32c-.12,.24-.17,.5-.15,.77l.06,.75c0,.21,.06,.4,.17,.57,.07,.18,.19,.33,.34,.46,.15,.14,.31,.23,.5,.27,.19,.08,.38,.11,.59,.09,.13-.03,.26-.06,.39-.08,.25-.09,.46-.23,.63-.43l.21-.32c.12-.24,.17-.5,.15-.77l-.06-.75c0-.21-.06-.4-.17-.57Z"/>
  <path d="M125.93,87.6c-1.93,.14-1.71,3.13,.22,2.99s1.71-3.13-.22-2.99Z"/>
  <path d="M188.58,46.61c-.28-.24-.72-.4-1.09-.36-.39,.05-.78,.2-1.03,.52-.25,.31-.39,.68-.36,1.09l.22,2.99c.03,.38,.22,.77,.52,1.03,.28,.24,.72,.4,1.09,.36,.39-.05,.78-.2,1.03-.52,.25-.31,.39-.68,.36-1.09l-.22-2.99c-.03-.38-.22-.77-.52-1.03Z"/>
  <path d="M58.43,99.33c-.81,.1-1.45,.77-1.39,1.61l.44,5.98c.06,.78,.8,1.48,1.61,1.39,.81-.1,1.45-.77,1.39-1.61l-.44-5.98c-.06-.78-.8-1.48-1.61-1.39Z"/>
</svg>