<?xml version="1.0" encoding="UTF-8"?>
<svg id="Layer_2" data-name="Layer 2" xmlns="http://www.w3.org/2000/svg" viewBox="0 0 300 300">
  <defs>
    <style>
      .cls-1 {
        stroke-width: 2px;
      }

      .cls-1, .cls-2 {
        fill: none;
        stroke: #000;
        stroke-miterlimit: 10;
      }

      .cls-2 {
        stroke-width: 4px;
      }
    </style>
  </defs>
  <rect class="cls-2" x="80.01" y="46.59" width="123.2" height="184.12" rx="8.57" ry="8.57"/>
  <line class="cls-2" x1="80.01" y1="132.51" x2="200.08" y2="227.88"/>
  <line class="cls-2" x1="80.01" y1="170.28" x2="160.41" y2="230.71"/>
  <line class="cls-2" x1="80.01" y1="200.5" x2="119.69" y2="230.71"/>
  <line class="cls-2" x1="203.21" y1="116.46" x2="132.22" y2="174.06"/>
  <line class="cls-2" x1="203.21" y1="156.12" x2="157.27" y2="193.89"/>
  <line class="cls-2" x1="203.21" y1="193.89" x2="181.29" y2="213.71"/>
  <path class="cls-2" d="M141.99,47.54h-54.39c-4.85,0-7.88-1.55-5.46-2.79l27.19-13.91,27.19-13.91c2.43-1.24,8.49-1.24,10.92,0l27.19,13.91,27.19,13.91c2.43,1.24-.61,2.79-5.46,2.79h-54.39Z"/>
  <line class="cls-1" x1="141.61" y1="16.38" x2="141.61" y2="47.54"/>
  <line class="cls-1" x1="96.72" y1="47.54" x2="141.61" y2="16.38"/>
  <line class="cls-1" x1="120.73" y1="46.59" x2="141.61" y2="16.38"/>
  <line class="cls-1" x1="160.41" y1="46.59" x2="141.61" y2="16.38"/>
  <line class="cls-1" x1="180.24" y1="46.59" x2="142.66" y2="16.38"/>
  <path d="M129.56,100.34c-1.73-3.74-4.91-6.36-9.2-7.63-4.54-1.34-9.73-1.56-14.21,.07-3.75,1.36-6.89,3.98-8.36,7.38-1.73,3.99-.49,8.65,2.85,11.66,.87,.78,2.22-.43,1.35-1.21-2.62-2.36-3.72-5.89-2.69-9.11,.98-3.05,3.66-5.5,6.82-6.85,3.83-1.63,8.36-1.6,12.39-.64,1.93,.46,3.85,1.11,5.43,2.23,1.46,1.04,2.59,2.39,3.42,3.87,2.21,3.94,1.92,8.54,.82,12.71-.28,1.07,1.56,1.53,1.85,.46,1.12-4.24,1.44-8.83-.46-12.94Z"/>
  <path d="M177.64,95.71c-3.26-2.93-7.79-4.35-12.39-4.15-6.89,.3-13.85,4.57-15.18,10.65-3.91,1-7.93,1.55-11.98,1.68h0s-.1,0-.14,0h-.12s-.01,0-.02,0c-.08,0-.16,0-.24,0-.24,.05-.48,.08-.72,.08-.24,0-.48-.02-.72-.05-.18,.03-.37,.05-.56,.05h-.26c-.24,0-.48-.03-.71-.08-.7-.02-1.4-.04-2.1-.09-.43-.03-.8,.29-.92,.63-.07,.18-.14,.37-.21,.55-.06,.09-.09,.19-.11,.3-.79,2.1-1.59,4.2-2.38,6.3-.32,.85-.66,1.7-1.04,2.53-.34,.62-.67,1.25-.97,1.88-.36,.62-.76,1.23-1.21,1.82-2.38,3.06-6.04,6.66-3.52,10.57,2.59,4.03,8.25,4.06,12.76,3.5,2.61-.32,5.26-.65,7.65-1.69,2.19-.95,4.06-2.48,5.69-4.06,3.53-3.42,6.08-7.6,7.43-12.1,.08,.02,.15,.04,.23,.04,.2,.1,.41,.19,.63,.28,1.11,.45,2.09-1.02,.97-1.48-3.01-1.22-4.91-3.77-5.54-6.63-.66-3.02,.34-6.1,2.59-8.41,5.05-5.2,14.72-6.25,20.72-1.76,3.11,2.33,5.11,5.77,5.23,9.41,.04,1.1,1.95,1.1,1.92,0-.12-3.67-1.88-7.19-4.78-9.79Zm-29.38,27.8c-1.37,1.53-2.93,3.01-4.72,4.16-2.01,1.29-4.27,1.88-6.68,2.24-4.08,.61-9.78,1.54-12.69-1.89-1.9-2.24-.61-4.62,1.03-6.73,.27,.09,.58,.04,.83-.22,.26,.16,.58,.2,.91-.02,6.84-4.52,16.35-5.43,24.06-2.14,.18,.08,.35,.1,.52,.09-.91,1.59-1.99,3.11-3.24,4.5Z"/>
  <path d="M122.11,71.61c-4.86-.19-8.84,3.02-10.02,7.6l2.19,.65,9.41,2.8-9.21,2.09-2.3,.52c1.36,5,5.76,8.85,10.85,9.04,5.98,.23,10.62-4.67,10.37-10.94s-5.3-11.53-11.28-11.76Z"/>
  <path d="M158.39,71.48c-4.86-.19-8.84,3.02-10.02,7.6l2.19,.65,9.41,2.8-9.21,2.09-2.3,.52c1.36,5,5.76,8.85,10.85,9.04,5.98,.23,10.62-4.67,10.37-10.94-.25-6.27-5.3-11.53-11.28-11.76Z"/>
  <path d="M107.42,102.41c-2.02,0-2.02,2.83,0,2.83s2.02-2.83,0-2.83Z"/>
  <path d="M118.54,101.01c-2.02,0-2.02,2.83,0,2.83s2.02-2.83,0-2.83Z"/>
  <path d="M113.89,107.32c-2.02,0-2.02,2.83,0,2.83s2.02-2.83,0-2.83Z"/>
  <path d="M157.84,103.11c-2.02,0-2.02,2.83,0,2.83s2.02-2.83,0-2.83Z"/>
  <path d="M173.35,100.54c-2.02,0-2.02,2.83,0,2.83s2.02-2.83,0-2.83Z"/>
  <path d="M169.73,107.79c-2.02,0-2.02,2.83,0,2.83s2.02-2.83,0-2.83Z"/>
  <path d="M103.23,65.28c-.12-.34-.36-.67-.72-.85-.12-.05-.25-.1-.37-.14-.28-.07-.56-.07-.83,0-1.13,.15-2.2,.7-3.02,1.41-.82,.71-1.45,1.67-1.67,2.68-.08,.38-.06,.75,.16,1.09,.19,.29,.56,.57,.94,.65,.4,.08,.85,.06,1.21-.14,.33-.19,.64-.49,.72-.85,.04-.2,.12-.39,.19-.57,.09-.17,.19-.33,.31-.48,.19-.21,.4-.4,.64-.57,.18-.11,.37-.21,.57-.3,.26-.08,.52-.15,.8-.19,.36-.05,.76-.38,.94-.65,.2-.3,.28-.75,.16-1.09Z"/>
  <path d="M186.63,65.45c-.41-.64-1.43-.92-2.14-.51-.71,.42-1,1.25-.56,1.94,.14,.22,.28,.44,.4,.67,.06,.11,.11,.22,.17,.32,0,0,0,0,0,0,.02,.04,.04,.09,.06,.13,.19,.44,.34,.9,.46,1.36,.06,.23,.1,.47,.15,.7,0,.02,0,.03,0,.04,0,.03,0,.06,.01,.09,.01,.1,.02,.2,.03,.3,.04,.51,.04,1.02,0,1.53-.06,.74,.76,1.45,1.57,1.42,.9-.04,1.5-.62,1.57-1.42,.19-2.28-.44-4.61-1.71-6.58Z"/>
  <path d="M77.6,136.87c-3.66-.82-7.35-4.49-9.91-6.88-2.86-2.67-4.98-5.63-5.53-9.39-1.2-8.3-.95-16.99-1.24-25.4,.36-.04,.72-.08,1.08-.15,3.18-.57,6.63-2.39,7.61-5.35,.81-2.45-.45-4.39-2.37-5.82,1.66-.81,2.97-2.21,3.35-3.95,.61-2.76-1.2-5.38-3.84-6.53,1.39-1.4,3.13-2.54,4.03-4.31,1.3-2.55,.47-5.04-2.1-6.58-2.11-1.27-5.08-1.66-7.4-.59-.86-2.22-2.56-4.18-4.87-5.28-2.45-1.17-5.42-1.24-7.11,1.02-.04,.06-.08,.12-.12,.18-1.26-.79-2.83-1.16-4.66-.8-2.11,.42-3.59,2-4.22,3.8-.05,.13-.07,.26-.1,.4-.71-.3-1.53-.45-2.48-.36-4.46,.41-5.72,4.84-5.38,8.23,.58,5.33,4.92,16,11.66,17.23-.11,.69,.04,1.46,.57,2.3,1.23,1.94,3.56,3.32,5.83,4.36,0,.09,0,.18,0,.27,.28,6.19,.56,12.38,.84,18.57,.24,5.29,0,10.86,2.25,15.85,1.84,4.08,4.99,7.53,8.54,10.5,3.65,3.05,7.83,6.69,12.78,7.79,6.52,1.46,9.31-7.65,2.78-9.1Zm-29.23-48.53c-.36-.3-.71-.62-.97-.99-.25-.35-.32-.47-.29-.74,0-.02,.03-.1,.07-.16,.1-.12,.18-.21,.32-.33,.8-.24,1.63-.6,2.48-1.14,1.36-.85,.57-3.17-1.21-2.59-.77,.25-1.55,.58-2.26,.99-.93,.25-1.9,.24-2.9-.2-1.76-.78-3.04-2.32-4.05-3.79-2.05-3.01-3.71-6.93-4.07-10.29-.18-1.75-.15-5.27,2.61-5.43,1.05-.06,1.73,.63,2.19,1.5,.23,.93,.56,1.84,.89,2.72,.66,1.72,3.45,1.04,3.02-.75-.18-.77-.45-1.6-.8-2.39-.51-1.98-.59-4.23,1.61-4.89,1.49-.45,2.6,.13,3.34,1.09,.09,1.51,.74,3.03,1.42,4.43,.65,1.35,2.9,.58,2.92-.71,.03-1.52-.41-3.12-1.23-4.48,.08-.43,.27-.82,.62-1.16,1.12-1.06,3.17,.15,4.11,.9,1.42,1.13,2.28,2.69,2.5,4.33-.7,1.21-.92,2.63-.39,3.96,.54,1.35,2.48,1.33,3.02,0,.42-1.04,.61-2.14,.59-3.23,.35-.34,.8-.6,1.34-.74,1.57-.41,3.67,.21,4.67,1.38,1.17,1.37-.42,3.13-1.48,4.11-1.31,1.2-2.71,2.28-3.63,3.77-.59,.97,.16,2.08,1.35,2.13,2.02,.09,3.84,2,3.34,3.84-.49,1.79-2.8,2.73-4.65,2.2-1.95-.55-2.69,2.11-.83,2.73,1.93,.65,5.11,2.05,4.65,4.27-.41,1.97-3,3.09-4.92,3.53-.34,.08-.68,.13-1.02,.18-.94-4.04-6.88-4.75-9.3-2.1-1.11-.56-2.16-1.2-3.06-1.95Z"/>
  <path d="M244.47,199.55c-.72-2.16-2.31-4.08-4.43-5.14,3.09-2.83,3.63-7.37,1.61-11.15-1.58-2.95-4.46-5.25-7.81-6.62-1.12-17.03-6.83-36.71-24.97-43.46-6.21-2.31-8.91,6.82-2.78,9.1,7.21,2.69,11.1,9.82,13.36,16.14,2,5.62,3.2,11.39,3.77,17.23-4.31,.93-8.27,3.44-10.14,7.12-1.19,2.33-.88,4.6-.26,7.03,.24,.94,.65,2.05,.46,3.04-.16,.82-.92,1.22-1.66,1.6-1.78,.91-3.77,1.46-5.29,2.74-1.9,1.58-2.03,3.84-1.16,5.93,.54,1.23,1.59,2.21,2.85,2.81-.85,1.18-1.32,2.61-1.21,4.14,.25,3.52,3.09,6.53,6.87,7.35,2.48,.54,5.1,.19,7.23-.96,.9,.96,2.34,1.48,4.01,1.43,3.33-.1,6.1-1.8,7.66-4.15,.8,.92,1.87,1.64,3.32,2,3.77,.95,6.45-1.8,7.64-4.69,.67-1.63,.98-3.39,1.23-5.11,.31-2.12,.4-4.32-.29-6.39Zm-3.53,9.53c-.47,1.58-1.53,4.27-3.86,4-1.79-.2-2.69-1.54-3.18-3.06,.11-1.26-.08-2.55-.66-3.82-.61-1.32-3.25-1.37-3.08,.38,.11,1.14,.28,2.36,.6,3.54-.12,1.04-.54,2.04-1.33,2.89-.7,.76-1.63,1.35-2.65,1.69-.83,.28-2.38,.65-3.22,.2-.14-.07-.24-.17-.32-.27,.07-.08,.15-.15,.22-.23,1.68-2.04,2.24-4.68,1.64-7.11-.05-.81-.35-1.6-.95-2.3,0,0,0,0,0,0,0,0,0,0,0,0-.08-.1-.15-.19-.24-.29-1.23-1.21-3.3,.33-2.46,1.72,.27,.45,.46,.91,.59,1.37-.06,.78-.54,1.65-.84,2.21-.59,1.11-1.11,2.22-1.24,3.46,0,.03,0,.06,0,.09-1.25,.95-2.93,1.48-4.8,1.26-2.46-.29-4.53-1.87-5.09-4.08-.37-1.47,.16-3.11,1.33-4.14,1.23-.08,2.42-.52,3.37-1.41,.85-.79,.32-2.58-1.11-2.42-1.14,.13-2.19,.48-3.13,.98-.13-.02-.27-.03-.4-.06-.82-.2-1.74-.87-1.94-1.32-.54-1.31-.72-2.46,.61-3.38,1.18-.82,2.67-1.27,3.98-1.89,1.53-.72,2.97-1.69,3.45-3.26,.55-1.78-.12-3.66-.54-5.4-.51-2.12-.37-3.82,.98-5.66,1.24-1.7,3.18-3.01,5.25-3.79,.51-.19,1.03-.34,1.55-.47,.14,2.27,.19,4.55,.15,6.83-.1,6.08,10.34,6.08,10.44,0,.03-1.75,.02-3.58-.05-5.45,.74,.4,1.44,.86,2.09,1.39,2.1,1.72,3.72,4.12,3.71,6.74,0,2.23-1.37,4.66-3.73,5.55-1.55,.58-1.48,2.75,.42,2.78,2.64,.05,4.49,2.2,5.08,4.36,.73,2.66,.14,5.75-.64,8.36Z"/>
  <path d="M142.45,252.93c-.09-2.06-.15-4.16-.64-6.18-.89-3.73-3.9-6.66-8.27-6.83-1.99-.08-3.82,.54-5.26,1.59-.04-.17-.05-.35-.09-.52-.27-1.1-.7-2.15-1.23-3.17-.64-1.23-2.11-1.61-3.42-2.13-3.62-1.44-7.99-2.51-11.82-1.35-4.56-8.05-5.66-17.49-4.68-26.68,.77-7.2-11.66-7.15-12.43,0-1.39,12.95,1.37,26.41,9.52,37.06-.44,2.77-.34,5.71,.83,8.29,1.31,2.9,4.2,4.88,7.7,5.09,.47,.03,.93,0,1.39-.04-.17,.55-.37,1.09-.56,1.62-1.32,3.58-4.31,6.42-5.76,9.96-1.36,3.31-.87,7.36,2.09,9.85,2.9,2.45,7.19,3.1,11.02,3.08,3.83-.02,7.83-.66,11.27-2.22,8.25-3.8,10.29-12.85,10.45-20.46,.05-2.32,0-4.65-.1-6.97Zm-11.93,24.98c-2.53,1.14-5.49,1.64-8.29,1.79-2.94,.15-6.21,0-8.84-1.33-2.84-1.43-3.84-4.31-2.97-7.08,1-3.22,3.61-5.79,5.17-8.78,.73-1.39,1.33-2.92,1.69-4.42,.22-.92,.31-1.95-.6-2.6-.77-.55-1.65-.37-2.55-.27-.65,.07-1.93,.07-2.87-.24-3.14-1.03-4.26-3.9-4.32-6.94,.97,1.04,1.98,2.07,3.08,3.04,5.72,5.07,14.52-2.87,8.79-7.95-2.17-1.92-3.98-4.02-5.52-6.24,1.49-.33,3.11-.28,4.59,.01,1.4,.27,2.76,.72,4.06,1.23,.6,.24,1.39,.46,1.93,.81,.47,.3,.6,.75,.8,1.26,.64,1.64,.89,3.36,.76,5.07-.27,.78-.41,1.6-.39,2.44,.04,1.56,2.66,1.98,3.08,.38,.18-.7,.3-1.41,.38-2.12,1.11-2.82,4.95-4.29,7.96-2.28,1.76,1.17,2.33,3.25,2.58,5.11,.3,2.27,.33,4.6,.38,6.88,.17,7.73-.06,18.18-8.89,22.25Z"/>
  <path d="M178.16,217.68c-7.22,8.71-15,20.79-15.86,32.54-.81,.24-1.61,.53-2.38,.87-6.05,2.79-9.09,9.69-8.17,15.59,.2,1.28,.59,2.51,1.22,3.61-.37,.02-.75,.04-1.11,.08-3.27,.32-6.79,1.34-8.6,4.02-1.1,1.63-1.21,3.55-.95,5.39,.29,2.04,.72,4.13,1.61,6.03,3.16,6.71,12.17,7.7,19.26,7.67,4.22-.01,8.62-.49,12.19-2.7,3-1.86,5.15-4.55,6.54-7.56,1.59-3.44,2.26-7.27,2.08-10.99-.04-.83-.25-1.62-.66-2.27,.03-.02,.06-.04,.08-.06,2.55-2.14,3.64-5.21,3.15-8.29-.88-5.6-5.99-9.72-11.75-11.42,.88-9.68,8.23-19.78,14.07-26.83,4.8-5.79-5.99-11.4-10.73-5.67Zm2.79,39.39c2.14,2.32,3.51,5.76,2.02,8.66-.57,1.11-1.5,2.1-2.63,2.77-1.6,.07-3.22,1.04-4.78,.75-1.96-.37-2.78,2.21-.83,2.73,2.06,.56,4.16,.31,6.03-.48,.14,.17,.09,.44,.11,.88,.12,2.73-.26,5.47-1.16,8.07-.86,2.5-2.27,4.88-4.37,6.72-2.44,2.14-5.64,3.11-8.99,3.37-3.27,.25-6.72,.21-9.96-.29-2.72-.42-5.56-1.19-7.6-2.95-2.47-2.12-3.35-5.76-3.47-8.75-.12-2.91,2.01-4.45,4.93-5.09,1.72-.37,3.57-.48,5.41-.39,.08,.05,.14,.1,.22,.15,2.21,1.29,4.89,1.75,7.36,2.49,2.37,.7,4.36,1.7,5.26,3.7,.14,.33,.26,.67,.35,1.02,.42,1.78,3.43,1.03,3.02-.75-.09-.41-.22-.78-.37-1.14-2.01-5.34-8.48-7.75-14.63-8.21-.54-.43-.99-.95-1.31-1.61-1.22-2.54-1.06-5.51-.19-8.11,.99-2.95,3.03-5.65,6.12-7.08,.24-.11,.49-.2,.74-.29,.1,2.89,.66,5.75,1.8,8.5,2.78,6.71,14.8,3.81,11.99-2.99-.76-1.82-1.15-3.71-1.26-5.62,2.38,.83,4.54,2.14,6.19,3.93Z"/>
</svg>