<?xml version="1.0" encoding="UTF-8"?>
<svg id="Layer_2" data-name="Layer 2" xmlns="http://www.w3.org/2000/svg" viewBox="0 0 300 300">
  <defs>
    <style>
      .cls-1 {
        stroke-linecap: round;
      }

      .cls-1, .cls-2 {
        fill: none;
        stroke: #000;
        stroke-miterlimit: 10;
        stroke-width: 3px;
      }
    </style>
  </defs>
  <ellipse class="cls-2" cx="154" cy="69.5" rx="96.5" ry="14"/>
  <path class="cls-2" d="M57.5,69.5c-.61,74.98-5,131.5,97,131.5,96,0,100.61-58.46,96-131.5"/>
  <circle cx="221.75" cy="160.75" r="9.25"/>
  <circle cx="136" cy="187" r="9"/>
  <circle cx="153" cy="164" r="9"/>
  <circle cx="179" cy="184" r="9"/>
  <circle cx="190" cy="155" r="9"/>
  <path d="M272.49,198.59c-.69-2.28-2.23-4.31-4.27-5.44,2.98-2.99,3.5-7.8,1.55-11.8-1.52-3.12-4.3-5.56-7.53-7-.84-14.07-4.39-29.84-14.23-39.48-.03,.25-.08,.49-.15,.75-1.04,3.88-1.53,7.35-3.39,10.67,1.69,2.79,2.94,5.87,3.89,8.79,1.93,5.94,3.09,12.05,3.64,18.23-4.16,.98-7.97,3.64-9.78,7.53-1.14,2.46-.84,4.87-.25,7.44,.23,1,.62,2.17,.44,3.21-.15,.87-.88,1.29-1.6,1.69-1.71,.96-3.63,1.55-5.1,2.89-1.83,1.67-1.96,4.07-1.12,6.28,.52,1.3,1.54,2.33,2.75,2.97-.82,1.25-1.27,2.76-1.17,4.38,.24,3.73,2.98,6.9,6.62,7.78,2.39,.57,4.92,.2,6.97-1.02,.87,1.01,2.26,1.57,3.87,1.51,3.21-.11,5.88-1.9,7.39-4.39,.78,.97,1.81,1.73,3.21,2.12,3.64,1,6.22-1.9,7.36-4.96,.65-1.73,.94-3.58,1.19-5.4,.3-2.24,.39-4.57-.28-6.76Zm-3.41,10.08c-.46,1.67-1.48,4.52-3.72,4.23-1.72-.22-2.6-1.63-3.07-3.23,.11-1.33-.08-2.7-.64-4.04-.59-1.4-3.13-1.45-2.97,.4,.11,1.2,.27,2.5,.58,3.74-.11,1.1-.52,2.16-1.28,3.06-.67,.8-1.57,1.43-2.56,1.79-.8,.29-2.29,.69-3.11,.21-.13-.08-.23-.18-.31-.28,.07-.08,.15-.16,.21-.24,1.62-2.16,2.16-4.94,1.58-7.52-.05-.86-.33-1.69-.92-2.44,0,0,0,0,0,0,0,0,0,0,0,0-.08-.1-.14-.21-.23-.3-1.19-1.28-3.18,.35-2.37,1.82,.26,.48,.44,.96,.57,1.45-.06,.82-.52,1.74-.81,2.33-.57,1.17-1.07,2.35-1.19,3.66,0,.03,0,.06,0,.09-1.21,1.01-2.82,1.57-4.63,1.33-2.37-.31-4.37-1.98-4.91-4.32-.36-1.56,.15-3.29,1.28-4.37,1.18-.09,2.33-.55,3.25-1.49,.82-.84,.3-2.73-1.07-2.56-1.1,.14-2.12,.5-3.02,1.04-.13-.02-.26-.03-.39-.07-.79-.22-1.68-.92-1.87-1.4-.52-1.38-.69-2.6,.59-3.57,1.14-.87,2.57-1.34,3.84-1.99,1.47-.76,2.86-1.79,3.33-3.45,.53-1.88-.12-3.87-.52-5.71-.49-2.24-.36-4.04,.94-5.99,1.2-1.8,3.06-3.18,5.06-4,.49-.2,.99-.36,1.5-.5,.13,2.4,.18,4.81,.14,7.22-.1,6.43,9.97,6.43,10.07,0,.03-1.86,.02-3.78-.04-5.76,.71,.43,1.39,.91,2.02,1.47,2.02,1.81,3.58,4.35,3.58,7.13,0,2.36-1.32,4.93-3.6,5.87-1.49,.61-1.43,2.9,.4,2.94,2.55,.05,4.33,2.32,4.9,4.61,.7,2.82,.14,6.08-.62,8.85Z"/>
  <path d="M139.97,163.56c2.38-.96,2.13-4.08,1.74-6.16-.82-4.45-3.92-8.59-8.03-10.51-5.59-2.53-13.25-1.51-17.13,3.39-2.03-3.73-4.95-7.37-9.55-7.11-5.08,.28-7.93,4.34-8.77,9.01-.19,1.09-.31,2.18-.37,3.28-5.33-.41-11.95-.78-16.11-4.51-4.67-4.18-4.24-11.2-3.69-16.88,.74-7.62-11.17-7.57-11.91,0-.87,8.95,.22,18.94,7.24,25.35,6.75,6.17,16,7.29,24.74,7.97,.25,.02,.5,.02,.74,.02,.76,3.99,2.3,8.18,6.75,9.03,3,.57,6.6-.22,9.18-1.88-.35,.94-.4,2-.05,3,1.12,3.23,4.83,4.23,7.88,3.72,2.93-.49,6.31-1.68,7.62-4.51,2.51,1.03,5.48-.48,7.36-2.31,2.52-2.45,4.49-5.36,3.27-8.99-.23-.69-.56-1.31-.92-1.9Zm-4.75,9.04c-1.26,1.17-3.25,2.03-4.37,.9-.1-1.64-.71-3.23-1.51-4.72-.28-.83-.68-1.6-1.39-2.26-1.21-1.11-3.31,.33-2.36,1.82,.36,.56,.73,1.14,1.07,1.74,.21,.69,.3,1.44,.44,2.13,.15,.75,.38,1.49,.71,2.18-.23,1.89-1.61,2.7-3.39,3.31-1.84,.63-4.2,1.29-5.93,.01-.57-.42-1.07-1.08-.97-1.82,.08-.65,.57-1.26,1.24-1.26,1.48-.01,2.05-2.04,.76-2.8-.53-.31-.95-.76-1.24-1.28,.02-.06,.05-.11,.07-.17,.21-.65,.22-1.27,.15-1.95-.03-.28-.07-.56-.1-.84-.02-.15,.03-.84-.06-.54,.5-1.61-1.95-2.68-2.74-1.16-.73,1.41-.89,2.99-.56,4.44-.3,.44-.71,.84-1.13,1.18-1.82,1.48-4.57,2.18-6.89,2.05-3.72-.21-4.74-3.93-5.28-7.11,3.11-2.25,2.81-8.01-.89-10.18,.02-.59,.04-1.17,.1-1.76,.27-3.06,1.22-6.96,4.5-8.06,5.14-1.72,7.92,3.84,9.71,7.65,.45,.97,2.15,1,2.59,0,2.36-5.29,9.4-6.94,14.44-4.65,2.78,1.31,5.02,3.73,6.07,6.62,.27,.74,.49,1.5,.61,2.28,.08,.5,.39,1.83,.05,2.22-.38,.44-1.99-.37-3.32-1.14-.49-.31-.98-.6-1.48-.87-.11-.06-.21-.12-.28-.16-1.71-.9-3.21,1.66-1.51,2.59,2.19,1.2,4.66,2.6,5.62,5.06,1.07,2.74-.82,4.77-2.72,6.52Z"/>
  <path d="M114.03,198.66c.73,.11,1.45,.26,2.17,.45,.16,.04,.3,.09,.45,.14,.33,.02,.66,.04,1.01,.05,.13,0,.26,.03,.38,.04-1.46-3.63-5.72-3.92-8.57-2.04,1.53,.4,3.05,.86,4.56,1.36Z"/>
  <path d="M106.26,196.07c-.12,.16-.23,.32-.32,.46-2.25,3.39-4.24,6.74-7.43,9.34-6.22,5.07-13.79,8.92-21.06,12.21-.18-.18-.36-.36-.56-.53-1.68-1.39-3.92-2.02-6.09-1.76-2.42,.29-4.3,1.65-5.44,3.48-1.31-1.57-3.06-2.82-4.97-3.57-4.58-1.81-9.51-.27-13.1,2.88-8.94,7.85-7.09,21.64-4.9,32.01,1.16,5.5,2.97,11.28,6.65,15.66,3.96,4.71,9.89,5.48,15.63,6.4,3.15,.5,6.31,.94,9.48,1.3,2.81,.32,5.7,.48,8.17-1.13,4.12-2.67,5.6-8.09,5.61-12.74,.02-5.74-2.26-11.62-6.94-15.13-2.81-2.11-6.27-3.21-9.71-3.11,.12-.26,.26-.51,.43-.74,.21-.27,.48-.49,.73-.72,1.2,.55,3.28,.14,4.24-.09,1.62-.39,3.11-1.3,3.9-2.8,.86-1.63,.86-3.58,.65-5.36-.12-1.03-.25-2.07-.38-3.11,.78-.03,1.58-.21,2.41-.58,9.35-4.22,20.44-9.6,27.15-17.62,3.39-4.06,6.13-8.76,9.03-13.16,.09-.13,.17-.26,.25-.39-4.52-.08-9.03-.35-13.44-1.21Zm-28.58,40.41c-.82,.96-2.48,1.16-3.66,1.11-.57-.02-1.25-.66-2.14-.4-1.31,.38-2.54,1.89-3.14,3.04-.41,.79-.65,1.66-1.2,2.22-.69,.21-1.37,.47-2.03,.79-.67,.33-.84,1.06-.66,1.69,.1,.65,.56,1.19,1.42,1.1h0c1.06-.1,1.98-.4,2.75-.92,3.23-.8,6.76-.01,9.56,1.8,3.6,2.33,5.66,6.48,6.2,10.65,.5,3.89-.04,8.73-2.87,11.71-1.61,1.69-3.63,2.03-5.89,1.87-2.73-.2-5.47-.61-8.18-1.01-2.67-.4-5.35-.82-7.99-1.35-2.42-.49-4.82-1.16-6.78-2.73-3.61-2.9-5.45-7.6-6.71-11.91-1.46-4.98-2.31-10.24-2.64-15.42-.31-4.81,.03-9.89,2.52-14.15,2.18-3.72,6.2-7.04,10.75-6.63,3.07,.27,6.01,2.31,7.16,5.1-.09,1.31,.12,2.67,.69,3.95,.67,1.5,2.67,.54,2.8-.76,.13-1.33-.06-2.6-.47-3.79,.52-2.1,2.44-3.78,4.8-3.7,1.32,.04,2.3,.5,3.05,1.21-1.93,2.69-.31,6.68,2.71,8.33,.26,1.66,.54,3.34,.62,5.01,.05,1.05,.07,2.35-.66,3.2Z"/>
  <path d="M252.45,266.19c-1.02-4.78-4.12-9.11-8.24-11.72-4.77-3.02-10.61-3.2-15.66-.76-.68,.33-1.33,.7-1.96,1.12-.47-.77-1.13-1.23-1.91-1.44,.75-1.84,.73-3.91-.13-5.84-1.23-2.76-3.88-4.89-6.79-5.67-1.14-.3-2.3-.42-3.46-.43,.02-.17,.04-.33,.05-.5,.54-12.04,1.77-24.29,1.33-36.34-.37-10.3-3.1-20.42-10.63-27.82-5.47-5.38-13.89,3.04-8.42,8.42,6.71,6.6,7.34,16.03,7.15,24.96-.23,10.26-.88,20.53-1.34,30.78-.05,1.11,.16,2.05,.55,2.83-2.43,.8-4.8,1.87-6.55,3.72-3.57,3.89-4.09,9.09-4.41,14.14-.16,2.48-.46,4.88-.8,7.34-.32,2.28-.34,4.54,.03,6.81,.77,4.68,3.68,8.72,8.01,10.75,5.62,2.63,12.4,2.01,18.44,2.15,3.48,.08,6.96,.16,10.43,.25,3.16,.07,6.36,.17,9.46-.55,4.81-1.11,9.04-4.18,11.86-8.19,2.84-4.04,4.02-9.12,2.99-13.97Zm-4.72,11.13c-2.14,3.67-5.66,6.57-9.73,7.82-2.58,.8-5.28,.85-7.97,.8-2.95-.05-5.9-.14-8.85-.21-2.98-.07-5.96-.14-8.94-.21-2.79-.07-5.64-.03-8.39-.62-4.23-.91-7.84-3.54-9.18-7.76-1.46-4.56-.08-9.11,.24-13.71,.33-4.72,.25-10.13,3.65-13.84,1.78-1.88,4.38-2.78,6.91-3.49,2.47,1.12,5.83,.55,7.63-1.69,1.91-.15,3.81,.06,5.49,.98,2.33,1.28,4.54,4.11,3.36,6.88-.21,.49-.51,.91-.86,1.31-2.59,.75-5.3,2.44-6.67,3.45-1.26,.94-.6,3.3,1.16,2.74,2.42-.77,5.02-1.69,6.95-3.4,.62-.18,1.32-.3,1.62,.22,.02,.03,.03,.06,.04,.1-1.41,1.31-2.62,2.85-3.52,4.55-.34,.3-.65,.62-.92,.98-1.17,1.58-1.55,3.49-.65,5.29,.54,1.08,2.55,.92,2.74-.36,.23-1.54,.73-3.01,1.44-4.36,.83-.69,1.74-1.29,2.18-1.75,.77-.79,1.36-1.78,1.62-2.84,3.75-3.04,8.91-4.26,13.63-2.23,3.88,1.68,6.97,5.15,8.34,9.14,1.4,4.1,.86,8.46-1.31,12.19Z"/>
  <path d="M96.25,110.31c-1.32-.63-2.75-.89-4.15-1.28-1.58-.45-2.69-1.17-3.64-2.52-1.79-2.56-3.28-5.06-6.55-5.81-3.49-.8-7.22,.26-10.44,1.59-2.83,1.17-5.7,3.37-6.2,6.46-.02,.05-.04,.1-.05,.16-.81,3.69-.91,7.67,.13,11.34,.96,3.38,3.51,4.78,6.84,5.14,3.95,.42,8.01,.46,11.97,.3,3.48-.14,7.15-.34,10.34-1.85,2.75-1.29,4.8-3.71,5.22-6.76,.39-2.83-.86-5.5-3.48-6.76Zm-2.22,10.38c-2.34,1.43-5.21,1.71-7.89,1.89-3.29,.22-6.59,.2-9.89,.06-2.46-.11-6.61,.31-7.77-2.47-1.07-2.56-1.1-5.74-.69-8.58,.31-.28,.52-.66,.46-1.07-.4-3.01,2.35-4.69,4.8-5.64,2.31-.89,4.89-1.69,7.4-1.4,2.67,.31,3.85,2.2,5.22,4.26,1.43,2.15,3.13,3.49,5.63,4.2,1.98,.56,4.9,.8,5.43,3.23,.48,2.21-.86,4.41-2.7,5.54Z"/>
  <path d="M243.26,109.47c-1.79-1.94-5.23-2.19-7.69-2.35-6.13-.42-12.19,1.29-18.11,2.63-3.04,.69-6.11,1.32-9.22,1.51-3.29,.21-6.56-.11-9.79-.71-3.26-.6-6.46-1.45-9.68-2.24-2.91-.71-6.21-1.78-9.14-.61-2.1,.84-3.7,3.06-3.45,5.37,.32,2.94,3.19,3.74,5.66,4.19,6.06,1.1,13.25,1.86,17.99,6.23,3.52,3.25,6.06,9.54,2.62,13.74-.98,1.2,.21,2.83,1.36,2.61,.18,.21,.41,.36,.69,.4,11.35,1.58,23.57-1.02,31.77-9.46,3.66-3.77,6.42-8.54,7.53-13.7,.5-2.3,1.26-5.66-.52-7.6Zm-2.16,5.7c-.2,1.23-.51,2.45-.9,3.63-.77,2.32-1.91,4.5-3.3,6.5-6.88,9.91-19.51,13.54-31.07,12.09,1.6-3.16,1.49-6.87,.1-10.24-1.89-4.57-5.58-7.64-10.07-9.52-2.48-1.04-5.07-1.71-7.7-2.24-2.54-.52-5.37-.65-7.81-1.52-.89-.32-1.43-.89-1.11-1.85,.4-1.16,1.5-1.7,2.65-1.81,1.43-.15,2.86,.23,4.23,.55,1.54,.36,3.07,.75,4.6,1.13,5.87,1.45,11.87,2.8,17.95,2.34,5.77-.43,11.32-2.12,16.97-3.25,2.71-.54,5.45-.94,8.22-.93,1.37,0,2.74,.1,4.09,.36,.94,.18,2.73,.33,3.23,1.3,.47,.9,.09,2.5-.07,3.46Z"/>
  <path d="M165.7,95.33c-2.2-4.27-6.84-5.7-11.35-5.77-2.63-.04-5.25,.26-7.88,.27-2.82,.01-5.63-.17-8.44-.36-5.48-.37-11-.73-16.44,.24-2.86,.51-5.63,1.41-8.27,2.61-2.32,1.06-4.68,2.37-6.27,4.42-1.4,1.8-2.01,4.11-1.25,6.31,.44,1.27,1.22,2.31,2.26,2.97-.88,1.73,0,3.73,1.67,4.63,2.21,1.2,4.57-.16,6.56-1.16,4.62-2.33,9.77-3.6,14.94-3.75,5.38-.15,10.44,1.38,15.72,2.08,5.13,.68,10.56,.07,15.21-2.34,3.92-2.03,5.63-6.1,3.55-10.15Zm-4.41,7.19c-3.57,2.16-8.18,2.82-12.28,2.52-4.44-.32-8.73-1.7-13.16-2.14-4.66-.46-9.43-.02-13.94,1.23-2.25,.62-4.44,1.46-6.54,2.47-1.01,.49-2.03,1.19-3.14,1.43-.31,.07-1.9,0-1.5-.68,.12-.2,.18-.41,.21-.6,1.41-.37,1.24-2.83-.49-2.95-1.33-.09-1.99-1.67-1.98-2.83,0-1.67,1.34-3.06,2.61-3.98,3.3-2.41,7.55-3.76,11.54-4.44,4.61-.78,9.34-.5,13.98-.19,4.53,.3,9.02,.58,13.56,.33,3.7-.2,8.33-.69,11.31,2.01,1.1,1,2.03,2.36,2.19,3.87,.18,1.75-.92,3.07-2.35,3.93Z"/>
  <path d="M230.06,89.37c-2.21-.49-4.61-.25-6.86-.25-2.52,0-5.03,0-7.55,.01-1.02,0-1.5,.85-1.44,1.64-2.59,1.22-5.65,1.37-8.46,1.21-4.29-.25-8.54-1.15-12.84-.55-3.08,.42-6.49,2.05-6.98,5.47-.48,3.3,2.08,6.36,5.03,7.5,3.85,1.48,8.15,.31,12.12,.15,4.44-.17,8.88,.2,13.31,.49,4,.26,8.35,.72,12.17-.79,2.98-1.17,5.77-3.56,6.35-6.86,.61-3.48-1.26-7.22-4.87-8.02Zm-3.57,12.42c-3.4,.92-7.12,.45-10.58,.22-3.78-.25-7.56-.55-11.34-.5-3.52,.05-7.19,.97-10.7,.53-2.26-.28-5.92-2.34-4.85-5.19,1.03-2.75,5.53-2.69,7.86-2.62,7.09,.19,14.6,2.39,20.82-2.09,3.12,0,6.24-.03,9.36-.02,1.37,0,2.92-.01,3.94,1.05,.79,.83,1.13,2.05,1.05,3.18-.21,2.88-3.01,4.74-5.56,5.43Z"/>
  <path d="M142.67,108.92c-4.59-.83-8.83,2.01-10.61,6.66l1.99,.97,8.52,4.16-9.04,.99-2.26,.25c.57,5.43,4.19,10.03,8.99,10.9,5.64,1.02,10.75-3.51,11.42-10.12,.67-6.61-3.36-12.79-9-13.81Z"/>
  <path d="M172.88,108.83c-4.55-1.01-8.9,1.68-10.86,6.25l1.95,1.04,8.36,4.49-9.08,.64-2.27,.16c.36,5.44,3.8,10.19,8.56,11.24,5.6,1.24,10.88-3.1,11.8-9.67,.92-6.58-2.87-12.91-8.47-14.15Z"/>
  <path class="cls-1" d="M118.5,132.5c4.99,2.12,43,32,72-3"/>
  <path class="cls-1" d="M108.5,132.5c5.61,2.67,12.53,.47,13-4"/>
</svg>