<?xml version="1.0" encoding="UTF-8"?>
<svg id="Layer_2" data-name="Layer 2" xmlns="http://www.w3.org/2000/svg" viewBox="0 0 300 300">
  <defs>
    <style>
      .cls-1 {
        stroke-width: 3px;
      }

      .cls-1, .cls-2 {
        fill: none;
        stroke: #000;
        stroke-miterlimit: 10;
      }

      .cls-2 {
        stroke-width: 4px;
      }
    </style>
  </defs>
  <line class="cls-2" x1="102.29" y1="26.18" x2="60.3" y2="208"/>
  <line class="cls-2" x1="202.24" y1="34.44" x2="161.24" y2="216.17"/>
  <ellipse class="cls-2" cx="152.26" cy="30.31" rx="12" ry="50.5" transform="translate(110.24 179.77) rotate(-85.55)"/>
  <path class="cls-2" d="M61.22,206.92c-6.19,2,16.41,20.22,41.06,24.88,30.43,5.76,60.96-15.79,58.96-15.63"/>
  <line class="cls-2" x1="103.13" y1="24.11" x2="202.24" y2="34.44"/>
  <path d="M148.55,222.1c-.59,.53-1.29,.96-2.03,1.16-.23,.06-.46,.15-.68,.24-.18,.08-.37,.16-.56,.23-.52,.24-1.12,.39-1.79,.44-.02,0-.05,0-.07,0-.1,0-.2,.02-.3,.02-.03,0-.07,0-.1,0-2.06,7.04-6.54,12.97-11.66,18.46-.15-.06-.31-.11-.48-.12-2.66-.22-5.43-.1-8.03,.48-1.64,.37-3.18,1.03-4.21,2.17-.54-.61-1.23-1.07-2.14-1.22-2.36-.38-4.55,1.28-5.59,3.06-.31,.54-.53,1.1-.64,1.68-.61-.19-1.3-.26-2.06-.14-17.48,2.73-28.4-13.18-29.94-26.78-.05-.46-.2-.87-.39-1.24-.84-.19-1.64-.5-2.38-.99-.51-.34-.91-.75-1.26-1.19-2.05-.15-4.06,.9-3.79,3.26,1.06,9.39,4.48,18.86,12.12,25.65,6.93,6.16,16.34,9.35,25.93,8.34,.22,1.73,.6,3.48,1.81,4.89,.42,.49,.92,.87,1.46,1.17-.59,.42-1.2,.82-1.83,1.19-.89,.52-1.42,1.21-1.67,1.94-.16-.1-.32-.22-.48-.31-1.69-1.01-3.65-1.3-5.64-1.35-1.77-.04-3.82-.15-5.32,.85-1.65,1.1-1.84,3.01-1.66,4.71,.01,.11,.03,.21,.04,.32-2.08,.54-4.01,1.5-5.63,2.79-2.34-2.07-5.35-3.56-8.62-4.08-7.66-1.22-15.85,2.43-19.74,8.44-4.29,6.63,.47,14.28,7.49,17.45,3.88,1.75,8.17,2.45,12.45,2.85,4.74,.44,9.57,.73,14.31,.23,4.74-.5,9.43-1.91,13.14-4.67,3.22-2.4,5.66-6.2,4.75-10.05,.12,.24,.35,.43,.72,.52,6.81,1.66,13.72-1.1,18.79-5.11,2.68-2.12,5.09-4.69,6.19-7.79,1.18-3.32,.97-6.96,.93-10.4-.04-3.98-.29-7.99-1.59-11.83-.12-.35-.38-.57-.68-.68,5.63-6.14,10.55-12.78,12.8-20.61,.54-1.87-.52-3.31-2.01-4Zm-37.71,33.49c-.01-.11-.04-.22-.08-.32,2.37-.69,2.75-3,1.77-4.73,.06-.18,.09-.36,.04-.56-.01-.06-.03-.12-.04-.18,0-.02,0-.03,0-.05,0-.1,0-.21,0-.31,0-.04,.03-.34,.02-.27,0-.02,0-.03,.01-.06,.01-.07,.03-.13,.05-.2,.06-.22,.14-.45,.25-.66,.03-.04,.08-.15,.09-.16,.06-.09,.11-.19,.17-.28,.32-.47,.47-.64,.92-1.02,.36-.31,.68-.51,1.1-.67-.06,.02,.24-.07,.3-.08,.01,0,.16-.03,.2-.04,.11,0,.22,0,.33,0,0,0,0,0,.01,0,.06,.01,.11,.02,.17,.04,.05,.01,.11,.04,.14,.05,.09,.05,.18,.09,.27,.14,.01,0,.02,.01,.03,.02,0,0,.02,.02,.03,.03,.08,.07,.15,.15,.23,.22,.02,.02,.04,.04,.06,.07,0,.01,0,.01,.03,.03,.05,.08,.11,.15,.16,.23,.07,.11,.13,.21,.18,.32,.01,.02,.04,.09,.06,.14,.16,.39,.27,.79,.35,1.19,.11,.55,.85,.92,1.43,.77,.64-.17,.96-.7,.85-1.28-.04-.2-.09-.41-.15-.61,.11-.11,.21-.25,.28-.4,.6-1.28,2.47-1.75,3.82-2.01,1.84-.35,3.73-.46,5.61-.39-3.03,3.12-6.15,6.18-9.23,9.26-2.15,2.15-4.26,4.42-6.63,6.4-.19-.07-.37-.15-.55-.25-1.64-.89-2.08-2.8-2.28-4.39Zm1.71,24.2c-1.08,.17-2.47,.04-3.12-.86-.82-1.14-2.88-.12-2.05,1.02,.81,1.13,2.14,1.76,3.58,1.96,0,.04,0,.07,.02,.11,.97,3.09-1,6.13-3.5,8.13-2.78,2.23-6.36,3.51-9.98,4.16-4.16,.74-8.44,.63-12.65,.35-3.82-.25-7.67-.57-11.36-1.58-3.48-.95-6.7-2.55-8.98-5.15-1.98-2.26-3.19-5.32-2.41-8.19,.83-3.02,3.48-5.66,6.28-7.37,2.74-1.67,5.98-2.72,9.31-2.76,3.92-.05,7.76,1.47,10.5,3.94,0,.24,.1,.48,.32,.67,.18,.15,.41,.26,.66,.3,1.71,1.89,2.82,4.21,2.94,6.76,.07,1.35,2.41,1.41,2.35,.05-.14-2.91-1.37-5.67-3.31-7.93,.11-.09,.22-.18,.33-.26,.12-.09,.23-.17,.35-.25,.05-.04,.11-.07,.16-.11,0,0,0,0,0,0,.01,0,.01,0,.04-.02,.25-.15,.5-.31,.75-.45,.5-.28,1.02-.52,1.55-.74,.13-.05,.26-.1,.39-.15,.02,0,.05-.02,.07-.02,.06-.02,.13-.04,.19-.06,.24-.08,.48-.14,.72-.21,.31,.73,.81,1.37,1.65,1.75,1.35,.61,2.58-1.19,1.22-1.8-.93-.42-.99-1.6-1.07-2.43-.09-.94-.23-2.29,.72-2.93,1-.67,2.7-.47,3.88-.44,1.46,.04,2.92,.18,4.19,.88,.81,.45,1.6,.99,2.35,1.58,.42,.71,1.06,1.3,1.84,1.62,.6,.58,1.17,1.17,1.7,1.76,1.55,1.73,3.06,4.04,2.98,6.33-.04,1.43-1.15,2.12-2.63,2.35Zm24.81-12.78c-1.05,5.76-6.75,10.29-12.44,12.57-2.82,1.13-5.94,1.63-8.98,1.15,.04-.03,.08-.05,.11-.07,2.85-2.25,1.1-6.54-.54-8.96-.6-.88-1.3-1.71-2.04-2.49,.1-.05,.2-.1,.31-.16,2.56-1.48,4.77-3.26,6.86-5.16,.51,.17,1,.36,1.5,.59,1.66,.76,3.67,1.78,3.98,3.59,.23,1.34,2.5,.82,2.27-.51-.3-1.75-1.75-3.05-3.33-3.99-.84-.5-1.75-.93-2.68-1.31,.96-.92,1.9-1.87,2.85-2.81,3.57-3.56,7.19-7.09,10.67-10.73,.13-.14,.26-.27,.39-.41,.96,3.01,1.28,6.12,1.36,9.24,.09,3.12,.28,6.38-.28,9.47Z"/>
  <path d="M81.54,94.07c6.34,1.15,7.89-8.73,1.56-9.88-11.06-2-24.67-.39-32.51,8.54-8.65,9.85-3.82,21.54,2.38,31.12,.43,.66,.92,1.15,1.46,1.49-1.46,1.73-2.53,4.04-1.01,6.1,.76,1.03,1.88,1.5,3.09,1.67-.02,.09-.02,.18-.03,.27-1.56-.03-3.06,.56-4.07,2.07-1.77,2.63-.41,6.14,1.76,8.06,2.03,1.8,4.33,2.39,6.61,2.19,.01,.25,.06,.51,.15,.78,.99,2.84,5.48,3,7.87,2.26,1.36-.42,2.54-1.34,3.22-2.59,.94-1.73,.91-3.94,1.4-5.82,1-3.8,2.7-7.45,2.82-11.43,.05-1.68,.08-4.23-1.71-5.08-.56-.27-1.18-.29-1.82-.18,.38-3.6-1.78-7.28-5.81-8.04-2.56-.49-4.54,.39-6.14,1.91-3.95-6.17-8.12-14.04-1.02-19.74,5.92-4.75,14.7-4.97,21.8-3.69Zm-13.25,51.65c-1.02,.5-2.28,.46-3.36,.23-.28-.06-.58-.13-.84-.25-.12-.06-.23-.15-.28-.14,.13-.33,1.07-.95,1.53-1.26,1.87-.97,3.59-2.33,4.97-3.84-.14,.59-.28,1.19-.38,1.8-.22,1.35-.28,2.8-1.65,3.47Zm-2.82-27.26c4.04-.09,5.54,4.63,3.13,7.45-1.09,1.28,.7,3.24,2.04,2.16,.64-.51,1.38-.79,2.04-1.25,.12-.05,.25-.09,.37-.14-.05-.4-.05-.47,.02-.2,.16,.36,.14,.86,.17,1.24,.11,1.61-.18,3.23-.58,4.79-.56,2.21-1.35,4.35-1.98,6.54-.28-.89-1.42-1.56-2.33-.85-1.64,1.27-3.29,2.54-4.93,3.8-.01,.01-.03,.02-.04,.03-1.8,.81-3.78,1.04-5.72,.18-1.47-.66-2.83-1.93-3.03-3.6-.13-1.05,.28-1.94,1.36-2.21,.48-.12,.95-.08,1.39,.06,.57,.66,1.39,1.16,2.45,1.33,1.48,.23,2.33-1.7,1.18-2.64-.48-.4-1.02-.74-1.6-1.02-.14-.43,.04-.93,.63-1.18,1.53-.63,1.01-3.15-.71-2.89-.92,.14-2.58,.47-3.36-.24-.32-.3-.37-.66-.27-1.05,.69,.34,1.63,.24,2.1-.63,.52-.99,1.03-1.99,1.55-2.99,1.49-.96,2.58-2.64,2.55-4.5,.86-1.19,1.97-2.16,3.55-2.19Z"/>
  <path d="M236.11,63.8c2.27-.72,3.78-2.65,4.61-4.81,1.14-2.95,1.58-7.94-1.17-10.16,2.41-2.7,2.38-6.91-.67-9.49-.9-.76-2.16-1.32-3.27-1.21-1-2.49-2.92-4.89-5.68-5.43-2.19-.43-4.3,.51-5.28,2.31-1.26-.97-2.75-1.63-4.4-1.79-2.83-.28-5.1,1.6-5.78,4.24-.17,.64-.22,1.28-.21,1.91-.22-.1-.44-.18-.68-.26-2.4-.73-5.29,.02-6.55,2.25-1.45,2.56-.75,6.22-.02,8.92,.74,2.74,1.89,5.73,4.17,7.59,.09,.07,.17,.13,.26,.2-1.56,1.2-3.17,2.75-3.52,4.68-.37,2.02,.64,4.09,2.12,5.45,1.92,1.76,4.54,2.33,7,2.85,.33,.07,.59,.01,.8-.12-.67,2.15-1.36,4.3-2.1,6.43-1.09,3.18-1.95,7.12-4.23,9.69-4.5,5.07-12.57,4.08-18.65,3.54-3.64-.33-5.09,3.42-3.9,5.95,.14,1.36,.89,2.68,2.44,3.42,7.75,3.72,18.74,.43,25.58-3.91,7.56-4.79,10.98-14.68,13.67-22.96,1.15-.17,2.28-.56,3.38-1.32,2.1-1.46,3.15-4.22,2.55-6.72-.11-.44-.27-.86-.47-1.25Zm-4.73,6.57c.1-1.4-.4-3.01-1.68-3.71-1.78-.97-3.36-1.72-5.34-2.19-2.07-.49-4.59,.09-5.28,2.4-.15,.49-.3,.97-.45,1.45-.16-.02-.32-.05-.48-.07-.44-.05-.76,.1-.98,.35-1.77-.38-3.67-.78-5.14-1.9-1.08-.83-2.03-2.3-1.66-3.7,.38-1.44,2.15-2.71,3.31-3.54,.13-.09,.26-.18,.4-.27,1.71,.28,3.48-.2,4.74-1.57,.65-.71-.06-1.86-.91-1.94-1.48-.13-2.87,.23-4.14,.87-.97-.47-1.85-1.31-2.34-2.04-1.47-2.18-2.22-4.94-2.56-7.5-.3-2.23-.46-5.41,2.48-5.73,1.59-.17,2.88,.67,3.76,1.86,.36,.91,.8,1.8,1.24,2.66,.61,1.18,2.72,.68,2.34-.72-.31-1.11-.79-2.22-1.46-3.19-.41-1.09-.65-2.22-.47-3.36,.32-1.99,1.83-3.28,3.91-2.79,1.35,.32,2.51,1.06,3.42,2.02,.15,2.54,1.83,4.72,2.17,7.26,.19,1.46,2.23,1.19,2.45-.1,.46-2.73-.4-5.7-2.13-7.97,.07-.51,.26-.99,.65-1.35,.65-.6,1.66-.68,2.5-.47,2.01,.52,3.27,2.74,3.87,4.58-.9,2.06-.49,4.96-.04,7.07,.24,1.14,2,1.41,2.38,.22,.67-2.09,.81-4.28,.41-6.41,.46,.11,1.03,.62,1.32,.92,1.85,1.9,1.53,5.07-.77,6.45-.81,.49-1.04,1.93,.1,2.26,2.93,.83,2.34,5.14,1.65,7.28-.5,1.55-1.38,3.28-3.01,3.9-.39,.15-.79,.22-1.19,.24-.91-.75-2.02-1.29-3.22-1.54-1.14-.24-1.59,1.23-1.05,1.99,.77,1.08,1.95,1.7,3.22,1.91,.6,.74,.94,1.68,.9,2.65-.08,1.77-1.26,3.14-2.88,3.71Z"/>
  <path d="M159.08,183.13c-.42-4.28-3.31-8.43-8.06-7.76-.65,.09-.98,.49-1.06,.97-.36,.14-.65,.46-.74,.99-1.34,8.47-2.69,17.25-7.14,24.73-1.92,3.24-4.41,6.23-7.52,8.4-2.79,1.95-7.36,3.74-6.58,8,.75,4.12,5.55,3.62,8.63,3.2,3.98-.55,8.03-1.39,11.29-3.88,6-4.59,7.89-12.78,9.48-19.77,1.08-4.75,2.17-9.99,1.69-14.88Zm-2.94,2.61c-.13,3.95-.81,7.86-1.7,11.7-1.39,6.04-2.89,13.25-7.79,17.51-2.65,2.3-6.18,3.11-9.57,3.63-1.52,.23-3.28,.64-4.82,.36-1.67-.31-1.58-1.85-.59-2.94,1.09-1.2,2.76-1.83,4.08-2.73,1.34-.9,2.61-1.94,3.77-3.07,2.33-2.28,4.27-4.97,5.83-7.83,4.04-7.43,5.43-15.86,6.74-24.12,1.35-.03,2.58,1.06,3.19,2.17,.88,1.6,.91,3.53,.85,5.32Z"/>
  <circle class="cls-1" cx="160" cy="163" r="6.5"/>
  <path d="M107.84,91.08c1.93,0,1.93,3,0,3s-1.93-3,0-3Z"/>
  <path d="M100.97,89.08c1.93,0,1.93,3,0,3s-1.93-3,0-3Z"/>
  <path d="M145.06,104.39c1.93,0,1.93,3,0,3s-1.93-3,0-3Z"/>
  <path d="M152.42,95.94c.18,.05,.36,.12,.54,.18,.69,.11,1.33,.26,1.95,.46,.71,.06,1.4,.26,2,.64,.14,.09,.27,.18,.41,.27,.29-.49,.39-1.1,.16-1.75-.46-1.3-2.04-1.9-3.22-2.35-2.89-1.1-6.07-1.01-8.89,.07-.29-.1-.58-.09-.91-.04-.02,0-.03,0-.04,0-.02,0-.03,0-.05,0-.13,.02-.26,.03-.39,.05-.22,.02-.44,.05-.67,.07-.44,.04-.89,.07-1.34,.09-.5,.02-1,.03-1.5,.02-9.9-2.13-19.81-4.18-29.74-6.17-.91-1.22-2.02-2.29-3.34-3.03-2.38-1.33-5.4-1.5-7.74,0-1.62,1.04-.12,3.63,1.51,2.59,2.59-1.66,5.15-.16,6.91,1.97,.05,.44,.31,.86,.8,1.1,.41,.63,.75,1.28,1,1.9,1.03,2.53,1.1,5.56-.19,7.89,.19,.63,.26,1.3,.12,1.98,.21,.69,.32,1.39,.36,2.12,.05-.05,.11-.09,.17-.14,.27,1.96,1.06,3.8,2.52,5.39,2.4,2.6,5.93,3.42,9.34,2.72,3.78-.78,6.85-3.32,9.56-5.92,2.4-2.3,4.77-4.64,7.15-6.98-.43,.78-.79,1.61-1.04,2.46-.59,2.02-.47,4.58,1.28,6.01,.63,.51,1.5,.62,2.12,0,.53-.53,.63-1.61,0-2.12-1.22-1-.69-2.87-.14-4.1,.69-1.56,1.81-2.96,3.2-3.95,1.54-1.1,3.35-1.72,5.25-1.77,.97-.02,1.91,.09,2.85,.34Zm-24.57,9.64c-3.13,2.71-8.15,5.35-12,2.38-.4-.31-.77-.68-1.09-1.08,.32-.16,.58-.46,.69-.92,.41-1.7,2.9-2.51,4.31-3.14,1.9-.86,3.86-1.57,5.85-2.2,1.98-.63,3.98-1.17,5.99-1.67,1.08-.27,2.16-.53,3.25-.78,.3-.07,.69-.2,1.09-.32-2.63,2.64-5.27,5.31-8.08,7.74Z"/>
  <path d="M101.1,97.1c.07-.25,.2-.47,.39-.66l.3-.23c.23-.14,.49-.2,.76-.2h.39c.21,0,.4,.04,.58,.13,.19,.06,.35,.16,.48,.31,.15,.14,.25,.3,.31,.48,.09,.18,.14,.37,.13,.58-.02,.13-.04,.27-.05,.4-.07,.25-.2,.47-.39,.66l-.3,.23c-.23,.14-.49,.2-.76,.2h-.39c-.21,0-.4-.04-.58-.13-.19-.06-.35-.16-.48-.31-.15-.14-.25-.3-.31-.48-.09-.18-.14-.37-.13-.58,.02-.13,.04-.27,.05-.4Z"/>
  <g>
    <path d="M150.89,65.37c3.17,.79,5.08,4.82,4.9,9.66l-1.54,.21-6.62,.92,5.5,3.95,1.38,.99c-1.89,4.76-5.5,7.74-8.82,6.91-3.89-.97-5.89-6.83-4.45-13.09,1.44-6.25,5.75-10.53,9.65-9.56Z"/>
    <path d="M124.23,59.08c3.21,.6,5.34,4.5,5.44,9.35l-1.53,.31-6.56,1.32,5.72,3.61,1.43,.9c-1.62,4.86-5.06,8.06-8.42,7.44-3.94-.74-6.26-6.46-5.17-12.79s5.16-10.87,9.1-10.13Z"/>
  </g>
  <path d="M148.86,98.9c-1.93,0-1.93,3,0,3s1.93-3,0-3Z"/>
  <path d="M153.24,103.59c-1.93,0-1.93,3,0,3s1.93-3,0-3Z"/>
  <path d="M118.55,49.13c-.27-.76-1.08-1.25-1.88-.99-3.73,1.21-7.14,3.39-9.78,6.29-.53,.58-.56,1.58,.06,2.12,.61,.52,1.56,.56,2.12-.06,.6-.65,1.23-1.27,1.9-1.85,.07-.06,.15-.12,.22-.19,.02-.02,.07-.05,.12-.09,.18-.14,.37-.28,.55-.42,.36-.26,.72-.51,1.09-.75,.74-.48,1.52-.91,2.31-1.29,.05-.02,.1-.05,.13-.06,.09-.04,.18-.08,.27-.12,.19-.08,.39-.16,.58-.24,.43-.17,.87-.33,1.31-.47,.75-.24,1.26-1.11,.99-1.88Z"/>
  <path d="M162.19,55.14c.41-.68,1.25-.97,1.93-.54,3.16,2.02,5.81,4.91,7.62,8.33,.36,.68,.18,1.67-.51,2.05-.67,.37-1.54,.19-1.93-.54-.41-.77-.86-1.52-1.35-2.23-.05-.08-.11-.15-.16-.23-.02-.02-.05-.07-.09-.12-.14-.18-.27-.36-.42-.54-.27-.34-.55-.66-.84-.98-.58-.63-1.19-1.23-1.84-1.78-.04-.04-.08-.07-.11-.09-.07-.06-.15-.12-.22-.18-.16-.12-.32-.25-.48-.37-.36-.26-.72-.51-1.1-.75-.63-.4-.92-1.37-.51-2.05Z"/>
</svg>