<?xml version="1.0" encoding="UTF-8"?>
<svg id="Layer_1" data-name="Layer 1" xmlns="http://www.w3.org/2000/svg" viewBox="0 0 500 500">
  <defs>
    <style>
      .cls-1 {
        fill: #f4d4d4;
      }

      .cls-2 {
        fill: #f5f1dc;
      }

      .cls-3 {
        fill: #ff5252;
      }

      .cls-4 {
        fill: #fffcfa;
      }

      .cls-5 {
        fill: #fcf6f2;
      }

      .cls-6 {
        fill: #aa917d;
      }

      .cls-7 {
        fill: #d64c4c;
      }

      .cls-8 {
        fill: #070707;
      }

      .cls-9 {
        fill: #4c311e;
      }

      .cls-10 {
        fill: #fcfbf5;
        stroke: #eaca83;
        stroke-miterlimit: 10;
        stroke-width: 2px;
      }
    </style>
  </defs>
  <rect class="cls-2" x=".5" width="500" height="500"/>
  <ellipse class="cls-10" cx="249.5" cy="434" rx="247" ry="27"/>
  <polygon class="cls-9" points="79.98 174.87 79.98 424.08 426.57 451 426.57 193.83 79.98 174.87"/>
  <polygon class="cls-5" points="79.98 257.2 426.57 301.31 426.57 388.24 79.98 346.12 79.98 257.2"/>
  <path class="cls-3" d="M79.13,326.69s-10.76-56.38,53.47-49.82c56.76,5.8,40.37,62.13,40.37,62.13l-93.85-12.31Z"/>
  <path class="cls-3" d="M330.69,360.13s-10.73-56.39,53.5-49.79c56.75,5.83,40.34,62.15,40.34,62.15l-93.84-12.36Z"/>
  <path class="cls-7" d="M101.13,328.39s-5.41-28.33,26.87-25.03c28.52,2.91,20.28,31.21,20.28,31.21l-47.15-6.18Z"/>
  <path class="cls-7" d="M356.63,363.13s-5.41-28.33,26.87-25.03c28.52,2.91,20.28,31.21,20.28,31.21l-47.15-6.18Z"/>
  <g>
    <ellipse class="cls-6" cx="245.96" cy="324.29" rx="90.08" ry="73.67" transform="translate(-11.99 9.45) rotate(-2.15)"/>
    <ellipse class="cls-6" cx="190.45" cy="267.57" rx="22.34" ry="21.22" transform="translate(-9.9 7.33) rotate(-2.15)"/>
    <ellipse class="cls-6" cx="310.86" cy="268.65" rx="22.34" ry="21.22" transform="translate(-9.86 11.85) rotate(-2.15)"/>
    <ellipse class="cls-8" cx="218.78" cy="313.15" rx="4.02" ry="3.82" transform="translate(-11.59 8.43) rotate(-2.15)"/>
    <ellipse class="cls-8" cx="286.01" cy="310.88" rx="4.02" ry="3.82" transform="translate(-11.46 10.95) rotate(-2.15)"/>
    <ellipse class="cls-8" cx="254.98" cy="313.97" rx="6.49" ry="3.58" transform="translate(-11.6 9.78) rotate(-2.15)"/>
  </g>
  <path class="cls-1" d="M80.25,173.25l211.51-56.95,134.81,76.7s-8.79,54.79-22.08,25.57c-13.29-29.23-27.89,1.02-47.65-9.3s-62.34,33.14-83.67-5.81c-21.34-38.95-27.05,45.81-37.19,20.92-12.78-31.38-35.42-2.04-39.51-24.41s-48.24,8.96-54.62-6.97c-6.38-15.93-40.39,67.46-44.16,20.92-3.49-43-17.43-40.68-17.43-40.68Z"/>
  <ellipse class="cls-4" cx="260.62" cy="136.04" rx="65.09" ry="21.32"/>
  <path class="cls-4" d="M309.09,117.22c0-9.24-21.08-16.73-47.09-16.73-9.68,0-18.67,1.04-26.15,2.81-12.62,3-20.94,8.11-20.94,13.91,0,9.24,21.08,16.73,47.09,16.73s47.09-7.49,47.09-16.73Z"/>
  <path class="cls-4" d="M226.92,103.01c-2.37-12.16,49.15-17.66,46.73-23.05-2.42-5.39,23.43,13.01,19.74,27.23-3.69,14.22-60.94,24.25-66.48-4.18Z"/>
  <path class="cls-4" d="M192.72,163.22s-13.81-11.71,2.81-21.75,122.8-7.53,130.18,0c7.39,7.53,16.86,18.43,0,21.75-21.24,4.18-132.99,0-132.99,0Z"/>
</svg>