<?xml version="1.0" encoding="UTF-8"?>
<svg id="Layer_1" data-name="Layer 1" xmlns="http://www.w3.org/2000/svg" viewBox="0 0 500 500">
  <defs>
    <style>
      .cls-1 {
        fill: #f5f1dc;
      }

      .cls-2 {
        fill: #fffcfa;
      }

      .cls-3 {
        fill: #684f3a;
      }

      .cls-4 {
        fill: #aa917d;
      }

      .cls-5 {
        fill: #070707;
      }

      .cls-6 {
        fill: #fcfbf5;
        stroke: #eaca83;
        stroke-width: 2px;
      }

      .cls-6, .cls-7 {
        stroke-miterlimit: 10;
      }

      .cls-7 {
        fill: none;
        stroke: #fff6f0;
        stroke-linecap: round;
        stroke-width: 40px;
      }
    </style>
  </defs>
  <ellipse class="cls-6" cx="250" cy="430" rx="247" ry="27"/>
  <rect class="cls-1" x="0" width="500" height="500"/>
  <ellipse class="cls-6" cx="251" cy="434" rx="247" ry="27"/>
  <path class="cls-3" d="M427.94,291.31c0,109.14-83,145.5-169.25,145.5s-143.1-65.69-143.1-145.5,69.92-144.5,156.17-144.5,156.17,64.69,156.17,144.5Z"/>
  <ellipse class="cls-3" cx="236.87" cy="289.31" rx="156.17" ry="144.5"/>
  <path class="cls-3" d="M269.66,434.81h-37.47c-24.18,0-43.78-19.6-43.78-43.78V185.71c0-22.04,17.87-39.91,39.91-39.91h41.35c22.04,0,39.91,17.87,39.91,39.91v207.19c0,22.04-17.87,41.91-39.91,41.91Z"/>
  <path class="cls-7" d="M153.7,275.81s42.15-76,119.08-79.5c26.17-1.19,47.14,7.98,63.42,20.6,41.59,32.23,51.04,86.34,21.77,130.07-16.55,24.73-43.16,42.85-93.27,37.84-80-8-45-119,21-94"/>
  <ellipse class="cls-4" cx="104.62" cy="375.82" rx="70.39" ry="56.98"/>
  <ellipse class="cls-4" cx="62.94" cy="330.37" rx="17.46" ry="16.41"/>
  <ellipse class="cls-4" cx="156.93" cy="334.7" rx="17.46" ry="16.41"/>
  <ellipse class="cls-5" cx="83.73" cy="366.43" rx="3.14" ry="2.95"/>
  <ellipse class="cls-5" cx="136.29" cy="366.62" rx="3.14" ry="2.95"/>
  <ellipse class="cls-5" cx="111.96" cy="368.11" rx="5.07" ry="2.77"/>
  <ellipse class="cls-2" cx="253.2" cy="122.31" rx="70.5" ry="25.5"/>
  <path class="cls-2" d="M305.7,99.81c0-11.05-22.83-20-51-20-10.48,0-20.22,1.24-28.32,3.37-13.67,3.59-22.68,9.7-22.68,16.63,0,11.05,22.83,20,51,20s51-8.95,51-20Z"/>
  <path class="cls-2" d="M216.7,82.81c-2.57-14.54,53.24-21.12,50.62-27.56s25.38,15.56,21.38,32.56-66,29-72-5Z"/>
  <path class="cls-2" d="M179.65,154.81s-14.96-14,3.04-26,133-9,141,0,18.26,22.04,0,26c-23,5-144.04,0-144.04,0Z"/>
</svg>